<?xml version="1.0" encoding="utf-8"?>
<!-- Generator: Adobe Illustrator 19.0.0, SVG Export Plug-In . SVG Version: 6.00 Build 0)  -->
<svg version="1.1" id="layer" xmlns="http://www.w3.org/2000/svg" xmlns:xlink="http://www.w3.org/1999/xlink" x="0px" y="0px"
	 viewBox="-153 -46 652 652" style="enable-background:new -153 -46 652 652;" xml:space="preserve">
<style type="text/css">
	.st0{fill:#203366;}
</style>
<path class="st0" d="M-135.8,165.1C-135.8,165.1-135.8,165.1-135.8,165.1C-135.8,165.1-135.8,165.1-135.8,165.1z"/>
<path class="st0" d="M-135.8,165.1C-135.8,165.2-135.8,165.2-135.8,165.1z"/>
<path class="st0" d="M-135.7,165.1c0,0,0-0.1,0.1-0.1C-135.7,165-135.7,165-135.7,165.1z"/>
<path class="st0" d="M24.6,371.1C18.8,359.4,7.4,341.7,4.5,338l-0.6,1.4c-0.1,0.2-5.3,22.9-7,32.1c1.4-0.7,3.7-2,5.7-3.2l1.8-1
	l0.1,1.3c0.6,15.5-2.1,29-8.3,40.1l-0.1,0.2c-1.1,0.2-2.3,0.4-3.5,0.5l-19.9-14.8v-74c0-0.9-0.4-1.8-1-2.5c-0.5-0.5-1.2-1.1-2-1.6
	l41.9-32.4c1.9-1.5,2.2-4.3,0.6-6.1c-0.6-0.7-1.2-1.4-1.8-2.1c-1.5-1.7-4-1.9-5.7-0.6l-40.9,31.1c-4.1-1.3-12.6-3.6-21.9-3.6
	c-11.5,0-21.6,2.9-30.3,8.5v-12.5c4.1-0.2,10-1,16-3.6c1-0.4,1.6-1.4,1.6-2.5l0.2-9.9c0-1.1-0.5-2.1-1.4-2.6
	c-2.3-1.3-7.5-3.5-16.5-4.2v-1.9c0-1.8-1.5-3.3-3.3-3.3h-4.6c-1.8,0-3.3,1.5-3.3,3.3v1.9c-8.9,0.7-14.2,2.9-16.5,4.2
	c-0.9,0.5-1.4,1.5-1.4,2.6l0.2,9.9c0,1.1,0.7,2.1,1.6,2.5c6,2.5,11.9,3.4,16,3.6v12.5c-8.7-5.6-18.8-8.5-30.3-8.5
	c-8.1,0-15.6,1.7-20.1,3l-18.1-13.4c0.8-2.1,1.3-4.4,1.3-6.8c0-10.1-8.2-18.3-18.3-18.3c-10.1,0-18.3,8.2-18.3,18.3
	c0,10.1,8.2,18.3,18.3,18.3c3.7,0,7.1-1.1,10-3l19.3,14.3c-1.8,0.7-3.1,1.8-4,2.6c-0.7,0.7-1,1.6-1,2.5v72.6l-13.8,10.2
	c-2.2,0.1-4.4,0.6-5.8,1.6c-11-15.9-19.8-36.4-19.1-55.9c-9.3,20.7-1.3,45.4,9.6,64.2l-4,2.7c-0.5,0.4,0.4,2.6,2,5.1l1.7,2.5
	c1.6,2.5,3.4,4.2,3.9,3.8l4.6-3.1c14.7,15.8,35.7,30.2,57.9,27.5c-19-5.5-35.3-18.8-47.3-34.1c1.1-0.9,1.6-3,2.3-4.6l19-14.1
	c5.5-1.8,12.2-3.5,17.9-3.5c8.9,0,17.4,1.3,24.4,3.6c0,0,0.1,0.1,0.3,0.1l7.7,2.5c0,0.1,0,0.3,0,0.4v35.1c0,2.4,1.9,4.3,4.3,4.3h2.5
	c2.4,0,4.3-1.9,4.3-4.3V402c0-0.1,0-0.3,0-0.4l7.7-2.5c0.2,0,0.3-0.1,0.3-0.1c7-2.2,15.5-3.6,24.4-3.6c4.6,0,10,1.1,14.8,2.5
	l26.3,19.6c0.4,1.6,0.7,3.2,0.9,4.8c-11,10.8-24.2,15.8-33.4,18.1l-1.1,0.3l0.1-1.2c0.2-1.6,0.3-3.2,0.5-4.6
	c0.2-1.3,0.3-2.7,0.4-3.6c-7.6,5.1-25.8,18.4-25.9,18.5l-1.1,1c4.8,1,24.4,3.3,36.9,3.4c-1.4-1.1-3.3-2.7-4.9-4l-1.2-1l1.5-0.4
	c9.3-2.6,22.4-7.8,33.7-18c5.8-1.3,13.9-4.8,13.9-4.8s0-6.5-0.5-12c7.4-12.8,10.8-28.4,10.1-46.3l-0.1-1.4L16,367
	C18.2,368.1,22.2,370,24.6,371.1z M-185.3,295.6c-5.6,0-10.1-4.5-10.1-10.1c0-5.6,4.5-10.1,10.1-10.1c5.6,0,10.1,4.5,10.1,10.1
	C-175.1,291.1-179.7,295.6-185.3,295.6z M-37.6,387.2c-5-2-10.9-3-17.5-3c-15.2,0-30.3,5.2-36.6,7.7c-1.1,0.5-3.2,1.3-2.4,1
	c0,0-0.5-0.2-2.3-1c-6.3-2.5-21.5-7.7-36.7-7.7c-6.6,0-12.5,1-17.5,3V310c2.9-1,10.9-3.3,20.7-3.3c12.8,0,24.9,4.4,33.9,11.9l2,2.3
	l2-2.3c9-7.5,21.1-11.9,33.9-11.9c9.8,0,17.7,2.3,20.7,3.3V387.2z M-88.1,325.2c-0.1,0.4-0.1,0.7,0.1,1.1l0.1,0.2
	c0.2,0.4,0.7,0.7,1.2,0.7c0.2,0,0.4,0,0.6-0.1c3.5-1.7,12.9-5.5,24.4-5.5c3.7,0,7.4,0.4,10.9,1.2l0.2,0h0.1c0.6,0,1.1-0.4,1.3-1
	l0.1-0.2c0.1-0.4,0-0.7-0.2-1c-0.2-0.3-0.5-0.5-0.8-0.6c-3.8-0.9-7.7-1.3-11.7-1.3c-12.2,0-21.9,4.1-25.5,5.8
	C-87.7,324.5-88,324.8-88.1,325.2z M-87.8,335.2c0.2,0.4,0.7,0.7,1.2,0.7c0.2,0,0.4,0,0.6-0.1c3.5-1.7,12.8-5.5,24.4-5.5
	c3.7,0,7.4,0.4,10.9,1.2l0.2,0h0.1c0.6,0,1.1-0.4,1.3-1l0.1-0.2c0.1-0.4,0-0.7-0.2-1.1c-0.2-0.3-0.5-0.5-0.9-0.6
	c-3.8-0.9-7.7-1.3-11.7-1.3c-12.2,0-21.9,4.1-25.5,5.8c-0.3,0.2-0.6,0.5-0.7,0.8c-0.1,0.3-0.1,0.7,0.1,1.1L-87.8,335.2z
	 M-50.1,336.7c-3.8-0.9-7.7-1.3-11.7-1.3c-12.2,0-21.9,4.1-25.5,5.8c-0.3,0.2-0.6,0.5-0.7,0.8c-0.1,0.4-0.1,0.7,0.1,1.1l0.1,0.2
	c0.2,0.4,0.7,0.7,1.2,0.7c0.2,0,0.4,0,0.6-0.1c3.5-1.7,12.9-5.5,24.4-5.5c3.7,0,7.4,0.4,10.9,1.2l0.2,0h0.1c0.6,0,1.1-0.4,1.3-1
	l0.1-0.2c0.1-0.4,0-0.7-0.1-1C-49.5,337-49.8,336.8-50.1,336.7z M-87.9,352.3c0.2,0.4,0.7,0.7,1.2,0.7c0.2,0,0.4,0,0.6-0.1
	c3.5-1.7,12.8-5.5,24.4-5.5c3.7,0,7.4,0.4,10.9,1.2l0.2,0h0.1c0.6,0,1.1-0.4,1.3-1l0.1-0.2c0.1-0.4,0-0.7-0.2-1.1
	c-0.2-0.3-0.5-0.5-0.8-0.6c-3.8-0.9-7.7-1.3-11.7-1.3c-12.2,0-21.9,4.1-25.5,5.8c-0.3,0.2-0.6,0.5-0.7,0.8c-0.1,0.3-0.1,0.7,0.1,1
	L-87.9,352.3z M-50.2,354c-3.8-0.9-7.7-1.3-11.7-1.3c-12.2,0-21.9,4.1-25.5,5.8c-0.3,0.2-0.6,0.5-0.7,0.8c-0.1,0.4-0.1,0.7,0.1,1.1
	l0.1,0.2c0.2,0.4,0.7,0.7,1.2,0.7c0.2,0,0.4,0,0.6-0.1c3.5-1.7,12.8-5.5,24.4-5.5c3.7,0,7.4,0.4,10.9,1.2l0.2,0h0.1
	c0.6,0,1.1-0.4,1.3-1l0.1-0.2c0.1-0.4,0-0.7-0.2-1C-49.5,354.3-49.8,354.1-50.2,354z M-50.1,362.5c-3.8-0.9-7.7-1.3-11.7-1.3
	c-12.2,0-21.9,4.1-25.5,5.8c-0.3,0.2-0.6,0.5-0.7,0.8c-0.1,0.3-0.1,0.7,0.1,1.1l0.1,0.2c0.2,0.4,0.7,0.7,1.2,0.7
	c0.2,0,0.4,0,0.6-0.1c3.5-1.7,12.9-5.5,24.4-5.5c3.7,0,7.4,0.4,10.9,1.2l0.2,0h0.1c0.6,0,1.1-0.4,1.3-1l0.1-0.2c0.1-0.4,0-0.7-0.2-1
	C-49.5,362.8-49.8,362.6-50.1,362.5z M-50.1,371.1c-3.8-0.9-7.7-1.3-11.7-1.3c-12.2,0-21.9,4.1-25.5,5.8c-0.3,0.2-0.6,0.5-0.7,0.8
	c-0.1,0.4-0.1,0.7,0.2,1.3c0.2,0.4,0.7,0.7,1.2,0.7c0.2,0,0.4,0,0.6-0.1c3.5-1.7,12.9-5.5,24.4-5.5c3.7,0,7.4,0.4,10.9,1.2l0.2,0
	h0.1c0.6,0,1.1-0.4,1.3-1l0.1-0.2c0.1-0.4,0-0.8-0.2-1.1C-49.5,371.4-49.8,371.2-50.1,371.1z M-108,350.2
	c-3.6-1.8-13.3-5.8-25.5-5.8c-4,0-7.9,0.4-11.7,1.3c-0.4,0.1-0.7,0.3-0.9,0.6c-0.2,0.3-0.2,0.7-0.2,1l0.1,0.2c0.2,0.6,0.7,1,1.3,1
	l0.2,0l0.1,0c3.5-0.8,7.2-1.2,10.9-1.2c11.6,0,20.9,3.9,24.4,5.5c0.2,0.1,0.4,0.1,0.6,0.1c0.5,0,0.9-0.3,1.2-0.7l0.1-0.2
	c0.2-0.3,0.2-0.7,0.1-1.1C-107.4,350.7-107.7,350.4-108,350.2z M-108,358.5c-3.6-1.8-13.4-5.8-25.5-5.8c-4,0-7.9,0.4-11.7,1.3
	c-0.4,0.1-0.7,0.3-0.9,0.6c-0.2,0.3-0.2,0.7-0.1,1l0.1,0.2c0.2,0.6,0.7,1,1.3,1l0.2,0l0.1,0c3.5-0.8,7.2-1.2,10.9-1.2
	c11.6,0,20.9,3.9,24.4,5.5c0.2,0.1,0.4,0.1,0.6,0.1c0.5,0,0.9-0.3,1.2-0.7l0.1-0.2c0.2-0.3,0.2-0.7,0.1-1.1
	C-107.4,358.9-107.7,358.7-108,358.5z M-108,367c-3.6-1.8-13.4-5.8-25.5-5.8c-4,0-7.9,0.4-11.7,1.3c-0.4,0.1-0.7,0.3-0.8,0.6
	c-0.2,0.3-0.2,0.7-0.2,1l0.1,0.2c0.2,0.6,0.7,1,1.3,1l0.2,0l0.1,0c3.5-0.8,7.1-1.2,10.9-1.2c11.5,0,20.9,3.9,24.4,5.5
	c0.2,0.1,0.4,0.1,0.6,0.1c0.5,0,0.9-0.3,1.2-0.7l0.1-0.2c0.2-0.3,0.2-0.7,0.1-1C-107.4,367.5-107.7,367.2-108,367z M-108,375.6
	c-3.6-1.8-13.4-5.8-25.5-5.8c-4,0-7.9,0.4-11.7,1.3c-0.3,0.1-0.6,0.3-0.8,0.6c-0.2,0.3-0.2,0.7-0.2,1.1l0.1,0.2c0.2,0.6,0.7,1,1.3,1
	l0.2,0l0.1,0c3.5-0.8,7.1-1.2,10.9-1.2c11.5,0,20.9,3.9,24.4,5.5c0.2,0.1,0.4,0.1,0.6,0.1c0.5,0,0.9-0.3,1.2-0.7l0.1-0.2
	c0.2-0.3,0.2-0.7,0.1-1.1C-107.4,376.1-107.7,375.8-108,375.6z M-141.9,339.1c2.7-0.5,5.4-0.7,8.2-0.7c11.5,0,20.9,3.9,24.4,5.5
	c0.2,0.1,0.4,0.1,0.6,0.1c0.5,0,0.9-0.3,1.2-0.7l0.1-0.2c0.2-0.3,0.2-0.7,0.1-1c-0.1-0.4-0.4-0.7-0.7-0.8
	c-3.5-1.7-12.9-5.6-24.7-5.8l0-5.2c11.1,0.2,20,3.9,23.4,5.5c0.2,0.1,0.4,0.1,0.6,0.1c0.5,0,0.9-0.3,1.2-0.7l0.1-0.2
	c0.2-0.3,0.2-0.7,0.1-1.1c-0.1-0.4-0.4-0.7-0.7-0.8c-1.9-0.9-12-5.5-24.7-5.8l0-5.7c11.1,0.2,20,3.9,23.4,5.5
	c0.2,0.1,0.4,0.1,0.6,0.1c0.5,0,0.9-0.3,1.2-0.7l0.1-0.2c0.2-0.3,0.2-0.7,0.1-1.1c-0.1-0.4-0.4-0.6-0.7-0.8
	c-3.6-1.8-13.4-5.8-25.5-5.8c-4,0-7.9,0.4-11.7,1.3l-1.1,0.5l0,19.6L-141.9,339.1z M-61,156.1c-0.1,0-0.3,0-0.4,0
	C-61.3,156.1-61,156.1-61,156.1c-5.8,1.2-14.3,12.4-15.8,14.4c-0.4,3.3,0.1,4.7,1.8,7.1c1.8,2.5,0.8,4.9-0.9,7.8
	c-1.2,2.2-3.7,8.1-4.5,10.9c-1.4,1.6-3.4,2.9-5.2,3.5c-0.4-0.2-0.5-1.3-0.5-1.3c-2.8-4.1-7.9-3.6-7.9-3.6c-5.5,0.9-5.7,2.7-5.7,2.7
	c1.2-0.1,4.7,1.3,4.7,1.3c0,0.8,1.5,1.6,1.5,1.6c-3.3-0.6-6.1,1.3-6.1,1.3c-5.1,3.5-3.3,7.4-3.3,7.4c0-3,4.4-3.7,4.4-3.7
	c1.9,1.8,9.4-1.3,9.4-1.3l-6.6,5.4c-2.5,3.3-1,6.6-1,6.6c0.1-2.4,3.4-3.3,3.4-3.3c2.2-0.2,3-1.4,3-1.4c4.1-0.9,4.4-5,4.4-5
	c6.2-2.6,12.4-1.2,12.4-1.2c3.8,2.2,6.5,3.9,6.5,3.9l0.7-1.1c2.8-0.6,4.2,2.8,4.2,2.8c1-4.6-2.6-6.1-2.6-6.1
	c-1.5-1.7-4.2-1.6-4.2-1.6l-4.6-1.3c0-0.1-1.4-0.5-1.4-0.6c-0.4-1.1-1-2.5-0.8-3.7c0.3-1.3,0.7-2.3,1.2-3.2c2.4-3.2,6-7.1,7.2-9.7
	c1.3-2.7,2.2-7,5.6-8.8c1.4-0.7,3.2-1.4,4.8-2.1l0,0c0,0,0.1,0,0.2-0.1c0.8-0.4,1.6-0.8,2.1-1.2c2.8-1.5,4.6-2.8,4.6-2.8
	C-52.2,167.5-56.4,163.3-61,156.1z M-74.9,151.3c4.2,1.1,6.6,4.7,7,5.4c1.7-1.4,3.5-2.5,5.1-2.9c0,0-4.5-7.6-11.8-7
	c-0.1,0-0.2,0-0.4,0h0l0,0c-3.7,0.3-10.4,3.8-25.6,13.7c-23.5,15.4-36,7-36,7c-4.4,11.9-11.6,14.8-11.6,14.8s2.1,2,6.1,3.9
	c0.1-0.1,0.2-0.2,0.3-0.3c1.3-1.2,2.9-3,4.4-5c0.7-1,1.4-2,2.1-2.9c0.6-1,1.2-1.9,1.6-2.7c0.4-0.8,0.8-1.5,1-2
	c0.2-0.5,0.4-0.8,0.4-0.8s-0.1,0.3-0.2,0.8c-0.1,0.5-0.3,1.3-0.5,2.2c-0.2,0.9-0.6,2-1,3.1c-0.4,1.1-0.9,2.3-1.4,3.5
	c-0.9,2.1-2.1,4-3,5.6c2.4,0.8,5.2,1.5,8.3,1.7c0.1-0.1,0.2-0.3,0.3-0.4c1-1.5,2.3-3.5,3.4-5.7c0.5-1.1,1-2.2,1.5-3.3
	c0.4-1.1,0.8-2.1,1-3c0.3-0.9,0.5-1.6,0.6-2.2c0.1-0.5,0.2-0.8,0.2-0.8s0,0.3,0,0.9c0,0.5,0,1.3-0.1,2.3c-0.1,0.9-0.2,2-0.4,3.2
	c-0.2,1.2-0.4,2.4-0.7,3.7c-0.5,2-1.1,3.9-1.7,5.5c3.2-0.1,6.8-0.6,10.6-1.6c0.1-0.2,0.1-0.3,0.2-0.6c0.6-1.7,1.2-4,1.6-6.4
	c0.2-1.2,0.4-2.4,0.5-3.6c0.1-1.1,0.2-2.2,0.2-3.1c0-0.9,0-1.7,0-2.2c0-0.5,0-0.9,0-0.9s0.1,0.3,0.2,0.8c0.2,0.5,0.4,1.3,0.5,2.2
	c0.2,0.9,0.4,2,0.5,3.2c0.2,1.2,0.3,2.4,0.3,3.7c0.1,1.9,0.1,3.9,0,5.6c2.5-0.9,5.2-2.1,8-3.6c1.1-0.6,2.2-1.2,3.2-1.7
	c0-1.6-0.1-3.4-0.3-5.3c-0.1-1.2-0.3-2.4-0.6-3.5c-0.2-1.1-0.5-2.2-0.8-3.1c-0.3-0.9-0.5-1.6-0.7-2.1c-0.2-0.5-0.3-0.8-0.3-0.8
	s0.2,0.3,0.5,0.7c0.3,0.5,0.7,1.1,1.2,2c0.5,0.8,1,1.8,1.4,2.9c0.5,1.1,1,2.3,1.4,3.5c0.5,1.4,0.9,2.8,1.3,4.1
	c3.3-1.9,6.4-3.7,9.1-5.5c-0.2-1.7-0.6-3.8-1.2-5.9c-0.3-1.1-0.7-2.2-1-3.2c-0.4-1-0.8-2-1.1-2.7c-0.4-0.8-0.7-1.5-0.9-1.9
	c-0.2-0.5-0.4-0.7-0.4-0.7s0.2,0.2,0.5,0.6c0.3,0.4,0.8,0.9,1.4,1.6c0.6,0.7,1.2,1.5,1.8,2.5c0.6,0.9,1.3,2,1.8,3
	c0.9,1.6,1.6,3.2,2.3,4.7c1.7-1.2,3.2-2.3,4.5-3.4h0l1.4-1.1c0,0,0.2-1.7-0.4-3.2c-0.3-0.8-0.7-1.7-1.1-2.5c-0.5-1-1.1-2-1.6-3
	c-0.6-0.9-1.1-1.8-1.6-2.5c-0.5-0.7-1-1.3-1.3-1.7c-0.3-0.4-0.5-0.6-0.5-0.6s0.2,0.2,0.6,0.5c0.4,0.3,1,0.8,1.7,1.4
	c0.7,0.6,1.4,1.3,2.2,2.1c0.8,0.8,1.6,1.7,2.4,2.6c0.1,0.1,0.2,0.3,0.3,0.4c0,0,2.1,2.6,2,5.1c0,0,2.9-4,6.4-7.5
	C-70.9,153.7-75.5,151.2-74.9,151.3z M-177.9,107c7.9,1.3,19.2-3.7,23.7-8.8c-0.7-1.4-2.9-1.9-4.2-1.8c-6,4.5-18.8,10.2-27.1,4
	c0,0-7.7-5.7-2.5-14.9c0,0,1.5,4.7,4.2,5c0,0,0.6-7.7,5.2-9.2c0,0-6.4-2.4-11.5,2.7C-196.3,90.3-191.7,104.8-177.9,107z M-130,154.4
	c7.3-1.2,14.5,2.2,14.5,2.2c2.3-8-1-10.4-1-10.4C-123.3,153-130,154.4-130,154.4z M-103.8,147c0,0,1.7-7.2-3.9-10.6c0,0-3,5.1-6,7.6
	c0,0,2.2,3,1.3,5.8C-112.3,149.8-107.6,145.5-103.8,147z M-84.4,129.3c0,0,2.4-9.2,11-9.2c0,0-4.8-7.9-16.3-8.1
	c-11.6-0.2-12.4,9.1-12.4,9.1v0.3c0-0.1,6.7-3.8,13.6,2C-88.5,123.5-84.8,126-84.4,129.3z M-153.9,138.1c-0.7,0.6-1.4,1.4-2.2,2.2
	c-0.8,0.8-1.6,1.7-2.3,2.7c-1.5,1.9-2.8,3.9-3.7,5.4c-0.2,0.3-0.4,0.6-0.5,0.9c0,0.1-0.1,0.2-0.1,0.3c-0.9,2.9-1.5,5.9-1.8,8.6
	c0.6-0.8,1.3-1.5,2-2.3c0.9-0.9,1.8-1.8,2.6-2.6c0.9-0.8,1.7-1.5,2.5-2c0.7-0.6,1.4-1,1.8-1.3c0.4-0.3,0.7-0.5,0.7-0.5
	s-0.2,0.2-0.6,0.6c-0.4,0.4-0.9,0.9-1.5,1.7c-0.6,0.7-1.2,1.5-1.9,2.5c-0.7,0.9-1.3,1.9-1.9,3c-1.2,2.1-2.3,4.2-2.9,5.9
	c-0.3,0.6-0.5,1.2-0.6,1.6c0.4,1.9,1.2,3.6,2.5,4.9c0-0.1,0.4-0.9,1.1-2.1c1.5-2.7,3.2-5.3,5-7.8c0,0,0,0,0,0
	c2.7-4.1,6.4-8.5,7.6-9.1c0,0-2.6-8.3-0.1-16.8c1.1-5.4,6-14.2,6.6-20.1c-1.6,2-2.9,3.4-6.6,3.9l-0.7,2v0l-2.8,5.4
	c1.4-0.6,2.8-1.1,3.9-1.4c0.6-0.2,1.2-0.3,1.6-0.4c0.4-0.1,0.6-0.1,0.6-0.1s-0.2,0.1-0.5,0.3c-0.3,0.2-0.8,0.5-1.4,0.8
	c-1.1,0.7-2.5,1.8-3.8,3c-1.3,1.2-2.4,2.4-3.2,3.4c-0.1,0.2-0.2,0.3-0.3,0.4c-0.4,0.8-0.9,1.6-1.3,2.6c-0.8,1.5-1.6,3.2-2.4,5.1
	c-0.4,0.9-0.8,1.7-1.1,2.6c0.9-0.7,1.8-1.4,2.7-2c1-0.7,1.9-1.2,2.7-1.7c0.8-0.5,1.5-0.8,2-1c0.5-0.2,0.8-0.4,0.8-0.4
	s-0.2,0.2-0.7,0.5C-152.6,137-153.2,137.5-153.9,138.1z M-52.4,105c-0.1-4.6,1-9.9,4.7-12.4c8.1-5.5,30.1-4.4,30.1-4.4
	c-4.6-1.8-49.8-9.2-73.1,12.9c0,0,21.4-11.2,36.8,2.4C-53.4,103.8-52.9,104.6-52.4,105z M-57,105c0,0-5.6-3.5-12-4.7
	c-8-1.5-22.4,1.1-28,10.4c14.4-4.1,21.7,1.8,25.8,6.1C-70.1,106.4-59.1,105.4-57,105z M-101.4,139.4c3.8-8.6,14.3-8.2,14.3-8.2
	c0-1.6-3-6.5-9.5-8c-7.2-1.7-10.4,9.8-10.4,9.8C-101.9,133.9-101.4,139.4-101.4,139.4z M-146.5,152.8c-1.5,0.4-2.7,2.4-2.7,2.4
	c-4.1,5.4-6.7,9.6-10.6,16.5c-4.9,7.9-9.7,19.4-16,25.4c-0.6,0.5-0.8,0.9-1.7,1.2c-0.9,0.3-2-1.3-2-1.3c-2.8-4.1-7.9-3.6-7.9-3.6
	c-5.5,0.9-5.7,2.7-5.7,2.7c1.2-0.1,4.8,1.3,4.8,1.3c0,0.8,1.5,1.6,1.5,1.6c-3.3-0.6-6.1,1.3-6.1,1.3c-5.1,3.5-3.3,7.4-3.3,7.4
	c0-3,4.4-3.7,4.4-3.7c1.9,1.8,9.4-1.3,9.4-1.3l-6.6,5.4c-2.5,3.3-1,6.6-1,6.6c0.1-2.4,3.4-3.3,3.4-3.3c2.2-0.2,3-1.4,3-1.4
	c4.1-0.9,4.4-5,4.4-5c6.2-2.6,12.4-1.2,12.4-1.2c3.8,2.2,6.5,3.9,6.5,3.9l0.7-1.1c2.8-0.6,4.2,2.8,4.2,2.8c1-4.6-2.6-6.1-2.6-6.1
	c-1.5-1.7-4.2-1.6-4.2-1.6l-4.2-1.2c-0.3-0.5-0.6-1.1-0.9-1.8c-0.5-3.7,2.2-7.2,4-10.1c5.5-6,14.1-8.4,18.1-12.8
	c3.6-4,7.1-10.3,6.6-18.3C-138.9,154.1-145,152.4-146.5,152.8z M-191.4,129.2c2.6,6.2,1.2,12.4,1.2,12.4c-2.2,3.8-3.9,6.5-3.9,6.5
	l1.1,0.7c0.6,2.8-2.8,4.2-2.8,4.2c4.6,1,6.1-2.6,6.1-2.6c1.7-1.5,1.6-4.2,1.6-4.2l1.2-4.2c0.5-0.3,1.1-0.6,1.8-0.9
	c2.3-1.2,4.2,0.2,5.6,1.4c0.5,0.5,1.1,1,1.6,1.5c3.1,2.8,4.4,7.1,6.6,10.4l0,0l3.2,5.2c0.2-3.1,0.9-6.6,1.9-10
	c0.6-1.8,1.2-3.7,1.9-5.5h-2.7c-0.1,0-0.3,0-0.4,0c-3.7-1-6.7-4.4-10.2-7.4c-1.1-1-3.7-3-5.8-4.5c-0.6-0.4-0.9-0.5-1.3-1.4
	c-0.3-0.9,1.3-2,1.3-2c4.1-2.8,3.6-7.9,3.6-7.9c-0.9-5.5-2.7-5.7-2.7-5.7c0.1,1.2-1.3,4.8-1.3,4.8c-0.8,0-1.6,1.4-1.6,1.4
	c0.6-3.3-1.3-6.1-1.3-6.1c-3.5-5.1-7.3-3.3-7.3-3.3c3,0,3.7,4.4,3.7,4.4c-1.8,1.9,1.3,9.4,1.3,9.4l-5.4-6.6c-3.3-2.5-6.6-1-6.6-1
	c2.4,0.1,3.3,3.4,3.3,3.4c0.2,2.2,1.4,3,1.4,3C-195.6,128.9-191.4,129.2-191.4,129.2z M-117.8,143.1L-117.8,143.1
	c5.8-4.8,10.6-16.5,12-21.2c16.6-55.1,91.2-35.3,91.2-35.3c-23-8.9-46.1-5.9-46.1-5.9s-34.5,1.7-47.1,30.2
	c-7.6,17-11.4,22.9-13,24.8c0,0,0,0,0,0c-8.8,9.3-17,8.4-17,8.4c8.5-2.4,12.8-8.6,13.9-10.5c0,0,1.1-1.8,1.2-2.4
	c-0.7,0.1-2.7,0.7-3.6,0.7c-2.7,0.1-5-2.1-5.6-5.2c-2,2.1-3.4,4.5-3.4,4.5c0.3-2.9,2.4-6.1,4-8c0.4-0.5,0.8-1.1,1.3-1.5
	c0.2-0.2,0.3-0.4,0.3-0.4l0,0c1.1-0.9,2.1-1.6,2.1-1.6s-4-2.3-4.2-6.5c-2.2,2-3.9,4.5-3.9,4.5c0.5-3.2,3.3-6.5,5-8.2
	c1.4-1.9,3.7-2.5,3.7-2.5s-4.2-0.9-3.6-8.2c-1.7,1.8-2.9,3.5-2.9,3.5c0.4-2.6,2.4-5.3,4-7.1c1.3-2.2,3.4-3,3.4-3
	c-0.4-0.3-0.8-0.6-1.1-1c-0.4-0.4-1-0.8-1.5-1.4c-0.8-0.8-1.7-1.7-2.5-2.8c-0.8-1.1-1.6-2.4-2-3.8c-0.2-0.7-0.3-1.5-0.3-2.2
	c0-0.8,0.3-1.5,0.6-2.1c0.3-0.6,0.7-1.2,1.2-1.6c0.4-0.5,0.9-0.8,1.3-1.2c0.9-0.6,1.7-1,2.3-1.3c0.6-0.3,0.9-0.4,0.9-0.4
	s-0.3,0.2-0.9,0.5c-0.5,0.3-0.9,0.5-1.7,1.2c-0.4,0.3-0.9,0.7-1.2,1.2c-0.4,0.4-0.7,1-1,1.6c-0.2,0.6-0.4,1.3-0.4,1.9
	c0,0.7,0.1,1.3,0.4,2c0.7,1.7,1.3,3.1,2.4,4.3c-0.5-1.4-0.5-2.6-0.3-4.3c0.5-5.2,8.1-8.5,8.1-8.5s-0.9-1.1-2.8-1.3
	c0,0-5.3-1.4-16.5,5.9c-5.6-3.2-14-1.7-19.5,3.7c0,0-7.2-3.4-16.4,5.2l9.1,2.7c2.7,1.4,3.2,1.8,3.1,5.1c4.1-2.6,7.7-2.1,10.8-0.7
	c1.8,0.9,5.7,3.5,4.4,8.7c-0.4,0.7-0.9,1.4-1.4,2c-3.6,3.9-9.3,4.1-13.8,4.6c-1.5,0.2-3,3.1-3.7,4.6l1.3-0.3c7-2,12.4,2.1,19.3-0.7
	c5.5-3.3,7.2-7.1,7.2-13.8c-0.8-9.9-4.4-12.4-5.8-12.8c-2.9-0.7-4.7,2.3-6.3,1.3c-1.9-1.2-1.2-4.2-1.2-4.2c1.9-0.8,5.7,0.4,7.2,1
	c2,1,7.3,3.6,8.2,15c0.4,3.5,0.3,6.1,0.3,10.3c-1.1,12.4-6.3,16-7.4,29.4c0.2,7.6,0.9,8.9,2.5,10.2c2.9,2.3,12.3,1.7,16.6-0.6
	C-123.3,148-120.3,145.7-117.8,143.1z M5.8,191.3c-2.1-0.6-4.2,1.1-4.2,1.1l-4.3,1.6c-0.2,0.2-3.3-0.3-3.6-0.1
	c-0.8-1.9-1.6-4.6-2.8-9.6l0,0c-0.2-0.7-0.3-1.5-0.5-2.3h0l-1-4.2l-0.9-7.7c0,0-0.1-0.2-0.2-0.5c-1.3-6.1-3.7-9.1-3.9-9.4l0,0
	c-6.7-10.8-20.9-15.6-21-15.6c0.6,0.1,13,2.1,20.6,11.1c3.5-0.8,6.9-2.1,10.3-4C9,143.5,17.5,121.9,5.6,107
	c-11.7-14.6-35.3-8-37.8,5.3c-2.1,10.8,6.1,16.5,6.1,16.5c-2-6.9,7-14.5,7-14.5c-2.5-3.1-9.4-0.8-9.4-0.8c7-14.5,20.1-10,20.1-10
	c20,7.7,15.6,32.7-2.7,39.6c-6,2.2-12.1,1.4-17.5-0.7c-7.9-4-4.1-15.9-4.1-15.9s-3.8,4.6-8.6,4.2c0,0,0,0,0,0
	c0.4,2.7,1.9,5.7,1.9,5.7c-2.7-2.1-4-7.7-4-7.7h0c-1.3-3.1-1.1-8.3-1.6-6.7c-0.7,2.3-2.6,6.1-8.2,6.6c-0.1,0-0.1,0-0.2,0
	c1,2.1,2.4,3.9,2.4,3.9c-2-1-3.7-3.5-4.6-5.2c-1.8-2.5-2.4-7.5-2.4-7.5c-4,7.5-15.6,9.1-20.1,9.4c-6.8-0.8-5,8.2-5,8.2
	c-2.4-1.3-3-3-6.1-3.1c-1.4-0.1-4.3,0.7-5.5,1.7c-3.5,2.1-6.3,5.7-6.6,15.1c-3.4-2.7-6.8-1.1-10.2,1.4c0,0-0.9,4.9-3.5,7.2
	c-4.3-2.3-9-3.2-10.1-3.2l0,0c0,0-3.9-0.5-9.6,0.2c0,0,0.8,4.6-0.7,8.3c8.7,5.8,22.5-0.3,30.1-4.6c8.7-4.8,16.9-11.7,26-15.2
	c4.6-2.1,9.5-1.2,13.3,1.5c5.6,3.9,11.9,14.7,18.6,21.1c0.4,0.4,4.4,5.8,18.2,6.4c0,0,7.3-0.1,12.7,8.5c0.2,0.4,0.5,0.8,0.8,1.3
	c0.2,0.3,0.4,0.7,0.6,1.1c1.3,2.4,2.6,5.5,3.7,9.3c-0.1,1.1-0.3,2.2-0.6,3.2c-0.2,0.6-0.4,1-0.6,1.4c0,0,0,0,0,0
	c-0.1,0.9-1.3-0.4-1.3-0.4c-4.4-1.8-8.1,1.5-8.1,1.5c-3.8,3.9-3,5.4-3,5.4c0.9-0.8,4.4-1.7,4.4-1.7c0.5,0.7,2,0.5,2,0.5
	c-2.9,1.4-4.1,4.6-4.1,4.6c-2.1,5.8,1.4,7.9,1.4,7.9c-1.6-2.5,1.4-5.6,1.4-5.6c2.5,0.3,6.7-6.5,6.7-6.5l-2.2,8.2
	c-0.1,4.1,2.8,6,2.8,6c-1.3-2.1,0.9-4.7,0.9-4.7c1.6-1.5,1.6-2.9,1.6-2.9c2.7-3,0.7-6.6,0.7-6.6c-0.4-5,9-8.1,9-8.1
	c4.2-0.4,7.2-1.8,7.2-1.8c1.9-2.1,4.9-0.1,4.9-0.1C9.5,190.5,5.8,191.3,5.8,191.3z M46.6,237.2l-0.4,0.1c-4.6,3-37.2,21.7-120.1-2.5
	c-101-29.6-162.6,21.3-162.6,21.3l0.8,0.2c9.1-4.7,70.9-34.7,164-7.5C18.3,275.1,46.6,237.2,46.6,237.2z M-95,530.2
	c0,0,161-41.1,180.8-170.5l-0.7,0.9C70.6,454.8-95,506.3-95,506.3h0.1c0,0-165.6-51.5-180-145.7l-0.7-0.9
	C-255.9,489-94.9,530.2-95,530.2 M-95,49.4c61.1,0,161.9,25.7,171.2,42.8c4.5,7,8.2,43.6,9,50.1l0.8,1.1c0,0,1.7-37.2,1.1-48.5
	C85.7,71.7,3.5,30.2-95,30.2h0.2c-98.5,0-180.7,41.5-182,64.9c-0.6,11.3,1.1,48.5,1.1,48.5l0.8-1.1c0.7-6.5,4.4-43.1,9-50.1
	c9.2-17.1,110.1-42.8,171.2-42.8 M623.6,280.7c0,0-40.1,49.8-197.1,18.6c-176.1-35-289.3,6.9-289.3,6.9s113.3-58.4,289.4-23.4
	C583.6,314,623.6,280.7,623.6,280.7z M137.4,514.7h13.4l7.6-16.9h31.6l7.6,16.9h16.5L179,438.3h-5.3L137.4,514.7z M185.4,487.8H163
	L174,463L185.4,487.8z M218.9,514.7h14.5V509c1.8,2.3,6.7,8.2,16.1,8.2c10.8,0,24.6-8.5,24.6-30.8c0-17.2-8.8-29.5-23.6-29.5
	c-10.5,0-14.9,5.7-17.1,8.6v-27.3h-14.5V514.7z M233.4,473.1c0-0.1,3.5-7.3,11.8-7.3c5.5,0,9.1,3.1,11.3,7.6
	c2.2,4.3,2.5,9.3,2.5,12.9c0,18.2-8.5,22-14.1,22c-6.2,0-9.4-3.9-11.5-6.4V473.1z M332.7,497.8c-3.8,4.9-7.8,10-17.9,10
	c-17.1,0-19-15.3-19.5-19.4H338c-0.1-6.1-0.2-16.4-7.9-24.2c-6.7-6.7-15.4-7.5-20.2-7.5c-19.6,0-30,13.2-30,29.5
	c0,17,10.5,30.8,30.4,30.8c19.1,0,23.5-11.4,25.9-17.4L332.7,497.8z M295.6,480c1.4-5.5,3.6-14.1,14-14.1c10.8,0,12,9.1,12.7,14.1
	H295.6z M360.2,459.3h-14.5v55.5h14.5v-43c2.5-1.6,5.7-3.8,11.1-3.8c4,0,6.8,1.3,9.5,2.6V458c-1.3-0.2-2.7-0.3-4.1-0.3
	c-9.9,0-14.3,5.7-16.5,8.6V459.3z M395.8,459.3H387v8.7h8.8v30.7c0,4.9,0.5,9.8,4.6,13.7c4.2,4.2,10,4.6,12.6,4.6
	c7.2,0,11.1-2.5,14.3-4.4l-1.7-3.5c-1.7,0.5-3.2,1.1-5.5,1.1c-1.1,0-5.4,0-8-4.9c-1.1-1.8-1.7-4.1-1.7-8.8v-28.4h12.7v-8.7h-12.7
	v-15.1h-14.4V459.3z M478.4,481.3c0-5.1-0.1-12.5-5.5-18c-3.1-3.3-9.2-6.4-18.6-6.4c-16.5,0-20.8,9.5-23.2,14.8l3.7,1.8
	c2.2-2.9,6.1-8.2,15.3-8.2c4.1,0,10.3,1.4,12.9,7.3c1.2,2.7,1.4,5.6,1.5,8.5c-4.3-1.3-7.8-2.4-13.1-2.4c-12.9,0-23.4,7.2-23.4,19.9
	c0,10,7.2,17.8,18.4,17.8c10.3,0,15.7-5.4,18.1-7.9v6.3h14V481.3z M464.4,503.5c-2.8,1.8-6.3,4-11.4,4c-7.3,0-10-5.1-10-9.9
	c0-7,5.6-10.4,12-10.4c3.7,0,6.5,1,9.3,2.1V503.5z M501.3,515.2h5.3l14.6-32.3l14.6,32.3h5.2l20.9-55.9h-11.6l-9.5,27.6l-1.6,5.2
	c-1.2-2.9-1.3-3.5-2.4-6.1l-11.1-26.8H521L506.6,492c-0.8-2.7-1-3.4-1.7-5.9l-9.1-26.9h-15.1L501.3,515.2z M614.8,497.8
	c-3.8,4.9-7.8,10-17.9,10c-17.1,0-19-15.3-19.5-19.4h42.7c-0.1-6.1-0.2-16.4-7.9-24.2c-6.7-6.7-15.4-7.5-20.2-7.5
	c-19.6,0-30,13.2-30,29.5c0,17,10.5,30.8,30.4,30.8c19.1,0,23.5-11.4,25.9-17.4L614.8,497.8z M577.7,480c1.4-5.5,3.6-14.1,14-14.1
	c10.8,0,12,9.1,12.7,14.1H577.7z M180.7,372.8c6.6,0.3,7.2,0.3,9.6,0.3c23.4,0,32.7-11,32.7-23.7c0-10.2-5.9-15.5-11-17.7
	c-4.5-2-9.7-2.4-17.3-2.4h-25v79.8h11V372.8z M180.7,336h12.1c9.7,0,13.2,2.3,15.6,5.1c1.8,2.1,3.3,5.5,3.3,9.4
	c0,6.9-4.3,13.8-14.7,16.6c-6.7,1.8-13.1,1.6-16.3,1.5V336z M244.1,365.4c1.1-1.6,5-6.9,11.9-6.9c3.8,0,7,1.6,8.8,2.4v-9.3
	c-1.6-0.7-3.1-1.4-6-1.4c-8.2,0-12.8,6.6-14.7,9.3v-7.9h-10.4v57.5h10.4V365.4z M285.9,351.5h-10.3v57.6h10.3V351.5z M274.8,334.7
	c0,3.6,2.8,6,5.9,6c1.9,0,6.1-1.1,6.1-6.3c0-2.9-2.3-5.9-5.9-5.9C277.3,328.5,274.8,331.2,274.8,334.7z M314.9,358.1h11.9v-6.6
	h-11.9V346c0-5,0-7.6,1.2-9.6c1.1-1.9,3.5-3.6,7.1-3.6c2.7,0,4.6,0.8,6.2,1.5c0.5-0.7,1.4-1.7,1.8-2.4c-1.2-1.4-4.3-5-11.3-5
	c-4.7,0-8.1,1.7-10.2,3.2c-5.1,3.8-5.2,9.2-5.2,14.4v7.1h-8.1v6.6h8.1v51h10.3V358.1z M378.3,351.6l-17.5,40.1l-16.3-40.1h-11.4
	l22.4,52.1c-7.6,17.2-12.3,22.5-22.4,25.5v3.1c14.6,0.7,22.2-8,29.1-23.7l25.1-57H378.3z M436.1,365.3c-0.3-2.6-1.1-8-7-12.1
	c-4.2-2.9-9.7-4-14.2-4c-13,0-20.9,7.5-20.9,17.1c0,11.1,9.9,14.2,15.7,16.1c6.2,1.9,9.2,2.8,11.4,4c1.6,0.8,5.8,3,5.8,8.5
	c0,5.8-5.1,9.6-12.9,9.6c-5.8,0-11.3-2-15-5.3c-2.6-2.3-4-4.6-5-6.3c-0.8,0.3-2.1,0.7-3,1c0.6,2.7,1.6,8.6,7.6,13.1
	c4.5,3.3,10.2,4.5,15.8,4.5c6.2,0,12.1-1.2,16.7-5c4-3.2,6.3-7.7,6.3-13.1c0-12.2-11.6-15.6-17.4-17.3c-0.8-0.2-5.7-1.7-6-1.8
	c-5.9-1.9-9.7-4.2-9.7-8.9c0-5.1,4.9-8.8,12.3-8.8c10.7,0,14.7,6.6,16.6,9.7C434,365.9,435.3,365.5,436.1,365.3z M487.6,351.6v7.5
	c-2.4-3.4-6.9-9.8-17.1-9.8c-12.1,0-23.2,10.3-23.2,30.1c0,18.2,9.7,28.1,22.5,28.1c11.2,0,15.9-6.4,17.7-8.8v3.3
	c0,8.1,0,13.5-4.1,18.1c-3.1,3.6-7.8,5.2-12.5,5.2c-5.3,0-10.9-2-14.6-5.4c-2.6-2.4-3.6-4.5-4.5-6.4l-3.3,1.1
	c3.4,16.2,17,18,23.1,18c9.7,0,16.3-3.6,20.1-7.5c6.1-6.2,6.1-14.1,6.1-22.7v-50.6H487.6z M487.6,394.2c-2.6,2.1-7.2,6-13.8,6
	c-11.1,0-15.7-10.7-15.7-21.7c0-13,6-21.9,15.3-21.9c2.8,0,5.8,0.9,8.4,2.6c3.3,2.1,4.7,4.6,5.9,6.6V394.2z M567.7,379.5
	c0-17.6-10.4-30.3-27.2-30.3c-15.4,0-28.4,9.9-28.4,32.1c0,5.3,0.7,16.5,9.3,24c6.3,5.3,13.4,6.2,18.1,6.2c12.6,0,19.2-6.2,22-9.8
	C565.3,396.7,567.7,389.2,567.7,379.5z M556.8,380.2c0,18.4-8,25.1-16.8,25.1c-5.8,0-11.8-3.3-14.6-10.8c-0.9-2.1-2.3-7-2.3-14.5
	c0-12.1,4.4-24.4,17-24.4C551.7,355.5,556.8,367.2,556.8,380.2z M592.1,329.3h-10.3v79.8h10.3V329.3z M213.2,157.7h-10.9v62.2
	c-5.1,5.8-14.1,12.4-24.5,12.4c-7.6,0-13.7-3.5-16.4-7.8c-2-3.2-2.8-7.6-2.8-16.2v-50.6h-10.9v55.5c0,8.4,1.4,14.1,6.1,19
	c4.3,4.5,11.5,7.7,21,7.7c10.6,0,19.4-3.4,27.5-14.1v11.9h10.9V157.7z M275.4,197.1c0-5.3-0.1-10.7-4.9-15.1
	c-1.1-0.9-4.9-4.3-13.2-4.3c-12,0-17.4,7.3-19.7,10.4v-8h-10.2v57.5h10.2v-42.8c4-6.7,9.9-9.6,15.5-9.6c3.4,0,9.6,1.4,11.3,7.6
	c0.8,3.1,0.8,6,0.8,12.2v32.7h10.2V197.1z M298.8,180h-10.3v57.6h10.3V180z M287.7,163.2c0,3.6,2.8,6,5.9,6c1.9,0,6.1-1.1,6.1-6.3
	c0-2.9-2.3-5.9-5.9-5.9C290.2,157,287.7,159.7,287.7,163.2z M351.2,180.1l-16.4,38.4c-0.9,2-1,2.7-1.2,3.8c-0.5-1.9-1-3.4-1.1-3.7
	l-15.7-38.5h-11.2l25.2,58.2h3.5l25.4-58.2H351.2z M416.2,208.9c0.1-4.1,0.5-16.4-8.5-24.6c-4.5-4.1-10.6-6.6-18-6.6
	c-15.5,0-28.7,11.4-28.7,31.4c0,20.6,13.6,30.9,28.8,30.9c19.8,0,24.2-14.4,25.3-18.4c-0.8-0.2-2-0.8-2.8-1.1
	c-2,3.2-7.8,11.8-20,11.8c-1.7,0-9.8,0-15.6-7.5c-4.4-5.9-4.7-12.5-5-15.8H416.2z M371.9,202.7c1.6-13.2,10.7-17.9,17.6-17.9
	c5.6,0,15.8,3.4,16.6,17.9H371.9z M436.1,193.9c1.1-1.6,5-6.9,11.9-6.9c3.8,0,7,1.6,8.8,2.4v-9.3c-1.6-0.7-3.1-1.4-6-1.4
	c-8.3,0-12.8,6.6-14.7,9.3v-7.9h-10.4v57.5h10.4V193.9z M504.8,193.7c-0.3-2.6-1.1-8-7-12.1c-4.2-2.9-9.7-4-14.2-4
	c-13,0-20.9,7.5-20.9,17.1c0,11.1,9.9,14.2,15.7,16.1c6.2,1.9,9.2,2.8,11.4,4c1.6,0.8,5.8,3.1,5.8,8.5c0,5.8-5.1,9.6-12.9,9.6
	c-5.8,0-11.3-2-15-5.3c-2.6-2.3-4-4.6-5-6.3c-0.8,0.3-2.2,0.7-3.1,1c0.6,2.7,1.6,8.6,7.6,13.1c4.5,3.3,10.2,4.5,15.8,4.5
	c6.2,0,12.1-1.2,16.7-5c4-3.2,6.3-7.7,6.3-13.1c0-12.2-11.6-15.6-17.4-17.3c-0.8-0.2-5.6-1.7-6-1.8c-5.9-1.9-9.7-4.2-9.7-8.9
	c0-5.1,4.9-8.8,12.3-8.8c10.7,0,14.7,6.6,16.6,9.7C502.6,194.4,504,194,504.8,193.7z M525.8,180h-10.3v57.6h10.3V180z M514.8,163.2
	c0,3.6,2.8,6,5.9,6c1.9,0,6.1-1.1,6.1-6.3c0-2.9-2.3-5.9-5.9-5.9S514.8,159.7,514.8,163.2z M551.1,186.6h12.1v-6.6h-12.1v-15.3
	h-10.3v15.3h-7.9v6.6h7.9v35.8c0,6.9,0.5,11.5,5.1,14.8c1.7,1.1,5,2.7,9.4,2.7c6.7,0,10.3-3.2,12.4-5c-0.5-0.8-1.1-1.9-1.6-2.7
	c-1.9,0.9-4,1.9-6.9,1.9c-8.1,0-8.1-7.2-8.1-14.6V186.6z M612.6,180.1l-17.5,40.1l-16.3-40.1h-11.4l22.4,52.1
	c-7.6,17.2-12.3,22.5-22.4,25.5v3.1c14.6,0.7,22.2-8,29.1-23.7l25.1-57H612.6z M147,107.3c0.7,4.3,1.7,10.8,7.4,16.4
	c7.7,7.7,19,8,23.2,8c3.5,0,17,0,25.7-9.1c4.2-4.4,7.2-10.9,7.2-17.9c0-6.4-2.5-12-6.5-15.7c-5.3-5.3-13.7-7.3-19.4-8.5
	c-8.8-1.7-15-3-17.4-9c-0.6-1.5-0.7-3-0.7-3.9c0-8.4,8.2-12.6,17.4-12.6c7,0,12.7,2.3,16.3,5.8c2.1,2.1,3,4,4,6.6L209,66
	c-0.3-2.8-0.9-8.4-5.9-13.5c-7-7.3-18.2-7.4-21.6-7.4c-26.4,0-31.4,16.4-31.4,25.4c0,18.7,17.2,22.2,26.4,24c9.9,2,17,4.5,17,13.3
	c0,6.9-5.7,14-17.2,14c-6.9,0-13.7-2.1-18.7-6.9c-3-3-4.5-6.1-6-9.1L147,107.3z M235,129.7h5.7l15.6-34.4l15.6,34.4h5.5l22.3-59.6
	h-12.4l-10.2,29.4l-1.7,5.5c-1.3-3.1-1.4-3.7-2.5-6.5l-11.8-28.5H256L240.7,105c-0.8-2.9-1-3.6-1.8-6.2l-9.7-28.6h-16L235,129.7z
	 M355.1,93.6c0-5.4-0.1-13.3-5.9-19.2c-3.3-3.5-9.8-6.8-19.9-6.8c-17.5,0-22.2,10.2-24.7,15.8l3.9,2c2.3-3.1,6.5-8.8,16.3-8.8
	c4.4,0,11,1.5,13.7,7.7c1.3,2.9,1.5,6,1.6,9c-4.6-1.4-8.3-2.5-14-2.5c-13.7,0-24.9,7.6-24.9,21.2c0,10.6,7.6,18.9,19.6,18.9
	c11,0,16.7-5.8,19.3-8.4v6.7h14.9V93.6z M340.3,117.3c-3,2-6.7,4.3-12.1,4.3c-7.7,0-10.6-5.4-10.6-10.5c0-7.5,6-11.1,12.8-11.1
	c3.9,0,6.9,1,9.9,2.2V117.3z M421.6,89.3c0-5-0.3-10.9-4.7-15.5c-3.1-3.2-8.1-5.4-14.2-5.4c-11.2,0-16.3,6-19.3,9.5v-7.7h-15.4v59.1
	h15.4v-44c2.7-3,6.5-7.3,12.8-7.3c5.5,0,8.4,3.6,9.4,6.9c0.6,2,0.6,4,0.6,6v38.3h15.5V89.3z M430.5,113.8c0.3,2.8,1,7,5,11.1
	c2.5,2.5,8.4,6.8,20,6.8c17,0,25.2-9.6,25.2-19.9c0-5-1.8-9.3-4.6-12.2c-3.3-3.5-7.9-4.7-11.1-5.5c-2.2-0.6-4.4-1-6.6-1.5
	c-5.2-1.4-10.5-2.9-10.5-8.2c0-3.8,3.4-7.9,11.8-7.9c11.7,0,14.5,6,15.6,8.1l4-1.2c-0.5-2.3-1.2-5.8-4.6-9.4
	c-3.7-3.8-9.7-6.5-17.5-6.5c-17.2,0-24.8,10.4-24.8,19.9c0,10.7,8.9,14.1,11.2,14.9c2.7,1,5.3,1.6,8,2.2c7.5,1.6,11.3,3.1,13,6.9
	c0.3,1,0.6,2,0.6,2.9c0,0.3,0,5.8-6.5,7.8c-2,0.7-3.9,0.8-5.8,0.8c-6.5,0-12-2.2-15.2-5.4c-1.6-1.6-2.3-3.2-3-4.7L430.5,113.8z
	 M543.4,111.3c-4,5.2-8.3,10.6-19,10.6c-18.2,0-20.2-16.3-20.8-20.7H549c-0.1-6.5-0.2-17.4-8.4-25.7c-7.2-7.2-16.4-8-21.5-8
	c-20.9,0-32,14.1-32,31.4c0,18.1,11.2,32.8,32.4,32.8c20.3,0,25-12.1,27.6-18.6L543.4,111.3z M503.9,92.2c1.5-5.9,3.8-15,14.9-15
	c11.5,0,12.8,9.7,13.5,15H503.9z M609.2,93.6c0-5.4-0.1-13.3-5.9-19.2c-3.4-3.5-9.8-6.8-19.9-6.8c-17.5,0-22.2,10.2-24.7,15.8l3.9,2
	c2.3-3.1,6.5-8.8,16.3-8.8c4.4,0,11,1.5,13.7,7.7c1.3,2.9,1.5,6,1.6,9c-4.6-1.4-8.3-2.5-14-2.5c-13.7,0-24.9,7.6-24.9,21.2
	c0,10.6,7.6,18.9,19.6,18.9c11,0,16.7-5.8,19.3-8.4v6.7h14.9V93.6z M594.3,117.3c-3,2-6.7,4.3-12.1,4.3c-7.7,0-10.6-5.4-10.6-10.5
	c0-7.5,6-11.1,12.8-11.1c3.9,0,6.9,1,9.9,2.2V117.3z"/>
</svg>
