<?xml version="1.0" encoding="utf-8"?>
<svg viewBox="0 0 16.933 16.933" xmlns="http://www.w3.org/2000/svg">
  <defs>
    <linearGradient id="linearGradient1911" x1="25.085" x2="25.085" y1="24.031" y2="26.412" gradientTransform="translate(-17.897 -21.385)" gradientUnits="userSpaceOnUse">
      <stop stop-color="#fcbc19" stop-opacity=".99608" offset="0"/>
      <stop stop-color="#f4b61f" offset="1"/>
    </linearGradient>
    <linearGradient id="linearGradient4625" x1=".52918" x2="16.404" y1="5.0665" y2="5.0665" gradientUnits="userSpaceOnUse">
      <stop stop-color="#b78815" offset="0"/>
      <stop stop-color="#e2b24b" stop-opacity="0" offset="1"/>
    </linearGradient>
    <linearGradient id="linearGradient1951" x1="100" x2="133.19" y1="17.453" y2="51.606" gradientTransform="matrix(.26458 0 0 .26458 -20.108 -.13539)" gradientUnits="userSpaceOnUse">
      <stop stop-color="#fce798" offset="0"/>
      <stop stop-color="#ffc937" offset="1"/>
    </linearGradient>
    <linearGradient id="linearGradient11110" x1=".52917" x2="16.404" y1="5.3815" y2="5.3815" gradientUnits="userSpaceOnUse">
      <stop stop-color="#fff" offset="0"/>
      <stop stop-color="#fff" stop-opacity="0" offset="1"/>
    </linearGradient>
  </defs>
  <path d="m1.1975 2.2489c-0.3653 0-0.66145 0.32575-0.66145 0.72759v2.9636c-0.0026 0.02629-0.0072 0.052-0.0072 0.07906v7.9373c0 0.40184 0.29614 0.72759 0.66144 0.72759h14.552c0.36531 0 0.66144-0.32575 0.66144-0.72759v-9.393c0-0.40184-0.29614-0.72759-0.66144-0.72759v5.16e-4h-8.1993l-0.89864-1.1095s-0.36607-0.478-1.0583-0.478h-1.3229z" color="#000000" color-rendering="auto" dominant-baseline="auto" fill="url(#linearGradient1911)" image-rendering="auto" shape-rendering="auto" solid-color="#000000" stop-color="#000000" style="font-feature-settings:normal;font-variant-alternates:normal;font-variant-caps:normal;font-variant-east-asian:normal;font-variant-ligatures:normal;font-variant-numeric:normal;font-variant-position:normal;font-variation-settings:normal;inline-size:0;isolation:auto;mix-blend-mode:normal;shape-margin:0;shape-padding:0;text-decoration-color:#000000;text-decoration-line:none;text-decoration-style:solid;text-indent:0;text-orientation:mixed;text-transform:none;white-space:normal" transform="matrix(0.9999999999999999, 0, 0, 0.9999999999999999, 1.7763568394002505e-15, 0)"/>
  <g fill="#5e4aa6" stroke-width=".26458" transform="matrix(0.9999999999999999, 0, 0, 0.9999999999999999, 1.7763568394002505e-15, 0)">
    <circle cx="-330.35" cy="-328.38" r="0"/>
    <circle cx="-312.11" cy="-326.25" r="0"/>
    <circle cx="-306.02" cy="-333.07" r="0"/>
    <circle cx="-308.84" cy="-326.01" r="0"/>
    <g transform="translate(.000295 -.00032978)">
      <circle cx="-330.35" cy="-328.38" r="0"/>
      <circle cx="-312.11" cy="-326.25" r="0"/>
      <circle cx="-306.02" cy="-333.07" r="0"/>
      <circle cx="-308.84" cy="-326.01" r="0"/>
      <circle cx="-328.8" cy="-330.45" r="0"/>
    </g>
    <circle cx="-330.35" cy="-328.38" r="0"/>
    <circle cx="-312.11" cy="-326.25" r="0"/>
    <circle cx="-306.02" cy="-333.07" r="0"/>
    <circle cx="-308.84" cy="-326.01" r="0"/>
    <circle cx="-328.8" cy="-330.45" r="0"/>
    <g transform="translate(2.95e-4,-3.2978e-4)">
      <circle cx="-330.35" cy="-328.38" r="0"/>
      <circle cx="-312.11" cy="-326.25" r="0"/>
      <circle cx="-306.02" cy="-333.07" r="0"/>
      <circle cx="-308.84" cy="-326.01" r="0"/>
      <circle cx="-328.8" cy="-330.45" r="0"/>
    </g>
  </g>
  <path d="m8.3606 3.8364c-0.11312 0.0018-0.30848-0.01542-0.51986 0.09508-0.73647 0.37946-0.77226 0.59366-1.557 0.71415h-4.9608c-0.21986 0-0.41824 0.08855-0.56171 0.23202-0.13937 0.13936-0.22041 0.33333-0.2253 0.54569v0.2775c0.0049-0.21236 0.08593-0.40633 0.2253-0.54569 0.14347-0.14347 0.34185-0.23202 0.56171-0.23202h4.9608c0.78472-0.1205 0.82051-0.33469 1.557-0.71415 0.21138-0.1105 0.40673-0.09328 0.51986-0.09508h7.3828c0.18216 3.65e-4 0.3472 0.08101 0.46663 0.21239 0.1197 0.13167 0.19378 0.31377 0.19378 0.51469v-0.2775c0-0.20092-0.07408-0.38302-0.19378-0.51469-0.11943-0.13137-0.28447-0.21202-0.46663-0.21239h-1.1652zm-7.8247 2.1037c-0.0026 0.02629-0.0067 0.05201-0.0067 0.07906v0.2775c0-0.02705 0.0041-0.05277 0.0067-0.07906z" fill="url(#linearGradient4625)" opacity=".2" stroke-width=".26458" transform="matrix(0.9999999999999999, 0, 0, 0.9999999999999999, 1.7763568394002505e-15, 0)"/>
  <path d="m0.52916 13.674v0.28215c0 0.20092 0.07357 0.3825 0.19327 0.51417s0.28553 0.21342 0.46818 0.21342h14.552c0.18265 0 0.34796-0.08175 0.46766-0.21342s0.19378-0.31325 0.19378-0.51417v-0.28215c0 0.20092-0.07409 0.3825-0.19378 0.51417-0.1197 0.13167-0.28501 0.21342-0.46766 0.21342h-14.552c-0.18265 0-0.34848-0.08176-0.46818-0.21342s-0.19327-0.31325-0.19327-0.51417z" fill="#e4a729" fill-opacity=".99608" stroke-width=".26458" transform="matrix(0.9999999999999999, 0, 0, 0.9999999999999999, 1.7763568394002505e-15, 0)"/>
  <path d="m7.542 4.0979s-0.35919 0.47868-1.1575 0.79218c-0.03271 0.00587-0.06509 0.011575-0.10077 0.017052h-4.9608c-0.21986 0-0.41824 0.088552-0.56171 0.23202-0.13937 0.13936-0.22042 0.33333-0.2253 0.54569v0.51675c-0.0026 0.026291-0.0067 0.052014-0.0067 0.079064v7.3953c0 0.20092 0.07357 0.3825 0.19327 0.51417 0.1197 0.13167 0.28553 0.21342 0.46818 0.21342h14.552c0.18265 0 0.34796-0.08175 0.46766-0.21342 0.1197-0.13167 0.19378-0.31325 0.19378-0.51417v-8.851c0-0.20092-0.07408-0.38302-0.19378-0.51469-0.11945-0.13137-0.28449-0.21202-0.46665-0.21239h-7.4821z" fill="url(#linearGradient1951)" transform="matrix(0.9999999999999999, 0, 0, 0.9999999999999999, 1.7763568394002505e-15, 0)"/>
  <path d="m7.542 4.0979s-0.35919 0.47868-1.1575 0.79218c-0.03271 0.00587-0.06509 0.011575-0.10077 0.017052h-4.9608c-0.21986 0-0.41824 0.088552-0.56171 0.23202-0.13937 0.13936-0.22041 0.33333-0.2253 0.54569v0.38446c0.0049-0.21236 0.08593-0.40633 0.2253-0.54569 0.14347-0.14347 0.34185-0.23202 0.56171-0.23202h4.9608c0.03568-0.00548 0.06806-0.011184 0.10077-0.017052 0.75911-0.26303 1.2883-0.79218 1.2883-0.79218h8.0707c0.18216 3.704e-4 0.34718 0.081016 0.46663 0.21239 0.1197 0.13167 0.19378 0.31377 0.19378 0.51469v-0.38446c0-0.20092-0.07408-0.38302-0.19378-0.51469-0.11945-0.13137-0.28447-0.21202-0.46663-0.21239h-7.4821zm-7.0062 2.1037c-0.0026 0.026291-0.0067 0.052013-0.0067 0.079063v0.38447c0-0.02705 0.0041-0.052773 0.0067-0.079063z" fill="url(#linearGradient11110)" opacity=".3" transform="matrix(0.9999999999999999, 0, 0, 0.9999999999999999, 1.7763568394002505e-15, 0)"/>
  <path class="st0" d="M 4.313 8.261 C 4.313 8.261 4.313 8.261 4.313 8.261 C 4.313 8.261 4.313 8.261 4.313 8.261 Z" style="fill: rgb(32, 51, 102);" transform="matrix(0.9999999999999999, 0, 0, 0.9999999999999999, 1.7763568394002505e-15, 0)"/>
  <path class="st0" d="M 4.313 8.261 C 4.313 8.263 4.313 8.263 4.313 8.261 Z" style="fill: rgb(32, 51, 102);" transform="matrix(0.9999999999999999, 0, 0, 0.9999999999999999, 1.7763568394002505e-15, 0)"/>
  <path class="st0" d="M 4.314 8.261 C 4.314 8.261 4.314 8.26 4.315 8.26 C 4.314 8.26 4.314 8.26 4.314 8.261 Z" style="fill: rgb(32, 51, 102);" transform="matrix(0.9999999999999999, 0, 0, 0.9999999999999999, 1.7763568394002505e-15, 0)"/>
  <path d="M 8.414 12.782 L 8.423 12.782 C 8.425 12.782 8.428 12.782 8.43 12.782 C 8.524 12.782 8.606 12.833 8.651 12.909 L 8.652 12.91 C 8.703 13.016 8.732 13.14 8.732 13.27 C 8.732 13.401 8.702 13.525 8.65 13.635 L 8.652 13.63 C 8.605 13.709 8.52 13.761 8.424 13.761 C 8.327 13.761 8.243 13.709 8.196 13.631 L 8.195 13.63 C 8.144 13.525 8.114 13.401 8.114 13.271 C 8.114 13.14 8.144 13.016 8.197 12.906 L 8.195 12.911 C 8.239 12.834 8.32 12.783 8.413 12.782 L 8.414 12.782 Z M 10.972 12.534 L 10.972 14.004 L 11.856 14.004 L 11.856 13.718 L 11.292 13.718 L 11.292 13.382 L 11.711 13.382 L 11.711 13.125 L 11.292 13.125 L 11.292 12.821 L 11.837 12.821 L 11.837 12.534 L 10.972 12.534 Z M 9.336 12.534 L 9.18 14.004 L 9.485 14.004 L 9.578 13.054 L 9.865 14.009 L 10.068 14.009 L 10.355 13.085 L 10.449 14.004 L 10.752 14.004 L 10.596 12.534 L 10.251 12.534 L 9.966 13.452 L 9.682 12.534 L 9.336 12.534 Z M 6.489 12.534 L 6.489 14.004 L 6.762 14.004 L 6.762 13.122 L 7.403 14.004 L 7.605 14.004 L 7.605 12.534 L 7.332 12.534 L 7.332 13.418 L 6.692 12.534 L 6.489 12.534 Z M 8.4 12.508 C 8.398 12.508 8.395 12.508 8.392 12.508 C 8.216 12.508 8.06 12.586 7.954 12.709 L 7.954 12.71 C 7.846 12.851 7.782 13.029 7.782 13.223 C 7.782 13.239 7.782 13.256 7.783 13.273 L 7.783 13.271 C 7.782 13.286 7.782 13.303 7.782 13.32 C 7.782 13.513 7.846 13.69 7.955 13.832 L 7.954 13.831 C 8.06 13.955 8.219 14.034 8.395 14.034 C 8.405 14.034 8.415 14.034 8.425 14.033 L 8.424 14.033 C 8.432 14.034 8.442 14.034 8.453 14.034 C 8.629 14.034 8.787 13.956 8.893 13.832 L 8.894 13.831 C 9 13.691 9.065 13.514 9.065 13.321 C 9.065 13.304 9.064 13.287 9.063 13.269 L 9.063 13.271 C 9.064 13.257 9.065 13.238 9.065 13.221 C 9.065 13.028 9 12.851 8.892 12.709 L 8.894 12.711 C 8.786 12.586 8.629 12.507 8.452 12.507 C 8.442 12.507 8.432 12.507 8.422 12.508 L 8.424 12.508 L 8.4 12.508 Z M 5.772 12.508 C 5.762 12.507 5.75 12.507 5.738 12.507 C 5.552 12.507 5.383 12.586 5.265 12.712 C 5.149 12.85 5.078 13.03 5.078 13.226 C 5.078 13.242 5.079 13.258 5.079 13.273 L 5.079 13.271 C 5.079 13.284 5.078 13.299 5.078 13.314 C 5.078 13.509 5.147 13.689 5.263 13.829 L 5.261 13.828 C 5.377 13.954 5.542 14.033 5.725 14.033 C 5.735 14.033 5.746 14.033 5.755 14.033 L 5.754 14.033 C 5.772 14.034 5.793 14.035 5.815 14.035 C 5.985 14.035 6.142 13.983 6.273 13.894 L 6.27 13.895 L 6.27 13.189 L 5.77 13.189 L 5.77 13.442 L 6.028 13.442 L 6.028 13.697 C 5.971 13.736 5.9 13.76 5.823 13.76 C 5.813 13.76 5.804 13.759 5.794 13.759 L 5.796 13.759 C 5.791 13.759 5.786 13.759 5.78 13.759 C 5.672 13.759 5.576 13.709 5.512 13.631 L 5.511 13.631 C 5.448 13.541 5.41 13.428 5.41 13.308 C 5.41 13.295 5.41 13.282 5.411 13.27 L 5.411 13.271 C 5.411 13.261 5.41 13.248 5.41 13.235 C 5.41 13.113 5.449 13 5.516 12.908 L 5.515 12.91 C 5.582 12.831 5.68 12.781 5.79 12.781 C 5.798 12.781 5.805 12.782 5.812 12.782 L 5.81 12.782 C 5.931 12.782 6.044 12.816 6.141 12.874 L 6.138 12.872 L 6.224 12.617 C 6.162 12.583 6.091 12.555 6.015 12.537 L 6.009 12.535 C 5.939 12.517 5.857 12.507 5.773 12.507 C 5.773 12.507 5.772 12.507 5.772 12.507 L 5.772 12.508 Z M 8.942 6.9 C 7.773 6.91 6.284 7.503 6.026 8.663 C 5.738 9.952 7.21 11.739 8.747 11.739 C 9.628 11.672 10.345 11.038 10.536 10.205 L 10.539 10.191 C 10.663 9.531 9.073 9.796 9.129 10.233 C 9.197 10.756 8.746 11.014 8.303 10.676 C 6.893 9.603 10.637 9.067 10.39 7.601 C 10.31 7.125 9.692 6.893 8.943 6.899 L 8.942 6.9 Z M 5.884 6.196 C 5.81 6.196 5.743 6.221 5.689 6.262 L 5.69 6.262 C 5.139 6.642 5.875 7.563 6.2 7.42 C 6.483 7.294 6.303 6.21 5.883 6.196 L 5.884 6.196 Z M 6.981 5.276 C 6.927 5.279 6.876 5.291 6.829 5.312 L 6.832 5.311 C 6.144 5.596 6.727 6.768 7.113 6.689 C 7.469 6.616 7.515 5.265 6.981 5.277 L 6.981 5.276 Z M 8.464 4.688 C 8.464 4.688 8.463 4.688 8.462 4.688 C 8.436 4.688 8.41 4.689 8.385 4.693 L 8.388 4.692 C 7.531 4.803 7.833 6.293 8.29 6.321 C 8.731 6.348 9.214 4.691 8.464 4.688 Z M 10.817 4.422 C 9.295 4.422 9.009 6.59 9.866 6.59 C 10.722 6.59 12.339 4.422 10.817 4.422 Z" style="" transform="matrix(0.9999999999999999, 0, 0, 0.9999999999999999, 1.7763568394002505e-15, 0)"/>
</svg>