<?xml version="1.0" encoding="utf-8"?>
<svg viewBox="0 0 16.933 16.933" xmlns="http://www.w3.org/2000/svg">
  <defs>
    <linearGradient id="linearGradient1911" x1="25.085" x2="25.085" y1="24.031" y2="26.412" gradientTransform="translate(-17.897 -21.385)" gradientUnits="userSpaceOnUse">
      <stop stop-color="#fcbc19" stop-opacity=".99608" offset="0"/>
      <stop stop-color="#f4b61f" offset="1"/>
    </linearGradient>
    <linearGradient id="linearGradient4625" x1=".52918" x2="16.404" y1="5.0665" y2="5.0665" gradientUnits="userSpaceOnUse">
      <stop stop-color="#b78815" offset="0"/>
      <stop stop-color="#e2b24b" stop-opacity="0" offset="1"/>
    </linearGradient>
    <linearGradient id="linearGradient1951" x1="100" x2="133.19" y1="17.453" y2="51.606" gradientTransform="matrix(.26458 0 0 .26458 -20.108 -.13539)" gradientUnits="userSpaceOnUse">
      <stop stop-color="#fce798" offset="0"/>
      <stop stop-color="#ffc937" offset="1"/>
    </linearGradient>
    <linearGradient id="linearGradient11110" x1=".52917" x2="16.404" y1="5.3815" y2="5.3815" gradientUnits="userSpaceOnUse">
      <stop stop-color="#fff" offset="0"/>
      <stop stop-color="#fff" stop-opacity="0" offset="1"/>
    </linearGradient>
  </defs>
  <path d="m1.1975 2.2489c-0.3653 0-0.66145 0.32575-0.66145 0.72759v2.9636c-0.0026 0.02629-0.0072 0.052-0.0072 0.07906v7.9373c0 0.40184 0.29614 0.72759 0.66144 0.72759h14.552c0.36531 0 0.66144-0.32575 0.66144-0.72759v-9.393c0-0.40184-0.29614-0.72759-0.66144-0.72759v5.16e-4h-8.1993l-0.89864-1.1095s-0.36607-0.478-1.0583-0.478h-1.3229z" color="#000000" color-rendering="auto" dominant-baseline="auto" fill="url(#linearGradient1911)" image-rendering="auto" shape-rendering="auto" solid-color="#000000" stop-color="#000000" style="font-feature-settings:normal;font-variant-alternates:normal;font-variant-caps:normal;font-variant-east-asian:normal;font-variant-ligatures:normal;font-variant-numeric:normal;font-variant-position:normal;font-variation-settings:normal;inline-size:0;isolation:auto;mix-blend-mode:normal;shape-margin:0;shape-padding:0;text-decoration-color:#000000;text-decoration-line:none;text-decoration-style:solid;text-indent:0;text-orientation:mixed;text-transform:none;white-space:normal" transform="matrix(0.9999999999999999, 0, 0, 0.9999999999999999, 1.7763568394002505e-15, 0)"/>
  <g fill="#5e4aa6" stroke-width=".26458" transform="matrix(0.9999999999999999, 0, 0, 0.9999999999999999, 1.7763568394002505e-15, 0)">
    <circle cx="-330.35" cy="-328.38" r="0"/>
    <circle cx="-312.11" cy="-326.25" r="0"/>
    <circle cx="-306.02" cy="-333.07" r="0"/>
    <circle cx="-308.84" cy="-326.01" r="0"/>
    <g transform="translate(.000295 -.00032978)">
      <circle cx="-330.35" cy="-328.38" r="0"/>
      <circle cx="-312.11" cy="-326.25" r="0"/>
      <circle cx="-306.02" cy="-333.07" r="0"/>
      <circle cx="-308.84" cy="-326.01" r="0"/>
      <circle cx="-328.8" cy="-330.45" r="0"/>
    </g>
    <circle cx="-330.35" cy="-328.38" r="0"/>
    <circle cx="-312.11" cy="-326.25" r="0"/>
    <circle cx="-306.02" cy="-333.07" r="0"/>
    <circle cx="-308.84" cy="-326.01" r="0"/>
    <circle cx="-328.8" cy="-330.45" r="0"/>
    <g transform="translate(2.95e-4,-3.2978e-4)">
      <circle cx="-330.35" cy="-328.38" r="0"/>
      <circle cx="-312.11" cy="-326.25" r="0"/>
      <circle cx="-306.02" cy="-333.07" r="0"/>
      <circle cx="-308.84" cy="-326.01" r="0"/>
      <circle cx="-328.8" cy="-330.45" r="0"/>
    </g>
  </g>
  <path d="m8.3606 3.8364c-0.11312 0.0018-0.30848-0.01542-0.51986 0.09508-0.73647 0.37946-0.77226 0.59366-1.557 0.71415h-4.9608c-0.21986 0-0.41824 0.08855-0.56171 0.23202-0.13937 0.13936-0.22041 0.33333-0.2253 0.54569v0.2775c0.0049-0.21236 0.08593-0.40633 0.2253-0.54569 0.14347-0.14347 0.34185-0.23202 0.56171-0.23202h4.9608c0.78472-0.1205 0.82051-0.33469 1.557-0.71415 0.21138-0.1105 0.40673-0.09328 0.51986-0.09508h7.3828c0.18216 3.65e-4 0.3472 0.08101 0.46663 0.21239 0.1197 0.13167 0.19378 0.31377 0.19378 0.51469v-0.2775c0-0.20092-0.07408-0.38302-0.19378-0.51469-0.11943-0.13137-0.28447-0.21202-0.46663-0.21239h-1.1652zm-7.8247 2.1037c-0.0026 0.02629-0.0067 0.05201-0.0067 0.07906v0.2775c0-0.02705 0.0041-0.05277 0.0067-0.07906z" fill="url(#linearGradient4625)" opacity=".2" stroke-width=".26458" transform="matrix(0.9999999999999999, 0, 0, 0.9999999999999999, 1.7763568394002505e-15, 0)"/>
  <path d="m0.52916 13.674v0.28215c0 0.20092 0.07357 0.3825 0.19327 0.51417s0.28553 0.21342 0.46818 0.21342h14.552c0.18265 0 0.34796-0.08175 0.46766-0.21342s0.19378-0.31325 0.19378-0.51417v-0.28215c0 0.20092-0.07409 0.3825-0.19378 0.51417-0.1197 0.13167-0.28501 0.21342-0.46766 0.21342h-14.552c-0.18265 0-0.34848-0.08176-0.46818-0.21342s-0.19327-0.31325-0.19327-0.51417z" fill="#e4a729" fill-opacity=".99608" stroke-width=".26458" transform="matrix(0.9999999999999999, 0, 0, 0.9999999999999999, 1.7763568394002505e-15, 0)"/>
  <path d="m7.542 4.0979s-0.35919 0.47868-1.1575 0.79218c-0.03271 0.00587-0.06509 0.011575-0.10077 0.017052h-4.9608c-0.21986 0-0.41824 0.088552-0.56171 0.23202-0.13937 0.13936-0.22042 0.33333-0.2253 0.54569v0.51675c-0.0026 0.026291-0.0067 0.052014-0.0067 0.079064v7.3953c0 0.20092 0.07357 0.3825 0.19327 0.51417 0.1197 0.13167 0.28553 0.21342 0.46818 0.21342h14.552c0.18265 0 0.34796-0.08175 0.46766-0.21342 0.1197-0.13167 0.19378-0.31325 0.19378-0.51417v-8.851c0-0.20092-0.07408-0.38302-0.19378-0.51469-0.11945-0.13137-0.28449-0.21202-0.46665-0.21239h-7.4821z" fill="url(#linearGradient1951)" transform="matrix(0.9999999999999999, 0, 0, 0.9999999999999999, 1.7763568394002505e-15, 0)"/>
  <path d="m7.542 4.0979s-0.35919 0.47868-1.1575 0.79218c-0.03271 0.00587-0.06509 0.011575-0.10077 0.017052h-4.9608c-0.21986 0-0.41824 0.088552-0.56171 0.23202-0.13937 0.13936-0.22041 0.33333-0.2253 0.54569v0.38446c0.0049-0.21236 0.08593-0.40633 0.2253-0.54569 0.14347-0.14347 0.34185-0.23202 0.56171-0.23202h4.9608c0.03568-0.00548 0.06806-0.011184 0.10077-0.017052 0.75911-0.26303 1.2883-0.79218 1.2883-0.79218h8.0707c0.18216 3.704e-4 0.34718 0.081016 0.46663 0.21239 0.1197 0.13167 0.19378 0.31377 0.19378 0.51469v-0.38446c0-0.20092-0.07408-0.38302-0.19378-0.51469-0.11945-0.13137-0.28447-0.21202-0.46663-0.21239h-7.4821zm-7.0062 2.1037c-0.0026 0.026291-0.0067 0.052013-0.0067 0.079063v0.38447c0-0.02705 0.0041-0.052773 0.0067-0.079063z" fill="url(#linearGradient11110)" opacity=".3" transform="matrix(0.9999999999999999, 0, 0, 0.9999999999999999, 1.7763568394002505e-15, 0)"/>
  <path class="st0" d="M 4.313 8.261 C 4.313 8.261 4.313 8.261 4.313 8.261 C 4.313 8.261 4.313 8.261 4.313 8.261 Z" style="fill: rgb(32, 51, 102);" transform="matrix(0.9999999999999999, 0, 0, 0.9999999999999999, 1.7763568394002505e-15, 0)"/>
  <path class="st0" d="M 4.313 8.261 C 4.313 8.263 4.313 8.263 4.313 8.261 Z" style="fill: rgb(32, 51, 102);" transform="matrix(0.9999999999999999, 0, 0, 0.9999999999999999, 1.7763568394002505e-15, 0)"/>
  <path class="st0" d="M 4.314 8.261 C 4.314 8.261 4.314 8.26 4.315 8.26 C 4.314 8.26 4.314 8.26 4.314 8.261 Z" style="fill: rgb(32, 51, 102);" transform="matrix(0.9999999999999999, 0, 0, 0.9999999999999999, 1.7763568394002505e-15, 0)"/>
  <path d="M 8.327 6.963 C 8.327 6.994 8.296 6.994 8.296 6.994 L 8.265 6.994 C 8.235 6.994 8.235 6.963 8.204 6.932 C 8.204 6.932 8.174 6.901 8.174 6.871 C 8.174 6.84 8.174 6.84 8.204 6.84 L 8.265 6.871 C 8.296 6.901 8.327 6.932 8.327 6.963 M 7.775 6.657 C 7.775 6.504 7.714 6.412 7.623 6.412 C 7.623 6.412 7.623 6.442 7.592 6.442 L 7.592 6.504 L 7.684 6.504 C 7.684 6.565 7.714 6.596 7.714 6.657 L 7.775 6.657 M 8.847 6.504 C 8.909 6.504 8.939 6.565 8.97 6.657 L 9.031 6.657 C 9.001 6.626 9.001 6.596 9.001 6.565 C 9.001 6.534 9.001 6.504 8.97 6.473 C 8.939 6.442 8.909 6.412 8.878 6.412 C 8.878 6.412 8.847 6.442 8.817 6.442 C 8.817 6.473 8.847 6.473 8.847 6.504 M 7.928 6.994 C 7.898 6.994 7.898 6.994 7.898 6.963 C 7.898 6.932 7.898 6.901 7.928 6.871 C 7.99 6.871 8.021 6.84 8.021 6.84 C 8.051 6.84 8.051 6.871 8.051 6.871 C 8.051 6.901 8.021 6.932 7.96 6.994 L 7.928 6.994 M 7.592 6.963 C 7.469 6.901 7.438 6.81 7.438 6.657 C 7.438 6.565 7.438 6.504 7.5 6.442 C 7.531 6.381 7.592 6.35 7.653 6.35 C 7.714 6.35 7.745 6.381 7.806 6.442 C 7.837 6.534 7.867 6.626 7.867 6.718 L 7.867 6.779 L 7.898 6.779 L 7.898 6.749 C 7.928 6.749 7.928 6.687 7.928 6.565 C 7.928 6.473 7.928 6.381 7.867 6.289 C 7.806 6.197 7.745 6.136 7.623 6.136 C 7.531 6.136 7.438 6.197 7.408 6.289 C 7.347 6.412 7.335 6.504 7.335 6.657 C 7.335 6.779 7.377 6.901 7.5 7.024 C 7.531 6.994 7.561 6.994 7.592 6.963 M 11.42 11.281 C 11.45 11.281 11.45 11.268 11.45 11.241 C 11.45 11.173 11.42 11.094 11.328 11.005 C 11.236 10.913 11.083 10.855 10.899 10.83 C 10.869 10.828 10.838 10.828 10.838 10.828 C 10.807 10.822 10.807 10.822 10.776 10.822 C 10.746 10.818 10.685 10.812 10.654 10.806 C 10.746 10.521 10.776 10.27 10.776 10.05 C 10.776 9.743 10.715 9.529 10.593 9.345 C 10.47 9.162 10.348 9.07 10.195 9.039 C 10.164 9.07 10.164 9.07 10.164 9.101 C 10.317 9.162 10.47 9.284 10.562 9.468 C 10.654 9.682 10.685 9.866 10.685 10.08 C 10.685 10.252 10.654 10.506 10.532 10.83 C 10.409 10.88 10.286 10.993 10.195 11.171 C 10.195 11.198 10.195 11.213 10.225 11.213 C 10.225 11.213 10.256 11.186 10.286 11.134 C 10.348 11.082 10.379 11.03 10.44 10.978 C 10.532 10.925 10.593 10.898 10.685 10.898 C 10.838 10.898 10.991 10.919 11.083 10.962 C 11.205 11.002 11.266 11.045 11.297 11.094 C 11.328 11.14 11.359 11.183 11.389 11.223 C 11.389 11.262 11.42 11.281 11.42 11.281 M 8.602 6.84 C 8.572 6.81 8.572 6.749 8.572 6.687 C 8.572 6.565 8.572 6.504 8.633 6.412 C 8.694 6.35 8.755 6.32 8.817 6.32 C 8.909 6.32 8.97 6.381 9.031 6.442 C 9.062 6.534 9.092 6.596 9.092 6.687 C 9.092 6.84 9.031 6.932 8.909 6.963 C 8.909 6.963 8.939 6.994 8.97 6.994 C 9.031 6.994 9.062 7.024 9.123 7.055 C 9.154 6.871 9.184 6.749 9.184 6.596 C 9.184 6.412 9.154 6.289 9.092 6.197 C 9.001 6.106 8.909 6.075 8.786 6.075 C 8.694 6.075 8.602 6.106 8.511 6.167 C 8.45 6.259 8.418 6.32 8.418 6.412 C 8.418 6.565 8.45 6.687 8.511 6.81 C 8.541 6.81 8.572 6.84 8.602 6.84 M 8.97 7.33 C 8.572 7.606 8.265 7.728 8.021 7.728 C 7.806 7.728 7.592 7.637 7.408 7.484 C 7.438 7.545 7.469 7.606 7.5 7.637 L 7.684 7.82 C 7.806 7.943 7.96 8.004 8.113 8.004 C 8.327 8.004 8.572 7.881 8.878 7.667 L 9.154 7.484 C 9.215 7.422 9.276 7.361 9.276 7.269 C 9.276 7.239 9.276 7.208 9.245 7.208 C 9.215 7.147 9.062 7.055 8.755 6.963 C 8.48 6.84 8.265 6.779 8.143 6.779 C 8.051 6.779 7.898 6.84 7.684 6.963 C 7.5 7.086 7.377 7.208 7.377 7.33 C 7.377 7.33 7.408 7.361 7.438 7.422 C 7.623 7.576 7.806 7.667 7.99 7.667 C 8.235 7.667 8.541 7.545 8.939 7.239 L 8.939 7.3 C 8.97 7.3 8.97 7.33 8.97 7.33 M 9.674 13.516 C 9.796 13.747 10.011 13.862 10.256 13.862 C 10.317 13.862 10.379 13.853 10.44 13.835 C 10.501 13.823 10.562 13.801 10.593 13.777 C 10.623 13.755 10.654 13.734 10.685 13.709 C 10.746 13.688 10.746 13.672 10.776 13.657 L 11.297 13.207 C 11.42 13.109 11.542 13.024 11.695 12.95 C 11.818 12.876 11.94 12.827 12.002 12.799 C 12.093 12.775 12.154 12.738 12.216 12.689 C 12.246 12.643 12.277 12.585 12.277 12.512 C 12.277 12.423 12.216 12.355 12.154 12.307 C 12.093 12.258 12.032 12.224 11.971 12.202 C 11.91 12.181 11.849 12.132 11.756 12.05 C 11.695 11.97 11.634 11.859 11.603 11.716 L 11.573 11.538 C 11.542 11.455 11.542 11.394 11.512 11.36 C 11.512 11.351 11.512 11.348 11.481 11.348 C 11.45 11.348 11.389 11.376 11.359 11.428 C 11.297 11.48 11.236 11.538 11.175 11.599 C 11.144 11.661 11.052 11.716 10.991 11.768 C 10.899 11.82 10.807 11.847 10.746 11.847 C 10.501 11.847 10.379 11.78 10.286 11.648 C 10.225 11.55 10.195 11.437 10.164 11.308 C 10.103 11.256 10.072 11.229 10.011 11.229 C 9.858 11.229 9.796 11.388 9.796 11.709 L 9.796 12.662 C 9.796 12.689 9.766 12.751 9.766 12.845 C 9.735 12.94 9.735 13.049 9.735 13.17 L 9.674 13.51 L 9.674 13.516 M 5.234 13.353 C 5.519 13.395 5.846 13.484 6.217 13.62 C 6.587 13.755 6.814 13.825 6.897 13.825 C 7.111 13.825 7.289 13.73 7.436 13.547 C 7.466 13.488 7.466 13.418 7.466 13.338 C 7.466 13.048 7.292 12.682 6.943 12.238 L 6.734 11.959 C 6.691 11.901 6.639 11.812 6.572 11.693 C 6.508 11.574 6.45 11.481 6.403 11.418 C 6.364 11.347 6.3 11.277 6.217 11.206 C 6.137 11.136 6.046 11.09 5.945 11.065 C 5.816 11.09 5.727 11.132 5.684 11.191 C 5.641 11.249 5.617 11.313 5.61 11.38 C 5.602 11.445 5.583 11.488 5.552 11.509 C 5.522 11.527 5.47 11.543 5.399 11.558 C 5.384 11.558 5.356 11.558 5.316 11.561 L 5.234 11.561 C 5.072 11.561 4.961 11.58 4.903 11.61 C 4.826 11.699 4.787 11.8 4.787 11.908 C 4.787 11.956 4.799 12.039 4.824 12.156 C 4.848 12.269 4.86 12.36 4.86 12.425 C 4.86 12.55 4.824 12.676 4.747 12.802 C 4.67 12.933 4.63 13.031 4.63 13.101 C 4.661 13.22 4.863 13.304 5.234 13.352 M 6.254 10.569 C 6.254 10.357 6.309 10.125 6.422 9.849 C 6.532 9.574 6.643 9.39 6.75 9.267 C 6.744 9.237 6.728 9.237 6.704 9.237 L 6.673 9.206 C 6.584 9.298 6.477 9.512 6.349 9.818 C 6.22 10.094 6.153 10.348 6.153 10.535 C 6.153 10.673 6.186 10.792 6.248 10.896 C 6.315 10.998 6.477 11.144 6.734 11.331 L 7.059 11.543 C 7.405 11.843 7.589 12.051 7.589 12.174 C 7.589 12.238 7.558 12.302 7.466 12.372 C 7.405 12.446 7.322 12.483 7.252 12.483 C 7.246 12.483 7.243 12.489 7.243 12.504 C 7.243 12.507 7.274 12.568 7.337 12.688 C 7.466 12.862 7.742 12.948 8.109 12.948 C 8.783 12.948 9.304 12.673 9.702 12.121 C 9.702 11.968 9.702 11.873 9.671 11.833 L 9.671 11.72 C 9.671 11.521 9.702 11.371 9.763 11.273 C 9.824 11.175 9.886 11.129 9.977 11.129 C 10.038 11.129 10.1 11.15 10.161 11.196 C 10.192 10.961 10.192 10.756 10.192 10.572 C 10.192 10.293 10.192 10.064 10.13 9.849 C 10.1 9.665 10.038 9.512 9.977 9.39 L 9.794 9.114 C 9.733 9.022 9.702 8.931 9.64 8.838 C 9.61 8.716 9.579 8.624 9.579 8.471 C 9.487 8.318 9.426 8.165 9.334 8.012 C 9.273 7.858 9.212 7.706 9.15 7.583 L 8.875 7.797 C 8.569 8.012 8.324 8.104 8.109 8.104 C 7.926 8.104 7.773 8.073 7.68 7.951 L 7.497 7.797 C 7.497 7.889 7.466 8.012 7.405 8.134 L 7.212 8.502 C 7.127 8.716 7.08 8.838 7.071 8.931 C 7.059 8.992 7.05 9.053 7.044 9.053 L 6.814 9.512 C 6.566 9.972 6.441 10.397 6.441 10.75 C 6.441 10.82 6.447 10.893 6.459 10.967 C 6.321 10.872 6.254 10.74 6.254 10.569 M 8.446 13.466 C 8.048 13.466 7.742 13.519 7.528 13.626 L 7.528 13.617 C 7.375 13.801 7.203 13.896 6.964 13.896 C 6.814 13.896 6.578 13.838 6.26 13.721 C 5.938 13.611 5.653 13.527 5.405 13.471 C 5.381 13.464 5.326 13.453 5.237 13.439 C 5.151 13.425 5.072 13.411 5.001 13.398 C 4.937 13.383 4.863 13.363 4.784 13.335 C 4.707 13.31 4.646 13.279 4.6 13.241 C 4.558 13.202 4.537 13.158 4.537 13.11 C 4.537 13.061 4.547 13.009 4.568 12.953 C 4.588 12.919 4.609 12.885 4.63 12.855 C 4.652 12.821 4.67 12.79 4.683 12.76 C 4.701 12.732 4.713 12.705 4.725 12.674 C 4.738 12.647 4.75 12.619 4.756 12.585 C 4.762 12.555 4.769 12.524 4.769 12.494 C 4.769 12.463 4.756 12.371 4.731 12.208 C 4.707 12.05 4.695 11.948 4.695 11.905 C 4.695 11.771 4.725 11.663 4.793 11.587 C 4.86 11.51 4.925 11.471 4.992 11.471 L 5.344 11.471 C 5.372 11.471 5.415 11.455 5.479 11.419 C 5.501 11.37 5.519 11.33 5.531 11.293 C 5.546 11.256 5.552 11.229 5.558 11.217 C 5.564 11.198 5.571 11.18 5.577 11.164 C 5.589 11.143 5.604 11.118 5.626 11.094 C 5.602 11.063 5.589 11.024 5.589 10.975 C 5.589 10.941 5.589 10.91 5.595 10.892 C 5.595 10.782 5.647 10.626 5.758 10.42 L 5.865 10.227 C 5.953 10.062 6.021 9.94 6.07 9.817 C 6.122 9.694 6.177 9.511 6.238 9.266 C 6.287 9.051 6.403 8.837 6.587 8.623 L 6.817 8.347 C 6.976 8.163 7.08 8.01 7.139 7.888 C 7.197 7.765 7.228 7.612 7.228 7.49 C 7.228 7.429 7.212 7.245 7.178 6.939 C 7.148 6.632 7.133 6.326 7.133 6.05 C 7.133 5.836 7.151 5.683 7.19 5.53 C 7.23 5.376 7.301 5.224 7.405 5.101 C 7.497 4.979 7.619 4.856 7.803 4.795 C 7.987 4.734 8.201 4.703 8.446 4.703 C 8.538 4.703 8.63 4.703 8.722 4.734 C 8.814 4.734 8.936 4.764 9.089 4.825 C 9.212 4.887 9.334 4.948 9.426 5.04 C 9.548 5.132 9.64 5.285 9.733 5.438 C 9.794 5.622 9.855 5.805 9.886 6.05 C 9.916 6.203 9.916 6.356 9.947 6.571 C 9.947 6.755 9.977 6.877 9.977 6.969 C 10.008 7.061 10.008 7.183 10.038 7.337 C 10.069 7.459 10.1 7.582 10.161 7.673 C 10.223 7.796 10.284 7.919 10.375 8.041 C 10.467 8.194 10.59 8.347 10.712 8.531 C 10.988 8.837 11.202 9.174 11.325 9.511 C 11.478 9.817 11.569 10.215 11.569 10.641 C 11.569 10.852 11.539 11.057 11.478 11.256 C 11.539 11.256 11.569 11.281 11.601 11.324 C 11.631 11.367 11.662 11.459 11.692 11.602 L 11.723 11.829 C 11.754 11.896 11.784 11.961 11.876 12.016 C 11.937 12.071 11.998 12.117 12.091 12.153 C 12.152 12.184 12.244 12.227 12.305 12.282 C 12.366 12.343 12.396 12.408 12.396 12.475 C 12.396 12.579 12.366 12.656 12.305 12.711 C 12.244 12.772 12.182 12.815 12.091 12.843 C 12.029 12.873 11.906 12.934 11.723 13.021 C 11.569 13.111 11.417 13.221 11.264 13.352 L 10.957 13.612 C 10.835 13.731 10.712 13.817 10.62 13.87 C 10.528 13.925 10.406 13.952 10.284 13.952 L 10.069 13.927 C 9.824 13.863 9.671 13.741 9.579 13.554 C 9.089 13.494 8.691 13.465 8.446 13.465" style="transform-origin: 8.4665px 9.3275px;"/>
</svg>