<?xml version="1.0" encoding="utf-8"?>
<svg viewBox="0 0 16.933 16.933" xmlns="http://www.w3.org/2000/svg">
  <defs>
    <linearGradient id="linearGradient1911" x1="25.085" x2="25.085" y1="24.031" y2="26.412" gradientTransform="translate(-17.897 -21.385)" gradientUnits="userSpaceOnUse">
      <stop stop-color="#fcbc19" stop-opacity=".99608" offset="0"/>
      <stop stop-color="#f4b61f" offset="1"/>
    </linearGradient>
    <linearGradient id="linearGradient4625" x1=".52918" x2="16.404" y1="5.0665" y2="5.0665" gradientUnits="userSpaceOnUse">
      <stop stop-color="#b78815" offset="0"/>
      <stop stop-color="#e2b24b" stop-opacity="0" offset="1"/>
    </linearGradient>
    <linearGradient id="linearGradient1951" x1="100" x2="133.19" y1="17.453" y2="51.606" gradientTransform="matrix(.26458 0 0 .26458 -20.108 -.13539)" gradientUnits="userSpaceOnUse">
      <stop stop-color="#fce798" offset="0"/>
      <stop stop-color="#ffc937" offset="1"/>
    </linearGradient>
    <linearGradient id="linearGradient11110" x1=".52917" x2="16.404" y1="5.3815" y2="5.3815" gradientUnits="userSpaceOnUse">
      <stop stop-color="#fff" offset="0"/>
      <stop stop-color="#fff" stop-opacity="0" offset="1"/>
    </linearGradient>
  </defs>
  <path d="m1.1975 2.2489c-0.3653 0-0.66145 0.32575-0.66145 0.72759v2.9636c-0.0026 0.02629-0.0072 0.052-0.0072 0.07906v7.9373c0 0.40184 0.29614 0.72759 0.66144 0.72759h14.552c0.36531 0 0.66144-0.32575 0.66144-0.72759v-9.393c0-0.40184-0.29614-0.72759-0.66144-0.72759v5.16e-4h-8.1993l-0.89864-1.1095s-0.36607-0.478-1.0583-0.478h-1.3229z" color="#000000" color-rendering="auto" dominant-baseline="auto" fill="url(#linearGradient1911)" image-rendering="auto" shape-rendering="auto" solid-color="#000000" stop-color="#000000" style="font-feature-settings:normal;font-variant-alternates:normal;font-variant-caps:normal;font-variant-east-asian:normal;font-variant-ligatures:normal;font-variant-numeric:normal;font-variant-position:normal;font-variation-settings:normal;inline-size:0;isolation:auto;mix-blend-mode:normal;shape-margin:0;shape-padding:0;text-decoration-color:#000000;text-decoration-line:none;text-decoration-style:solid;text-indent:0;text-orientation:mixed;text-transform:none;white-space:normal" transform="matrix(0.9999999999999999, 0, 0, 0.9999999999999999, 1.7763568394002505e-15, 0)"/>
  <g fill="#5e4aa6" stroke-width=".26458" transform="matrix(0.9999999999999999, 0, 0, 0.9999999999999999, 1.7763568394002505e-15, 0)">
    <circle cx="-330.35" cy="-328.38" r="0"/>
    <circle cx="-312.11" cy="-326.25" r="0"/>
    <circle cx="-306.02" cy="-333.07" r="0"/>
    <circle cx="-308.84" cy="-326.01" r="0"/>
    <g transform="translate(.000295 -.00032978)">
      <circle cx="-330.35" cy="-328.38" r="0"/>
      <circle cx="-312.11" cy="-326.25" r="0"/>
      <circle cx="-306.02" cy="-333.07" r="0"/>
      <circle cx="-308.84" cy="-326.01" r="0"/>
      <circle cx="-328.8" cy="-330.45" r="0"/>
    </g>
    <circle cx="-330.35" cy="-328.38" r="0"/>
    <circle cx="-312.11" cy="-326.25" r="0"/>
    <circle cx="-306.02" cy="-333.07" r="0"/>
    <circle cx="-308.84" cy="-326.01" r="0"/>
    <circle cx="-328.8" cy="-330.45" r="0"/>
    <g transform="translate(2.95e-4,-3.2978e-4)">
      <circle cx="-330.35" cy="-328.38" r="0"/>
      <circle cx="-312.11" cy="-326.25" r="0"/>
      <circle cx="-306.02" cy="-333.07" r="0"/>
      <circle cx="-308.84" cy="-326.01" r="0"/>
      <circle cx="-328.8" cy="-330.45" r="0"/>
    </g>
  </g>
  <path d="m8.3606 3.8364c-0.11312 0.0018-0.30848-0.01542-0.51986 0.09508-0.73647 0.37946-0.77226 0.59366-1.557 0.71415h-4.9608c-0.21986 0-0.41824 0.08855-0.56171 0.23202-0.13937 0.13936-0.22041 0.33333-0.2253 0.54569v0.2775c0.0049-0.21236 0.08593-0.40633 0.2253-0.54569 0.14347-0.14347 0.34185-0.23202 0.56171-0.23202h4.9608c0.78472-0.1205 0.82051-0.33469 1.557-0.71415 0.21138-0.1105 0.40673-0.09328 0.51986-0.09508h7.3828c0.18216 3.65e-4 0.3472 0.08101 0.46663 0.21239 0.1197 0.13167 0.19378 0.31377 0.19378 0.51469v-0.2775c0-0.20092-0.07408-0.38302-0.19378-0.51469-0.11943-0.13137-0.28447-0.21202-0.46663-0.21239h-1.1652zm-7.8247 2.1037c-0.0026 0.02629-0.0067 0.05201-0.0067 0.07906v0.2775c0-0.02705 0.0041-0.05277 0.0067-0.07906z" fill="url(#linearGradient4625)" opacity=".2" stroke-width=".26458" transform="matrix(0.9999999999999999, 0, 0, 0.9999999999999999, 1.7763568394002505e-15, 0)"/>
  <path d="m0.52916 13.674v0.28215c0 0.20092 0.07357 0.3825 0.19327 0.51417s0.28553 0.21342 0.46818 0.21342h14.552c0.18265 0 0.34796-0.08175 0.46766-0.21342s0.19378-0.31325 0.19378-0.51417v-0.28215c0 0.20092-0.07409 0.3825-0.19378 0.51417-0.1197 0.13167-0.28501 0.21342-0.46766 0.21342h-14.552c-0.18265 0-0.34848-0.08176-0.46818-0.21342s-0.19327-0.31325-0.19327-0.51417z" fill="#e4a729" fill-opacity=".99608" stroke-width=".26458" transform="matrix(0.9999999999999999, 0, 0, 0.9999999999999999, 1.7763568394002505e-15, 0)"/>
  <path d="m7.542 4.0979s-0.35919 0.47868-1.1575 0.79218c-0.03271 0.00587-0.06509 0.011575-0.10077 0.017052h-4.9608c-0.21986 0-0.41824 0.088552-0.56171 0.23202-0.13937 0.13936-0.22042 0.33333-0.2253 0.54569v0.51675c-0.0026 0.026291-0.0067 0.052014-0.0067 0.079064v7.3953c0 0.20092 0.07357 0.3825 0.19327 0.51417 0.1197 0.13167 0.28553 0.21342 0.46818 0.21342h14.552c0.18265 0 0.34796-0.08175 0.46766-0.21342 0.1197-0.13167 0.19378-0.31325 0.19378-0.51417v-8.851c0-0.20092-0.07408-0.38302-0.19378-0.51469-0.11945-0.13137-0.28449-0.21202-0.46665-0.21239h-7.4821z" fill="url(#linearGradient1951)" transform="matrix(0.9999999999999999, 0, 0, 0.9999999999999999, 1.7763568394002505e-15, 0)"/>
  <path d="m7.542 4.0979s-0.35919 0.47868-1.1575 0.79218c-0.03271 0.00587-0.06509 0.011575-0.10077 0.017052h-4.9608c-0.21986 0-0.41824 0.088552-0.56171 0.23202-0.13937 0.13936-0.22041 0.33333-0.2253 0.54569v0.38446c0.0049-0.21236 0.08593-0.40633 0.2253-0.54569 0.14347-0.14347 0.34185-0.23202 0.56171-0.23202h4.9608c0.03568-0.00548 0.06806-0.011184 0.10077-0.017052 0.75911-0.26303 1.2883-0.79218 1.2883-0.79218h8.0707c0.18216 3.704e-4 0.34718 0.081016 0.46663 0.21239 0.1197 0.13167 0.19378 0.31377 0.19378 0.51469v-0.38446c0-0.20092-0.07408-0.38302-0.19378-0.51469-0.11945-0.13137-0.28447-0.21202-0.46663-0.21239h-7.4821zm-7.0062 2.1037c-0.0026 0.026291-0.0067 0.052013-0.0067 0.079063v0.38447c0-0.02705 0.0041-0.052773 0.0067-0.079063z" fill="url(#linearGradient11110)" opacity=".3" transform="matrix(0.9999999999999999, 0, 0, 0.9999999999999999, 1.7763568394002505e-15, 0)"/>
  <path class="st0" d="M 4.313 8.261 C 4.313 8.261 4.313 8.261 4.313 8.261 C 4.313 8.261 4.313 8.261 4.313 8.261 Z" style="fill: rgb(32, 51, 102);" transform="matrix(0.9999999999999999, 0, 0, 0.9999999999999999, 1.7763568394002505e-15, 0)"/>
  <path class="st0" d="M 4.313 8.261 C 4.313 8.263 4.313 8.263 4.313 8.261 Z" style="fill: rgb(32, 51, 102);" transform="matrix(0.9999999999999999, 0, 0, 0.9999999999999999, 1.7763568394002505e-15, 0)"/>
  <path class="st0" d="M 4.314 8.261 C 4.314 8.261 4.314 8.26 4.315 8.26 C 4.314 8.26 4.314 8.26 4.314 8.261 Z" style="fill: rgb(32, 51, 102);" transform="matrix(0.9999999999999999, 0, 0, 0.9999999999999999, 1.7763568394002505e-15, 0)"/>
  <g transform="matrix(0.9999999999999999, 0, 0, 0.9999999999999999, -0.000040000003222573355, 1.473729036356941)">
    <path fill="#cc2936" d="M 3.284 8.031 L 1.725 10.078 L 3.34 10.078 L 3.34 10.42 L 1.179 10.42 L 1.179 10.146 L 2.737 8.099 L 1.258 8.099 L 1.258 7.759 L 3.284 7.759 L 3.284 8.031 Z" style=""/>
    <path fill="#222" d="M 6.343 9.089 C 6.344 9.28 6.308 9.469 6.238 9.646 C 6.102 9.983 5.836 10.25 5.498 10.383 C 5.316 10.454 5.122 10.491 4.927 10.488 C 4.733 10.49 4.541 10.454 4.361 10.383 C 4.024 10.25 3.756 9.983 3.622 9.646 C 3.55 9.469 3.514 9.28 3.516 9.089 C 3.514 8.898 3.55 8.709 3.622 8.532 C 3.756 8.195 4.024 7.928 4.361 7.796 C 4.541 7.723 4.733 7.688 4.927 7.69 C 5.122 7.687 5.317 7.723 5.498 7.796 C 5.836 7.928 6.103 8.195 6.238 8.532 C 6.309 8.709 6.344 8.898 6.343 9.089 Z M 5.933 9.089 C 5.935 8.947 5.911 8.807 5.862 8.674 C 5.818 8.55 5.75 8.436 5.661 8.339 C 5.572 8.242 5.465 8.166 5.345 8.114 C 5.077 8.004 4.777 8.004 4.509 8.114 C 4.39 8.166 4.284 8.242 4.197 8.339 C 4.109 8.436 4.042 8.551 3.997 8.674 C 3.902 8.942 3.902 9.236 3.997 9.504 C 4.042 9.627 4.109 9.742 4.197 9.84 C 4.284 9.935 4.39 10.012 4.509 10.065 C 4.777 10.174 5.077 10.174 5.345 10.065 C 5.465 10.012 5.572 9.935 5.661 9.84 C 5.75 9.743 5.818 9.628 5.862 9.504 C 5.911 9.371 5.935 9.231 5.933 9.089 Z M 8.173 8.099 L 7.406 8.099 L 7.406 9.669 C 7.404 9.75 7.413 9.832 7.434 9.91 C 7.449 9.965 7.476 10.015 7.514 10.056 C 7.548 10.09 7.59 10.114 7.636 10.127 C 7.687 10.14 7.74 10.147 7.792 10.146 C 7.859 10.146 7.926 10.137 7.991 10.118 C 8.056 10.101 8.119 10.076 8.179 10.045 L 8.196 10.392 C 8.037 10.46 7.864 10.492 7.69 10.488 C 7.614 10.487 7.539 10.478 7.465 10.46 C 7.387 10.44 7.314 10.403 7.252 10.351 C 7.184 10.292 7.129 10.218 7.093 10.134 C 7.047 10.021 7.025 9.898 7.03 9.776 L 7.03 8.099 L 6.467 8.099 L 6.467 7.759 L 7.03 7.759 L 7.03 7.008 L 7.406 7.008 L 7.406 7.759 L 8.173 7.759 L 8.173 8.099 Z M 8.719 9.192 C 8.729 9.321 8.762 9.448 8.816 9.567 C 8.916 9.794 9.099 9.975 9.328 10.073 C 9.444 10.123 9.57 10.148 9.697 10.146 C 9.88 10.152 10.061 10.103 10.218 10.008 C 10.351 9.927 10.465 9.817 10.55 9.686 L 10.84 9.925 C 10.701 10.108 10.522 10.257 10.314 10.357 C 10.12 10.445 9.91 10.49 9.697 10.488 C 9.509 10.49 9.323 10.454 9.148 10.383 C 8.984 10.316 8.836 10.216 8.713 10.09 C 8.59 9.961 8.493 9.812 8.426 9.646 C 8.355 9.469 8.319 9.28 8.321 9.089 C 8.319 8.898 8.353 8.709 8.423 8.532 C 8.488 8.366 8.585 8.216 8.708 8.088 C 8.829 7.963 8.974 7.864 9.134 7.796 C 9.301 7.724 9.482 7.688 9.663 7.69 C 9.848 7.687 10.033 7.724 10.203 7.798 C 10.355 7.865 10.491 7.963 10.604 8.086 C 10.714 8.208 10.798 8.351 10.851 8.507 C 10.909 8.672 10.938 8.846 10.936 9.02 L 10.936 9.192 L 8.719 9.192 Z M 10.528 8.884 C 10.538 8.656 10.455 8.434 10.3 8.267 C 10.131 8.103 9.9 8.017 9.664 8.031 C 9.543 8.031 9.423 8.056 9.312 8.102 C 9.202 8.148 9.101 8.212 9.014 8.293 C 8.93 8.371 8.86 8.464 8.81 8.566 C 8.759 8.664 8.733 8.773 8.732 8.884 L 10.528 8.884 Z M 11.489 8.588 C 11.489 8.471 11.486 8.352 11.48 8.23 C 11.474 8.109 11.47 7.951 11.467 7.759 L 11.836 7.759 L 11.836 8.254 L 11.848 8.254 C 11.876 8.179 11.913 8.109 11.962 8.045 C 12.012 7.978 12.073 7.918 12.141 7.867 C 12.215 7.811 12.297 7.768 12.384 7.739 C 12.487 7.705 12.593 7.689 12.7 7.691 C 12.794 7.689 12.888 7.7 12.979 7.725 L 12.905 8.093 C 12.834 8.072 12.761 8.062 12.688 8.065 C 12.56 8.062 12.432 8.09 12.318 8.148 C 12.22 8.2 12.133 8.272 12.062 8.359 C 11.996 8.44 11.945 8.534 11.912 8.634 C 11.881 8.725 11.864 8.822 11.863 8.918 L 11.863 10.42 L 11.489 10.42 L 11.489 8.588 Z M 15.754 9.089 C 15.756 9.28 15.721 9.469 15.649 9.646 C 15.514 9.983 15.246 10.25 14.91 10.383 C 14.728 10.454 14.534 10.491 14.338 10.488 C 14.144 10.49 13.953 10.454 13.772 10.383 C 13.435 10.25 13.168 9.983 13.033 9.646 C 12.962 9.469 12.926 9.28 12.927 9.089 C 12.926 8.898 12.962 8.709 13.033 8.532 C 13.168 8.195 13.435 7.928 13.772 7.796 C 13.953 7.723 14.144 7.688 14.338 7.69 C 14.534 7.687 14.728 7.723 14.91 7.796 C 15.247 7.928 15.514 8.195 15.649 8.532 C 15.721 8.709 15.756 8.898 15.754 9.089 Z M 15.344 9.089 C 15.345 8.947 15.321 8.807 15.274 8.674 C 15.229 8.55 15.16 8.436 15.071 8.339 C 14.983 8.242 14.875 8.166 14.756 8.114 C 14.488 8.004 14.188 8.004 13.92 8.114 C 13.801 8.166 13.694 8.242 13.607 8.339 C 13.52 8.436 13.452 8.551 13.409 8.674 C 13.314 8.942 13.314 9.236 13.409 9.504 C 13.452 9.627 13.52 9.742 13.607 9.84 C 13.694 9.935 13.801 10.012 13.92 10.065 C 14.188 10.174 14.488 10.174 14.756 10.065 C 14.875 10.012 14.983 9.935 15.071 9.84 C 15.16 9.743 15.229 9.628 15.274 9.504 C 15.321 9.371 15.345 9.231 15.344 9.089 Z" style=""/>
  </g>
</svg>