<?xml version="1.0" encoding="utf-8"?>
<svg viewBox="0 0 16.933 16.933" xmlns="http://www.w3.org/2000/svg">
  <defs>
    <linearGradient id="linearGradient1911" x1="25.085" x2="25.085" y1="24.031" y2="26.412" gradientTransform="translate(-17.897 -21.385)" gradientUnits="userSpaceOnUse">
      <stop stop-color="#fcbc19" stop-opacity=".99608" offset="0"/>
      <stop stop-color="#f4b61f" offset="1"/>
    </linearGradient>
    <linearGradient id="linearGradient4625" x1=".52918" x2="16.404" y1="5.0665" y2="5.0665" gradientUnits="userSpaceOnUse">
      <stop stop-color="#b78815" offset="0"/>
      <stop stop-color="#e2b24b" stop-opacity="0" offset="1"/>
    </linearGradient>
    <linearGradient id="linearGradient1951" x1="100" x2="133.19" y1="17.453" y2="51.606" gradientTransform="matrix(.26458 0 0 .26458 -20.108 -.13539)" gradientUnits="userSpaceOnUse">
      <stop stop-color="#fce798" offset="0"/>
      <stop stop-color="#ffc937" offset="1"/>
    </linearGradient>
    <linearGradient id="linearGradient11110" x1=".52917" x2="16.404" y1="5.3815" y2="5.3815" gradientUnits="userSpaceOnUse">
      <stop stop-color="#fff" offset="0"/>
      <stop stop-color="#fff" stop-opacity="0" offset="1"/>
    </linearGradient>
  </defs>
  <path d="m1.1975 2.2489c-0.3653 0-0.66145 0.32575-0.66145 0.72759v2.9636c-0.0026 0.02629-0.0072 0.052-0.0072 0.07906v7.9373c0 0.40184 0.29614 0.72759 0.66144 0.72759h14.552c0.36531 0 0.66144-0.32575 0.66144-0.72759v-9.393c0-0.40184-0.29614-0.72759-0.66144-0.72759v5.16e-4h-8.1993l-0.89864-1.1095s-0.36607-0.478-1.0583-0.478h-1.3229z" color="#000000" color-rendering="auto" dominant-baseline="auto" fill="url(#linearGradient1911)" image-rendering="auto" shape-rendering="auto" solid-color="#000000" stop-color="#000000" style="font-feature-settings:normal;font-variant-alternates:normal;font-variant-caps:normal;font-variant-east-asian:normal;font-variant-ligatures:normal;font-variant-numeric:normal;font-variant-position:normal;font-variation-settings:normal;inline-size:0;isolation:auto;mix-blend-mode:normal;shape-margin:0;shape-padding:0;text-decoration-color:#000000;text-decoration-line:none;text-decoration-style:solid;text-indent:0;text-orientation:mixed;text-transform:none;white-space:normal" transform="matrix(1, 0, 0, 1, -1.7763568394002505e-15, 0)"/>
  <path d="m8.3606 3.8364c-0.11312 0.0018-0.30848-0.01542-0.51986 0.09508-0.73647 0.37946-0.77226 0.59366-1.557 0.71415h-4.9608c-0.21986 0-0.41824 0.08855-0.56171 0.23202-0.13937 0.13936-0.22041 0.33333-0.2253 0.54569v0.2775c0.0049-0.21236 0.08593-0.40633 0.2253-0.54569 0.14347-0.14347 0.34185-0.23202 0.56171-0.23202h4.9608c0.78472-0.1205 0.82051-0.33469 1.557-0.71415 0.21138-0.1105 0.40673-0.09328 0.51986-0.09508h7.3828c0.18216 3.65e-4 0.3472 0.08101 0.46663 0.21239 0.1197 0.13167 0.19378 0.31377 0.19378 0.51469v-0.2775c0-0.20092-0.07408-0.38302-0.19378-0.51469-0.11943-0.13137-0.28447-0.21202-0.46663-0.21239h-1.1652zm-7.8247 2.1037c-0.0026 0.02629-0.0067 0.05201-0.0067 0.07906v0.2775c0-0.02705 0.0041-0.05277 0.0067-0.07906z" fill="url(#linearGradient4625)" opacity=".2" stroke-width=".26458" transform="matrix(1, 0, 0, 1, -1.7763568394002505e-15, 0)"/>
  <path d="m0.52916 13.674v0.28215c0 0.20092 0.07357 0.3825 0.19327 0.51417s0.28553 0.21342 0.46818 0.21342h14.552c0.18265 0 0.34796-0.08175 0.46766-0.21342s0.19378-0.31325 0.19378-0.51417v-0.28215c0 0.20092-0.07409 0.3825-0.19378 0.51417-0.1197 0.13167-0.28501 0.21342-0.46766 0.21342h-14.552c-0.18265 0-0.34848-0.08176-0.46818-0.21342s-0.19327-0.31325-0.19327-0.51417z" fill="#e4a729" fill-opacity=".99608" stroke-width=".26458" transform="matrix(1, 0, 0, 1, -1.7763568394002505e-15, 0)"/>
  <path d="m7.542 4.0979s-0.35919 0.47868-1.1575 0.79218c-0.03271 0.00587-0.06509 0.011575-0.10077 0.017052h-4.9608c-0.21986 0-0.41824 0.088552-0.56171 0.23202-0.13937 0.13936-0.22042 0.33333-0.2253 0.54569v0.51675c-0.0026 0.026291-0.0067 0.052014-0.0067 0.079064v7.3953c0 0.20092 0.07357 0.3825 0.19327 0.51417 0.1197 0.13167 0.28553 0.21342 0.46818 0.21342h14.552c0.18265 0 0.34796-0.08175 0.46766-0.21342 0.1197-0.13167 0.19378-0.31325 0.19378-0.51417v-8.851c0-0.20092-0.07408-0.38302-0.19378-0.51469-0.11945-0.13137-0.28449-0.21202-0.46665-0.21239h-7.4821z" fill="url(#linearGradient1951)" transform="matrix(1, 0, 0, 1, -1.7763568394002505e-15, 0)"/>
  <path d="m7.542 4.0979s-0.35919 0.47868-1.1575 0.79218c-0.03271 0.00587-0.06509 0.011575-0.10077 0.017052h-4.9608c-0.21986 0-0.41824 0.088552-0.56171 0.23202-0.13937 0.13936-0.22041 0.33333-0.2253 0.54569v0.38446c0.0049-0.21236 0.08593-0.40633 0.2253-0.54569 0.14347-0.14347 0.34185-0.23202 0.56171-0.23202h4.9608c0.03568-0.00548 0.06806-0.011184 0.10077-0.017052 0.75911-0.26303 1.2883-0.79218 1.2883-0.79218h8.0707c0.18216 3.704e-4 0.34718 0.081016 0.46663 0.21239 0.1197 0.13167 0.19378 0.31377 0.19378 0.51469v-0.38446c0-0.20092-0.07408-0.38302-0.19378-0.51469-0.11945-0.13137-0.28447-0.21202-0.46663-0.21239h-7.4821zm-7.0062 2.1037c-0.0026 0.026291-0.0067 0.052013-0.0067 0.079063v0.38447c0-0.02705 0.0041-0.052773 0.0067-0.079063z" fill="url(#linearGradient11110)" opacity=".3" transform="matrix(1, 0, 0, 1, -1.7763568394002505e-15, 0)"/>
  <text style="white-space: pre; fill: rgb(51, 51, 51); font-family: Arial, sans-serif; font-size: 0.8px;" x="3.03" y="9.269" transform="matrix(1, 0, 0, 1, -1.7763568394002505e-15, 0)"> </text>
  <g stroke-width="2.41" transform="matrix(0.01392000075429678, 0, 0, 0.01392000075429678, 4.379498070172934, 4.781676840509127)" style="">
    <path d="M546.353 124.75L334.494-1.03a79.795 79.795 0 0 0-81.747 0L40.853 124.75A84.504 84.504 0 0 0 .001 197.545v251.523a84.504 84.504 0 0 0 40.852 72.752l211.859 125.737a79.837 79.837 0 0 0 81.747 0L546.318 521.82a84.504 84.504 0 0 0 40.894-72.795v-251.47a84.504 84.504 0 0 0-40.852-72.794z" fill="#fff"/>
    <path d="M546.353 124.75L334.494-1.03a79.795 79.795 0 0 0-81.747 0L40.853 124.75A84.504 84.504 0 0 0 .001 197.545v251.523a84.504 84.504 0 0 0 40.852 72.752l211.859 125.737a79.837 79.837 0 0 0 81.747 0L546.318 521.82a84.504 84.504 0 0 0 40.894-72.795v-251.47a84.504 84.504 0 0 0-40.852-72.794zM260.13 634.697L48.272 508.96a69.74 69.74 0 0 1-33.597-59.9V197.539a69.698 69.698 0 0 1 33.597-59.9l211.859-125.78a65.329 65.329 0 0 1 66.94 0l211.683 125.78a69.274 69.274 0 0 1 32.538 48.446c-7.042-14.975-22.865-19.089-41.319-8.484L329.7 301.64c-24.987 14.55-43.398 30.967-43.44 61.088v246.98c0 18.03 7.253 29.695 18.453 33.131a64.904 64.904 0 0 1-11.115 1.06 65.626 65.626 0 0 1-33.47-9.205z" fill="#2f3a3e"/>
    <path d="M490.823 473.378l-52.773 31.563a3.86 3.86 0 0 0-2.418 3.436v13.872c0 1.697 1.146 2.375 2.546 1.57l53.579-32.58a4.242 4.242 0 0 0 1.612-4.243v-12.175c-.043-1.57-1.273-2.248-2.546-1.442z" fill="#3ab14a"/>
    <path d="M378.498 357.185c1.697-.848 3.097 0 3.14 2.419l.169 18.41a33.937 33.937 0 0 1 20.277-2.46c1.315.34 1.867 2.121 1.358 4.242l-4.03 16.163a6.957 6.957 0 0 1-1.824 3.224 4.242 4.242 0 0 1-1.06.764 2.418 2.418 0 0 1-1.57.254 26.895 26.895 0 0 0-19.556 3.14 24.562 24.562 0 0 0-14.466 21.76c0 8.485 4.242 10.818 19.047 11.073 19.556.34 28.041 8.866 28.253 28.592a70.122 70.122 0 0 1-25.963 52.9l.34 18.071a6.618 6.618 0 0 1-3.097 5.515l-10.69 6.151c-1.697.849-3.097 0-3.14-2.376v-17.774c-9.162 3.818-18.453 4.71-24.391 2.334-1.103-.425-1.612-2.079-1.145-3.988l3.86-16.332a6.83 6.83 0 0 1 1.909-3.394 4.242 4.242 0 0 1 1.018-.721 2.121 2.121 0 0 1 1.74 0 29.694 29.694 0 0 0 22.44-2.842 29.356 29.356 0 0 0 16.587-25.454c0-9.163-5.048-12.98-16.968-13.066-15.4 0-29.695-2.969-29.992-25.453a65.753 65.753 0 0 1 24.858-50.311l-.763-18.496a6.575 6.575 0 0 1 3.096-5.6z" fill="#fff"/>
  </g>
</svg>