<?xml version="1.0" encoding="utf-8"?>
<svg viewBox="0 0 16.933 16.933" xmlns="http://www.w3.org/2000/svg">
  <defs>
    <linearGradient id="linearGradient1911" x1="25.085" x2="25.085" y1="24.031" y2="26.412" gradientTransform="translate(-17.897 -21.385)" gradientUnits="userSpaceOnUse">
      <stop stop-color="#fcbc19" stop-opacity=".99608" offset="0"/>
      <stop stop-color="#f4b61f" offset="1"/>
    </linearGradient>
    <linearGradient id="linearGradient4625" x1=".52918" x2="16.404" y1="5.0665" y2="5.0665" gradientUnits="userSpaceOnUse">
      <stop stop-color="#b78815" offset="0"/>
      <stop stop-color="#e2b24b" stop-opacity="0" offset="1"/>
    </linearGradient>
    <linearGradient id="linearGradient1951" x1="100" x2="133.19" y1="17.453" y2="51.606" gradientTransform="matrix(.26458 0 0 .26458 -20.108 -.13539)" gradientUnits="userSpaceOnUse">
      <stop stop-color="#fce798" offset="0"/>
      <stop stop-color="#ffc937" offset="1"/>
    </linearGradient>
    <linearGradient id="linearGradient11110" x1=".52917" x2="16.404" y1="5.3815" y2="5.3815" gradientUnits="userSpaceOnUse">
      <stop stop-color="#fff" offset="0"/>
      <stop stop-color="#fff" stop-opacity="0" offset="1"/>
    </linearGradient>
  </defs>
  <path d="m1.1975 2.2489c-0.3653 0-0.66145 0.32575-0.66145 0.72759v2.9636c-0.0026 0.02629-0.0072 0.052-0.0072 0.07906v7.9373c0 0.40184 0.29614 0.72759 0.66144 0.72759h14.552c0.36531 0 0.66144-0.32575 0.66144-0.72759v-9.393c0-0.40184-0.29614-0.72759-0.66144-0.72759v5.16e-4h-8.1993l-0.89864-1.1095s-0.36607-0.478-1.0583-0.478h-1.3229z" color="#000000" color-rendering="auto" dominant-baseline="auto" fill="url(#linearGradient1911)" image-rendering="auto" shape-rendering="auto" solid-color="#000000" stop-color="#000000" style="font-feature-settings:normal;font-variant-alternates:normal;font-variant-caps:normal;font-variant-east-asian:normal;font-variant-ligatures:normal;font-variant-numeric:normal;font-variant-position:normal;font-variation-settings:normal;inline-size:0;isolation:auto;mix-blend-mode:normal;shape-margin:0;shape-padding:0;text-decoration-color:#000000;text-decoration-line:none;text-decoration-style:solid;text-indent:0;text-orientation:mixed;text-transform:none;white-space:normal" transform="matrix(0.9999999999999999, 0, 0, 0.9999999999999999, 1.7763568394002505e-15, 0)"/>
  <g fill="#5e4aa6" stroke-width=".26458" transform="matrix(0.9999999999999999, 0, 0, 0.9999999999999999, 1.7763568394002505e-15, 0)">
    <circle cx="-330.35" cy="-328.38" r="0"/>
    <circle cx="-312.11" cy="-326.25" r="0"/>
    <circle cx="-306.02" cy="-333.07" r="0"/>
    <circle cx="-308.84" cy="-326.01" r="0"/>
    <g transform="translate(.000295 -.00032978)">
      <circle cx="-330.35" cy="-328.38" r="0"/>
      <circle cx="-312.11" cy="-326.25" r="0"/>
      <circle cx="-306.02" cy="-333.07" r="0"/>
      <circle cx="-308.84" cy="-326.01" r="0"/>
      <circle cx="-328.8" cy="-330.45" r="0"/>
    </g>
    <circle cx="-330.35" cy="-328.38" r="0"/>
    <circle cx="-312.11" cy="-326.25" r="0"/>
    <circle cx="-306.02" cy="-333.07" r="0"/>
    <circle cx="-308.84" cy="-326.01" r="0"/>
    <circle cx="-328.8" cy="-330.45" r="0"/>
    <g transform="translate(2.95e-4,-3.2978e-4)">
      <circle cx="-330.35" cy="-328.38" r="0"/>
      <circle cx="-312.11" cy="-326.25" r="0"/>
      <circle cx="-306.02" cy="-333.07" r="0"/>
      <circle cx="-308.84" cy="-326.01" r="0"/>
      <circle cx="-328.8" cy="-330.45" r="0"/>
    </g>
  </g>
  <path d="m8.3606 3.8364c-0.11312 0.0018-0.30848-0.01542-0.51986 0.09508-0.73647 0.37946-0.77226 0.59366-1.557 0.71415h-4.9608c-0.21986 0-0.41824 0.08855-0.56171 0.23202-0.13937 0.13936-0.22041 0.33333-0.2253 0.54569v0.2775c0.0049-0.21236 0.08593-0.40633 0.2253-0.54569 0.14347-0.14347 0.34185-0.23202 0.56171-0.23202h4.9608c0.78472-0.1205 0.82051-0.33469 1.557-0.71415 0.21138-0.1105 0.40673-0.09328 0.51986-0.09508h7.3828c0.18216 3.65e-4 0.3472 0.08101 0.46663 0.21239 0.1197 0.13167 0.19378 0.31377 0.19378 0.51469v-0.2775c0-0.20092-0.07408-0.38302-0.19378-0.51469-0.11943-0.13137-0.28447-0.21202-0.46663-0.21239h-1.1652zm-7.8247 2.1037c-0.0026 0.02629-0.0067 0.05201-0.0067 0.07906v0.2775c0-0.02705 0.0041-0.05277 0.0067-0.07906z" fill="url(#linearGradient4625)" opacity=".2" stroke-width=".26458" transform="matrix(0.9999999999999999, 0, 0, 0.9999999999999999, 1.7763568394002505e-15, 0)"/>
  <path d="m0.52916 13.674v0.28215c0 0.20092 0.07357 0.3825 0.19327 0.51417s0.28553 0.21342 0.46818 0.21342h14.552c0.18265 0 0.34796-0.08175 0.46766-0.21342s0.19378-0.31325 0.19378-0.51417v-0.28215c0 0.20092-0.07409 0.3825-0.19378 0.51417-0.1197 0.13167-0.28501 0.21342-0.46766 0.21342h-14.552c-0.18265 0-0.34848-0.08176-0.46818-0.21342s-0.19327-0.31325-0.19327-0.51417z" fill="#e4a729" fill-opacity=".99608" stroke-width=".26458" transform="matrix(0.9999999999999999, 0, 0, 0.9999999999999999, 1.7763568394002505e-15, 0)"/>
  <path d="m7.542 4.0979s-0.35919 0.47868-1.1575 0.79218c-0.03271 0.00587-0.06509 0.011575-0.10077 0.017052h-4.9608c-0.21986 0-0.41824 0.088552-0.56171 0.23202-0.13937 0.13936-0.22042 0.33333-0.2253 0.54569v0.51675c-0.0026 0.026291-0.0067 0.052014-0.0067 0.079064v7.3953c0 0.20092 0.07357 0.3825 0.19327 0.51417 0.1197 0.13167 0.28553 0.21342 0.46818 0.21342h14.552c0.18265 0 0.34796-0.08175 0.46766-0.21342 0.1197-0.13167 0.19378-0.31325 0.19378-0.51417v-8.851c0-0.20092-0.07408-0.38302-0.19378-0.51469-0.11945-0.13137-0.28449-0.21202-0.46665-0.21239h-7.4821z" fill="url(#linearGradient1951)" transform="matrix(0.9999999999999999, 0, 0, 0.9999999999999999, 1.7763568394002505e-15, 0)"/>
  <path d="m7.542 4.0979s-0.35919 0.47868-1.1575 0.79218c-0.03271 0.00587-0.06509 0.011575-0.10077 0.017052h-4.9608c-0.21986 0-0.41824 0.088552-0.56171 0.23202-0.13937 0.13936-0.22041 0.33333-0.2253 0.54569v0.38446c0.0049-0.21236 0.08593-0.40633 0.2253-0.54569 0.14347-0.14347 0.34185-0.23202 0.56171-0.23202h4.9608c0.03568-0.00548 0.06806-0.011184 0.10077-0.017052 0.75911-0.26303 1.2883-0.79218 1.2883-0.79218h8.0707c0.18216 3.704e-4 0.34718 0.081016 0.46663 0.21239 0.1197 0.13167 0.19378 0.31377 0.19378 0.51469v-0.38446c0-0.20092-0.07408-0.38302-0.19378-0.51469-0.11945-0.13137-0.28447-0.21202-0.46663-0.21239h-7.4821zm-7.0062 2.1037c-0.0026 0.026291-0.0067 0.052013-0.0067 0.079063v0.38447c0-0.02705 0.0041-0.052773 0.0067-0.079063z" fill="url(#linearGradient11110)" opacity=".3" transform="matrix(0.9999999999999999, 0, 0, 0.9999999999999999, 1.7763568394002505e-15, 0)"/>
  <path class="st0" d="M 4.313 8.261 C 4.313 8.261 4.313 8.261 4.313 8.261 C 4.313 8.261 4.313 8.261 4.313 8.261 Z" style="fill: rgb(32, 51, 102);" transform="matrix(0.9999999999999999, 0, 0, 0.9999999999999999, 1.7763568394002505e-15, 0)"/>
  <path class="st0" d="M 4.313 8.261 C 4.313 8.263 4.313 8.263 4.313 8.261 Z" style="fill: rgb(32, 51, 102);" transform="matrix(0.9999999999999999, 0, 0, 0.9999999999999999, 1.7763568394002505e-15, 0)"/>
  <path class="st0" d="M 4.314 8.261 C 4.314 8.261 4.314 8.26 4.315 8.26 C 4.314 8.26 4.314 8.26 4.314 8.261 Z" style="fill: rgb(32, 51, 102);" transform="matrix(0.9999999999999999, 0, 0, 0.9999999999999999, 1.7763568394002505e-15, 0)"/>
  <path d="M 5.415 8.719 C 5.443 8.807 5.457 8.9 5.457 8.998 C 5.457 9.04 5.455 9.082 5.452 9.123 L 3.828 9.123 C 3.863 8.995 3.91 8.879 3.97 8.775 C 4.029 8.67 4.099 8.58 4.181 8.506 C 4.262 8.432 4.353 8.373 4.453 8.332 C 4.553 8.292 4.66 8.271 4.775 8.271 C 4.888 8.271 4.987 8.29 5.072 8.33 C 5.156 8.368 5.228 8.421 5.285 8.488 C 5.343 8.554 5.386 8.632 5.415 8.719 Z M 8.36 8.503 C 8.294 8.431 8.214 8.374 8.124 8.338 C 8.024 8.297 7.918 8.277 7.81 8.279 C 7.656 8.279 7.514 8.313 7.382 8.382 C 7.25 8.451 7.134 8.549 7.041 8.668 C 6.941 8.799 6.863 8.947 6.813 9.105 C 6.757 9.285 6.728 9.473 6.73 9.662 C 6.73 9.787 6.748 9.903 6.784 10.008 C 6.82 10.114 6.871 10.204 6.936 10.279 C 7.001 10.353 7.078 10.412 7.169 10.454 C 7.26 10.495 7.36 10.517 7.472 10.517 C 7.627 10.517 7.771 10.48 7.904 10.407 C 8.036 10.333 8.152 10.234 8.25 10.107 C 8.352 9.972 8.43 9.821 8.48 9.66 C 8.535 9.489 8.563 9.304 8.563 9.106 C 8.563 8.978 8.546 8.863 8.51 8.762 C 8.477 8.666 8.427 8.578 8.36 8.503 Z M 14.959 7.124 L 13.661 13.225 L 7.777 13.225 L 8.116 11.681 L 1.974 11.681 L 3.179 5.927 L 10.524 5.927 L 10.274 7.124 L 14.959 7.124 Z M 5.957 9.06 C 5.96 8.883 5.929 8.708 5.866 8.544 C 5.81 8.402 5.726 8.273 5.619 8.165 C 5.515 8.062 5.393 7.982 5.257 7.93 C 5.116 7.876 4.968 7.849 4.819 7.85 C 4.603 7.847 4.387 7.893 4.19 7.983 C 4 8.07 3.832 8.198 3.697 8.359 C 3.561 8.521 3.453 8.715 3.377 8.941 C 3.298 9.185 3.259 9.439 3.262 9.695 C 3.262 9.897 3.294 10.076 3.357 10.231 C 3.471 10.527 3.708 10.757 4.005 10.865 C 4.153 10.919 4.311 10.947 4.478 10.947 C 4.651 10.947 4.811 10.925 4.956 10.884 C 5.092 10.847 5.222 10.789 5.339 10.712 C 5.449 10.639 5.541 10.553 5.613 10.452 C 5.683 10.356 5.736 10.247 5.768 10.131 L 5.26 10.131 C 5.198 10.247 5.102 10.344 4.985 10.408 C 4.865 10.477 4.705 10.511 4.508 10.511 C 4.417 10.511 4.327 10.496 4.238 10.465 C 4.149 10.434 4.067 10.383 3.998 10.316 C 3.923 10.241 3.863 10.151 3.825 10.052 C 3.778 9.926 3.755 9.793 3.758 9.658 C 3.758 9.633 3.759 9.608 3.76 9.584 C 3.761 9.56 3.762 9.536 3.765 9.51 L 5.921 9.51 C 5.926 9.482 5.931 9.448 5.935 9.408 L 5.945 9.286 C 5.952 9.211 5.956 9.135 5.957 9.06 Z M 8.681 10.895 L 9.57 6.714 L 9.084 6.714 L 8.715 8.455 L 8.671 8.455 C 8.645 8.366 8.603 8.283 8.547 8.209 C 8.491 8.134 8.422 8.07 8.345 8.017 C 8.264 7.963 8.175 7.922 8.081 7.894 C 7.981 7.864 7.879 7.849 7.774 7.85 C 7.494 7.849 7.22 7.935 6.99 8.096 C 6.873 8.178 6.769 8.275 6.678 8.386 C 6.585 8.497 6.506 8.624 6.438 8.764 C 6.37 8.909 6.318 9.062 6.284 9.219 C 6.248 9.383 6.23 9.554 6.23 9.734 C 6.23 9.919 6.259 10.087 6.317 10.237 C 6.373 10.386 6.452 10.514 6.551 10.619 C 6.65 10.725 6.765 10.806 6.897 10.862 C 7.028 10.919 7.169 10.948 7.319 10.948 C 7.509 10.948 7.688 10.906 7.852 10.824 C 8.016 10.742 8.153 10.629 8.263 10.487 L 8.306 10.487 L 8.221 10.895 L 8.681 10.895 Z M 11.99 10.142 L 13.927 7.911 L 12.843 7.911 L 11.661 9.374 L 11.603 9.374 L 10.978 7.911 L 9.883 7.911 L 10.822 10.036 L 8.794 12.438 L 9.863 12.438 L 11.165 10.895 L 11.253 10.895 L 11.956 12.438 L 13.032 12.438 L 11.99 10.142 Z" style="" transform="matrix(0.9999999999999999, 0, 0, 0.9999999999999999, 1.7763568394002505e-15, 0)"/>
</svg>