<?xml version="1.0" encoding="utf-8"?>
<svg viewBox="0 0 16.933 16.933" xmlns="http://www.w3.org/2000/svg">
  <defs>
    <linearGradient id="linearGradient1911" x1="25.085" x2="25.085" y1="24.031" y2="26.412" gradientTransform="translate(-17.897 -21.385)" gradientUnits="userSpaceOnUse">
      <stop stop-color="#fcbc19" stop-opacity=".99608" offset="0"/>
      <stop stop-color="#f4b61f" offset="1"/>
    </linearGradient>
    <linearGradient id="linearGradient4625" x1=".52918" x2="16.404" y1="5.0665" y2="5.0665" gradientUnits="userSpaceOnUse">
      <stop stop-color="#b78815" offset="0"/>
      <stop stop-color="#e2b24b" stop-opacity="0" offset="1"/>
    </linearGradient>
    <linearGradient id="linearGradient1951" x1="100" x2="133.19" y1="17.453" y2="51.606" gradientTransform="matrix(.26458 0 0 .26458 -20.108 -.13539)" gradientUnits="userSpaceOnUse">
      <stop stop-color="#fce798" offset="0"/>
      <stop stop-color="#ffc937" offset="1"/>
    </linearGradient>
    <linearGradient id="linearGradient11110" x1=".52917" x2="16.404" y1="5.3815" y2="5.3815" gradientUnits="userSpaceOnUse">
      <stop stop-color="#fff" offset="0"/>
      <stop stop-color="#fff" stop-opacity="0" offset="1"/>
    </linearGradient>
  </defs>
  <path d="m1.1975 2.2489c-0.3653 0-0.66145 0.32575-0.66145 0.72759v2.9636c-0.0026 0.02629-0.0072 0.052-0.0072 0.07906v7.9373c0 0.40184 0.29614 0.72759 0.66144 0.72759h14.552c0.36531 0 0.66144-0.32575 0.66144-0.72759v-9.393c0-0.40184-0.29614-0.72759-0.66144-0.72759v5.16e-4h-8.1993l-0.89864-1.1095s-0.36607-0.478-1.0583-0.478h-1.3229z" color="#000000" color-rendering="auto" dominant-baseline="auto" fill="url(#linearGradient1911)" image-rendering="auto" shape-rendering="auto" solid-color="#000000" stop-color="#000000" style="font-feature-settings:normal;font-variant-alternates:normal;font-variant-caps:normal;font-variant-east-asian:normal;font-variant-ligatures:normal;font-variant-numeric:normal;font-variant-position:normal;font-variation-settings:normal;inline-size:0;isolation:auto;mix-blend-mode:normal;shape-margin:0;shape-padding:0;text-decoration-color:#000000;text-decoration-line:none;text-decoration-style:solid;text-indent:0;text-orientation:mixed;text-transform:none;white-space:normal" transform="matrix(1, 0, 0, 1, -1.7763568394002505e-15, 0)"/>
  <path d="m8.3606 3.8364c-0.11312 0.0018-0.30848-0.01542-0.51986 0.09508-0.73647 0.37946-0.77226 0.59366-1.557 0.71415h-4.9608c-0.21986 0-0.41824 0.08855-0.56171 0.23202-0.13937 0.13936-0.22041 0.33333-0.2253 0.54569v0.2775c0.0049-0.21236 0.08593-0.40633 0.2253-0.54569 0.14347-0.14347 0.34185-0.23202 0.56171-0.23202h4.9608c0.78472-0.1205 0.82051-0.33469 1.557-0.71415 0.21138-0.1105 0.40673-0.09328 0.51986-0.09508h7.3828c0.18216 3.65e-4 0.3472 0.08101 0.46663 0.21239 0.1197 0.13167 0.19378 0.31377 0.19378 0.51469v-0.2775c0-0.20092-0.07408-0.38302-0.19378-0.51469-0.11943-0.13137-0.28447-0.21202-0.46663-0.21239h-1.1652zm-7.8247 2.1037c-0.0026 0.02629-0.0067 0.05201-0.0067 0.07906v0.2775c0-0.02705 0.0041-0.05277 0.0067-0.07906z" fill="url(#linearGradient4625)" opacity=".2" stroke-width=".26458" transform="matrix(1, 0, 0, 1, -1.7763568394002505e-15, 0)"/>
  <path d="m0.52916 13.674v0.28215c0 0.20092 0.07357 0.3825 0.19327 0.51417s0.28553 0.21342 0.46818 0.21342h14.552c0.18265 0 0.34796-0.08175 0.46766-0.21342s0.19378-0.31325 0.19378-0.51417v-0.28215c0 0.20092-0.07409 0.3825-0.19378 0.51417-0.1197 0.13167-0.28501 0.21342-0.46766 0.21342h-14.552c-0.18265 0-0.34848-0.08176-0.46818-0.21342s-0.19327-0.31325-0.19327-0.51417z" fill="#e4a729" fill-opacity=".99608" stroke-width=".26458" transform="matrix(1, 0, 0, 1, -1.7763568394002505e-15, 0)"/>
  <path d="m7.542 4.0979s-0.35919 0.47868-1.1575 0.79218c-0.03271 0.00587-0.06509 0.011575-0.10077 0.017052h-4.9608c-0.21986 0-0.41824 0.088552-0.56171 0.23202-0.13937 0.13936-0.22042 0.33333-0.2253 0.54569v0.51675c-0.0026 0.026291-0.0067 0.052014-0.0067 0.079064v7.3953c0 0.20092 0.07357 0.3825 0.19327 0.51417 0.1197 0.13167 0.28553 0.21342 0.46818 0.21342h14.552c0.18265 0 0.34796-0.08175 0.46766-0.21342 0.1197-0.13167 0.19378-0.31325 0.19378-0.51417v-8.851c0-0.20092-0.07408-0.38302-0.19378-0.51469-0.11945-0.13137-0.28449-0.21202-0.46665-0.21239h-7.4821z" fill="url(#linearGradient1951)" transform="matrix(1, 0, 0, 1, -1.7763568394002505e-15, 0)"/>
  <path d="m7.542 4.0979s-0.35919 0.47868-1.1575 0.79218c-0.03271 0.00587-0.06509 0.011575-0.10077 0.017052h-4.9608c-0.21986 0-0.41824 0.088552-0.56171 0.23202-0.13937 0.13936-0.22041 0.33333-0.2253 0.54569v0.38446c0.0049-0.21236 0.08593-0.40633 0.2253-0.54569 0.14347-0.14347 0.34185-0.23202 0.56171-0.23202h4.9608c0.03568-0.00548 0.06806-0.011184 0.10077-0.017052 0.75911-0.26303 1.2883-0.79218 1.2883-0.79218h8.0707c0.18216 3.704e-4 0.34718 0.081016 0.46663 0.21239 0.1197 0.13167 0.19378 0.31377 0.19378 0.51469v-0.38446c0-0.20092-0.07408-0.38302-0.19378-0.51469-0.11945-0.13137-0.28447-0.21202-0.46663-0.21239h-7.4821zm-7.0062 2.1037c-0.0026 0.026291-0.0067 0.052013-0.0067 0.079063v0.38447c0-0.02705 0.0041-0.052773 0.0067-0.079063z" fill="url(#linearGradient11110)" opacity=".3" transform="matrix(1, 0, 0, 1, -1.7763568394002505e-15, 0)"/>
  <text style="white-space: pre; fill: rgb(51, 51, 51); font-family: Arial, sans-serif; font-size: 0.8px;" x="3.03" y="9.269" transform="matrix(1, 0, 0, 1, -1.7763568394002505e-15, 0)"> </text>
  <path d="M 10.828 12.093 L 10.791 12.093 L 10.791 12.073 L 10.889 12.073 L 10.889 12.093 L 10.854 12.093 L 10.854 12.194 L 10.828 12.194 L 10.828 12.093 Z M 11.022 12.099 L 10.986 12.194 L 10.969 12.194 L 10.934 12.099 L 10.934 12.194 L 10.91 12.194 L 10.91 12.073 L 10.944 12.073 L 10.978 12.159 L 11.01 12.073 L 11.046 12.073 L 11.046 12.194 L 11.022 12.194 L 11.022 12.099 Z" fill="#e76f00" style="" transform="matrix(1, 0, 0, 1, -1.7763568394002505e-15, 0)"/>
  <path d="M 7.592 9.616 C 7.592 9.616 7.341 9.763 7.771 9.812 C 8.292 9.872 8.559 9.863 9.134 9.755 C 9.134 9.755 9.285 9.849 9.495 9.931 C 8.208 10.484 6.58 9.899 7.592 9.616 M 7.434 8.896 C 7.434 8.896 7.153 9.105 7.583 9.15 C 8.14 9.207 8.58 9.211 9.341 9.065 C 9.341 9.065 9.447 9.171 9.613 9.23 C 8.055 9.685 6.32 9.266 7.434 8.896" fill="#5382a1" style="" transform="matrix(1, 0, 0, 1, -1.7763568394002505e-15, 0)"/>
  <path d="M 8.762 7.674 C 9.079 8.038 8.679 8.368 8.679 8.368 C 8.679 8.368 9.485 7.952 9.114 7.431 C 8.769 6.944 8.504 6.704 9.939 5.871 C 9.939 5.871 7.686 6.434 8.762 7.674" fill="#e76f00" style="" transform="matrix(1, 0, 0, 1, -1.7763568394002505e-15, 0)"/>
  <path d="M 10.465 10.15 C 10.465 10.15 10.652 10.302 10.26 10.422 C 9.517 10.646 7.166 10.714 6.512 10.431 C 6.278 10.328 6.718 10.187 6.856 10.157 C 7.001 10.125 7.084 10.132 7.084 10.132 C 6.823 9.947 5.395 10.492 6.359 10.649 C 8.986 11.075 11.147 10.457 10.465 10.15 M 7.713 8.15 C 7.713 8.15 6.517 8.433 7.289 8.536 C 7.616 8.58 8.266 8.57 8.872 8.52 C 9.367 8.478 9.863 8.389 9.863 8.389 C 9.863 8.389 9.689 8.464 9.562 8.55 C 8.348 8.869 6.001 8.721 6.677 8.395 C 7.249 8.118 7.713 8.15 7.713 8.15 M 9.859 9.349 C 11.093 8.706 10.523 8.09 10.124 8.173 C 10.026 8.194 9.983 8.212 9.983 8.212 C 9.983 8.212 10.02 8.155 10.089 8.13 C 10.877 7.853 11.483 8.948 9.834 9.381 C 9.834 9.381 9.854 9.365 9.859 9.349" fill="#5382a1" style="" transform="matrix(1, 0, 0, 1, -1.7763568394002505e-15, 0)"/>
  <path d="M 9.114 4.526 C 9.114 4.526 9.799 5.21 8.466 6.262 C 7.398 7.106 8.222 7.587 8.465 8.138 C 7.841 7.574 7.384 7.079 7.691 6.618 C 8.141 5.942 9.391 5.614 9.114 4.526" fill="#e76f00" style="" transform="matrix(1, 0, 0, 1, -1.7763568394002505e-15, 0)"/>
  <path d="M 7.835 11.088 C 9.02 11.163 10.84 11.046 10.883 10.485 C 10.883 10.485 10.8 10.697 9.903 10.865 C 8.891 11.056 7.644 11.034 6.904 10.912 C 6.904 10.912 7.055 11.038 7.835 11.088" fill="#5382a1" style="" transform="matrix(1, 0, 0, 1, -1.7763568394002505e-15, 0)"/>
  <path d="M 7.639 13.231 C 7.528 13.328 7.41 13.382 7.304 13.382 C 7.153 13.382 7.071 13.291 7.071 13.145 C 7.071 12.988 7.159 12.874 7.51 12.874 L 7.639 12.874 L 7.639 13.231 M 7.949 13.578 L 7.949 12.501 C 7.949 12.226 7.792 12.044 7.413 12.044 C 7.193 12.044 6.998 12.099 6.841 12.168 L 6.886 12.359 C 7.01 12.314 7.171 12.271 7.329 12.271 C 7.547 12.271 7.639 12.359 7.639 12.54 L 7.639 12.677 L 7.532 12.677 C 7.002 12.677 6.762 12.882 6.762 13.191 C 6.762 13.457 6.92 13.609 7.216 13.609 C 7.407 13.609 7.549 13.531 7.683 13.415 L 7.706 13.578 L 7.949 13.578 Z M 8.979 13.578 L 8.593 13.578 L 8.13 12.071 L 8.466 12.071 L 8.754 12.998 L 8.818 13.276 C 8.963 12.874 9.066 12.465 9.118 12.071 L 9.445 12.071 C 9.356 12.567 9.199 13.112 8.979 13.578 M 10.455 13.231 C 10.342 13.328 10.224 13.382 10.118 13.382 C 9.967 13.382 9.885 13.291 9.885 13.145 C 9.885 12.988 9.973 12.874 10.324 12.874 L 10.455 12.874 L 10.455 13.231 M 10.763 13.578 L 10.763 12.501 C 10.763 12.226 10.606 12.044 10.227 12.044 C 10.006 12.044 9.813 12.099 9.655 12.168 L 9.7 12.359 C 9.824 12.314 9.985 12.271 10.143 12.271 C 10.361 12.271 10.455 12.359 10.455 12.54 L 10.455 12.677 L 10.346 12.677 C 9.816 12.677 9.576 12.882 9.576 13.191 C 9.576 13.457 9.734 13.609 10.031 13.609 C 10.222 13.609 10.363 13.531 10.497 13.415 L 10.52 13.578 L 10.763 13.578 Z M 6.423 13.835 C 6.336 13.962 6.195 14.065 6.038 14.122 L 5.886 13.943 C 6.005 13.881 6.106 13.783 6.154 13.693 C 6.195 13.612 6.211 13.507 6.211 13.257 L 6.211 11.536 L 6.539 11.536 L 6.539 13.232 C 6.539 13.567 6.512 13.702 6.423 13.835" fill="#e76f00" style="" transform="matrix(1, 0, 0, 1, -1.7763568394002505e-15, 0)"/>
</svg>