<?xml version="1.0" encoding="utf-8"?>
<svg viewBox="0 0 16.933 16.933" xmlns="http://www.w3.org/2000/svg">
  <defs>
    <linearGradient id="linearGradient1911" x1="25.085" x2="25.085" y1="24.031" y2="26.412" gradientTransform="translate(-17.897 -21.385)" gradientUnits="userSpaceOnUse">
      <stop stop-color="#fcbc19" stop-opacity=".99608" offset="0"/>
      <stop stop-color="#f4b61f" offset="1"/>
    </linearGradient>
    <linearGradient id="linearGradient4625" x1=".52918" x2="16.404" y1="5.0665" y2="5.0665" gradientUnits="userSpaceOnUse">
      <stop stop-color="#b78815" offset="0"/>
      <stop stop-color="#e2b24b" stop-opacity="0" offset="1"/>
    </linearGradient>
    <linearGradient id="linearGradient1951" x1="100" x2="133.19" y1="17.453" y2="51.606" gradientTransform="matrix(.26458 0 0 .26458 -20.108 -.13539)" gradientUnits="userSpaceOnUse">
      <stop stop-color="#fce798" offset="0"/>
      <stop stop-color="#ffc937" offset="1"/>
    </linearGradient>
    <linearGradient id="linearGradient11110" x1=".52917" x2="16.404" y1="5.3815" y2="5.3815" gradientUnits="userSpaceOnUse">
      <stop stop-color="#fff" offset="0"/>
      <stop stop-color="#fff" stop-opacity="0" offset="1"/>
    </linearGradient>
  </defs>
  <path d="m1.1975 2.2489c-0.3653 0-0.66145 0.32575-0.66145 0.72759v2.9636c-0.0026 0.02629-0.0072 0.052-0.0072 0.07906v7.9373c0 0.40184 0.29614 0.72759 0.66144 0.72759h14.552c0.36531 0 0.66144-0.32575 0.66144-0.72759v-9.393c0-0.40184-0.29614-0.72759-0.66144-0.72759v5.16e-4h-8.1993l-0.89864-1.1095s-0.36607-0.478-1.0583-0.478h-1.3229z" color="#000000" color-rendering="auto" dominant-baseline="auto" fill="url(#linearGradient1911)" image-rendering="auto" shape-rendering="auto" solid-color="#000000" stop-color="#000000" style="font-feature-settings:normal;font-variant-alternates:normal;font-variant-caps:normal;font-variant-east-asian:normal;font-variant-ligatures:normal;font-variant-numeric:normal;font-variant-position:normal;font-variation-settings:normal;inline-size:0;isolation:auto;mix-blend-mode:normal;shape-margin:0;shape-padding:0;text-decoration-color:#000000;text-decoration-line:none;text-decoration-style:solid;text-indent:0;text-orientation:mixed;text-transform:none;white-space:normal" transform="matrix(1, 0, 0, 1, 1.7763568394002505e-15, 0)"/>
  <g fill="#5e4aa6" stroke-width=".26458" transform="matrix(1, 0, 0, 1, 1.7763568394002505e-15, 0)">
    <circle cx="-330.35" cy="-328.38" r="0"/>
    <circle cx="-312.11" cy="-326.25" r="0"/>
    <circle cx="-306.02" cy="-333.07" r="0"/>
    <circle cx="-308.84" cy="-326.01" r="0"/>
    <g transform="translate(.000295 -.00032978)">
      <circle cx="-330.35" cy="-328.38" r="0"/>
      <circle cx="-312.11" cy="-326.25" r="0"/>
      <circle cx="-306.02" cy="-333.07" r="0"/>
      <circle cx="-308.84" cy="-326.01" r="0"/>
      <circle cx="-328.8" cy="-330.45" r="0"/>
    </g>
    <circle cx="-330.35" cy="-328.38" r="0"/>
    <circle cx="-312.11" cy="-326.25" r="0"/>
    <circle cx="-306.02" cy="-333.07" r="0"/>
    <circle cx="-308.84" cy="-326.01" r="0"/>
    <circle cx="-328.8" cy="-330.45" r="0"/>
    <g transform="translate(2.95e-4,-3.2978e-4)">
      <circle cx="-330.35" cy="-328.38" r="0"/>
      <circle cx="-312.11" cy="-326.25" r="0"/>
      <circle cx="-306.02" cy="-333.07" r="0"/>
      <circle cx="-308.84" cy="-326.01" r="0"/>
      <circle cx="-328.8" cy="-330.45" r="0"/>
    </g>
  </g>
  <path d="m8.3606 3.8364c-0.11312 0.0018-0.30848-0.01542-0.51986 0.09508-0.73647 0.37946-0.77226 0.59366-1.557 0.71415h-4.9608c-0.21986 0-0.41824 0.08855-0.56171 0.23202-0.13937 0.13936-0.22041 0.33333-0.2253 0.54569v0.2775c0.0049-0.21236 0.08593-0.40633 0.2253-0.54569 0.14347-0.14347 0.34185-0.23202 0.56171-0.23202h4.9608c0.78472-0.1205 0.82051-0.33469 1.557-0.71415 0.21138-0.1105 0.40673-0.09328 0.51986-0.09508h7.3828c0.18216 3.65e-4 0.3472 0.08101 0.46663 0.21239 0.1197 0.13167 0.19378 0.31377 0.19378 0.51469v-0.2775c0-0.20092-0.07408-0.38302-0.19378-0.51469-0.11943-0.13137-0.28447-0.21202-0.46663-0.21239h-1.1652zm-7.8247 2.1037c-0.0026 0.02629-0.0067 0.05201-0.0067 0.07906v0.2775c0-0.02705 0.0041-0.05277 0.0067-0.07906z" fill="url(#linearGradient4625)" opacity=".2" stroke-width=".26458" transform="matrix(1, 0, 0, 1, 1.7763568394002505e-15, 0)"/>
  <path d="m0.52916 13.674v0.28215c0 0.20092 0.07357 0.3825 0.19327 0.51417s0.28553 0.21342 0.46818 0.21342h14.552c0.18265 0 0.34796-0.08175 0.46766-0.21342s0.19378-0.31325 0.19378-0.51417v-0.28215c0 0.20092-0.07409 0.3825-0.19378 0.51417-0.1197 0.13167-0.28501 0.21342-0.46766 0.21342h-14.552c-0.18265 0-0.34848-0.08176-0.46818-0.21342s-0.19327-0.31325-0.19327-0.51417z" fill="#e4a729" fill-opacity=".99608" stroke-width=".26458" transform="matrix(1, 0, 0, 1, 1.7763568394002505e-15, 0)"/>
  <path d="m7.542 4.0979s-0.35919 0.47868-1.1575 0.79218c-0.03271 0.00587-0.06509 0.011575-0.10077 0.017052h-4.9608c-0.21986 0-0.41824 0.088552-0.56171 0.23202-0.13937 0.13936-0.22042 0.33333-0.2253 0.54569v0.51675c-0.0026 0.026291-0.0067 0.052014-0.0067 0.079064v7.3953c0 0.20092 0.07357 0.3825 0.19327 0.51417 0.1197 0.13167 0.28553 0.21342 0.46818 0.21342h14.552c0.18265 0 0.34796-0.08175 0.46766-0.21342 0.1197-0.13167 0.19378-0.31325 0.19378-0.51417v-8.851c0-0.20092-0.07408-0.38302-0.19378-0.51469-0.11945-0.13137-0.28449-0.21202-0.46665-0.21239h-7.4821z" fill="url(#linearGradient1951)" transform="matrix(1, 0, 0, 1, 1.7763568394002505e-15, 0)"/>
  <path d="m7.542 4.0979s-0.35919 0.47868-1.1575 0.79218c-0.03271 0.00587-0.06509 0.011575-0.10077 0.017052h-4.9608c-0.21986 0-0.41824 0.088552-0.56171 0.23202-0.13937 0.13936-0.22041 0.33333-0.2253 0.54569v0.38446c0.0049-0.21236 0.08593-0.40633 0.2253-0.54569 0.14347-0.14347 0.34185-0.23202 0.56171-0.23202h4.9608c0.03568-0.00548 0.06806-0.011184 0.10077-0.017052 0.75911-0.26303 1.2883-0.79218 1.2883-0.79218h8.0707c0.18216 3.704e-4 0.34718 0.081016 0.46663 0.21239 0.1197 0.13167 0.19378 0.31377 0.19378 0.51469v-0.38446c0-0.20092-0.07408-0.38302-0.19378-0.51469-0.11945-0.13137-0.28447-0.21202-0.46663-0.21239h-7.4821zm-7.0062 2.1037c-0.0026 0.026291-0.0067 0.052013-0.0067 0.079063v0.38447c0-0.02705 0.0041-0.052773 0.0067-0.079063z" fill="url(#linearGradient11110)" opacity=".3" transform="matrix(1, 0, 0, 1, 1.7763568394002505e-15, 0)"/>
  <text style="white-space: pre; fill: rgb(51, 51, 51); font-family: Arial, sans-serif; font-size: 0.8px;" x="3.03" y="9.269" transform="matrix(1, 0, 0, 1, 1.7763568394002505e-15, 0)"> </text>
  <path class="st0" d="M 12.812 13.86 L 4.122 13.86 L 4.122 5.426 C 4.133 5.426 4.145 5.428 4.156 5.428 L 12.812 5.428 L 12.812 13.86 Z" style="fill: rgb(225, 19, 31);" transform="matrix(1, 0, 0, 1, 1.7763568394002505e-15, 0)"/>
  <path class="st0" d="M 8.729 8.08 L 8.729 10.662 C 8.729 10.744 8.734 10.749 8.814 10.749 C 9.065 10.749 9.316 10.75 9.567 10.747 C 9.657 10.746 9.749 10.743 9.837 10.723 C 10.5 10.59 10.944 10.044 10.946 9.369 C 10.947 8.514 10.946 7.66 10.946 6.806 C 10.946 6.742 10.943 6.676 10.934 6.612 C 10.851 5.942 10.275 5.431 9.601 5.428 C 9.345 5.426 9.091 5.428 8.835 5.428 C 8.729 5.428 8.729 5.428 8.729 5.53 L 8.729 8.08 Z M 8.206 8.093 L 8.206 5.524 C 8.206 5.428 8.205 5.428 8.113 5.428 C 7.745 5.428 7.375 5.422 7.006 5.429 C 6.487 5.436 6.094 5.669 5.827 6.113 C 5.692 6.338 5.644 6.586 5.644 6.845 C 5.645 7.659 5.644 8.473 5.644 9.287 C 5.644 9.349 5.645 9.413 5.65 9.477 C 5.693 10.178 6.271 10.733 6.974 10.746 C 7.349 10.752 7.725 10.747 8.1 10.747 C 8.205 10.747 8.205 10.747 8.205 10.641 C 8.206 9.792 8.206 8.942 8.206 8.093 Z M 6.517 13.004 C 6.527 13.033 6.533 13.046 6.536 13.06 C 6.601 13.289 6.667 13.517 6.726 13.747 C 6.741 13.802 6.765 13.823 6.821 13.818 C 6.878 13.813 6.935 13.813 6.992 13.818 C 7.04 13.821 7.058 13.802 7.069 13.759 C 7.175 13.377 7.283 12.996 7.39 12.616 C 7.396 12.599 7.397 12.581 7.404 12.557 C 7.328 12.557 7.261 12.56 7.193 12.555 C 7.146 12.554 7.127 12.568 7.115 12.615 C 7.051 12.866 6.983 13.115 6.918 13.366 C 6.911 13.389 6.905 13.413 6.894 13.453 C 6.881 13.414 6.874 13.395 6.87 13.374 C 6.805 13.152 6.741 12.93 6.675 12.708 C 6.63 12.555 6.63 12.558 6.47 12.555 C 6.417 12.554 6.398 12.575 6.385 12.623 C 6.314 12.874 6.24 13.125 6.168 13.376 C 6.162 13.397 6.154 13.417 6.142 13.45 C 6.067 13.162 5.995 12.888 5.92 12.613 C 5.916 12.594 5.9 12.562 5.887 12.562 C 5.805 12.557 5.721 12.56 5.634 12.56 C 5.64 12.587 5.644 12.605 5.647 12.621 C 5.74 12.954 5.833 13.285 5.928 13.617 C 5.946 13.681 5.948 13.771 5.991 13.804 C 6.038 13.837 6.123 13.82 6.192 13.82 C 6.308 13.82 6.284 13.831 6.313 13.728 C 6.38 13.491 6.446 13.257 6.517 13.004 Z M 11.053 12.562 L 11.053 13.755 C 11.053 13.78 11.041 13.815 11.086 13.817 C 11.16 13.818 11.232 13.817 11.314 13.817 L 11.314 13.319 L 11.895 13.319 L 11.895 13.817 C 11.971 13.817 12.039 13.815 12.107 13.817 C 12.146 13.818 12.158 13.802 12.158 13.765 C 12.157 13.691 12.158 13.617 12.158 13.543 C 12.158 13.236 12.158 12.927 12.157 12.62 C 12.157 12.599 12.142 12.56 12.133 12.56 C 12.054 12.555 11.975 12.557 11.89 12.557 L 11.89 13.046 L 11.316 13.046 L 11.316 12.56 C 11.227 12.562 11.145 12.562 11.053 12.562 Z M 4.331 13.723 C 4.424 13.755 4.508 13.791 4.595 13.811 C 4.82 13.866 5.047 13.871 5.266 13.784 C 5.415 13.725 5.491 13.61 5.494 13.447 C 5.496 13.285 5.405 13.196 5.269 13.146 C 5.169 13.108 5.063 13.084 4.96 13.057 C 4.867 13.031 4.772 13.014 4.68 12.983 C 4.655 12.973 4.622 12.93 4.622 12.904 C 4.624 12.874 4.655 12.841 4.679 12.816 C 4.692 12.801 4.716 12.795 4.736 12.793 C 4.82 12.785 4.906 12.769 4.987 12.779 C 5.092 12.79 5.197 12.823 5.307 12.847 C 5.333 12.782 5.362 12.711 5.393 12.637 C 5.243 12.578 5.097 12.545 4.944 12.539 C 4.788 12.533 4.637 12.562 4.505 12.65 C 4.397 12.722 4.338 12.82 4.35 12.954 C 4.363 13.081 4.441 13.159 4.552 13.197 C 4.658 13.234 4.77 13.258 4.879 13.285 C 4.97 13.308 5.062 13.322 5.148 13.353 C 5.182 13.366 5.225 13.413 5.227 13.445 C 5.229 13.482 5.191 13.524 5.164 13.557 C 5.15 13.575 5.121 13.585 5.097 13.586 C 4.997 13.594 4.894 13.614 4.796 13.601 C 4.68 13.586 4.566 13.543 4.445 13.511 C 4.413 13.573 4.376 13.641 4.331 13.723 Z M 10.571 13.385 C 10.366 13.606 10.138 13.638 9.958 13.475 C 9.799 13.331 9.786 13.089 9.931 12.932 C 10.005 12.85 10.099 12.806 10.21 12.803 C 10.363 12.798 10.479 12.871 10.569 12.996 C 10.64 12.935 10.706 12.875 10.77 12.819 C 10.617 12.575 10.304 12.462 10.024 12.547 C 9.726 12.637 9.538 12.909 9.549 13.231 C 9.559 13.519 9.778 13.778 10.064 13.845 C 10.336 13.908 10.65 13.783 10.767 13.559 C 10.705 13.501 10.638 13.445 10.571 13.385 Z M 8.693 12.829 L 8.693 12.914 C 8.693 13.192 8.695 13.471 8.692 13.749 C 8.692 13.799 8.703 13.823 8.758 13.818 C 8.806 13.813 8.855 13.813 8.903 13.818 C 8.958 13.823 8.97 13.8 8.968 13.749 C 8.967 13.469 8.967 13.189 8.967 12.908 L 8.967 12.829 C 9.081 12.829 9.188 12.827 9.292 12.83 C 9.34 12.832 9.363 12.819 9.358 12.768 C 9.353 12.719 9.353 12.671 9.358 12.623 C 9.363 12.568 9.34 12.555 9.289 12.557 C 8.978 12.558 8.669 12.558 8.359 12.558 C 8.338 12.558 8.319 12.56 8.298 12.562 L 8.298 12.83 C 8.432 12.829 8.557 12.829 8.693 12.829 Z M 7.719 12.562 L 7.719 13.813 L 7.994 13.813 L 7.994 12.562 L 7.719 12.562 Z M 11.497 11.891 C 11.497 12.087 11.653 12.245 11.848 12.246 C 12.044 12.248 12.205 12.086 12.204 11.887 C 12.202 11.691 12.044 11.532 11.851 11.53 C 11.656 11.53 11.497 11.691 11.497 11.891 Z M 6.138 11.56 L 6.138 12.221 L 6.273 12.221 L 6.273 11.793 C 6.295 11.822 6.307 11.835 6.316 11.847 C 6.398 11.958 6.485 12.07 6.562 12.184 C 6.603 12.242 6.656 12.224 6.704 12.219 C 6.715 12.217 6.728 12.166 6.729 12.137 C 6.731 11.967 6.731 11.796 6.731 11.625 C 6.731 11.603 6.729 11.581 6.728 11.558 L 6.591 11.558 L 6.591 11.986 C 6.498 11.86 6.408 11.753 6.334 11.637 C 6.282 11.56 6.224 11.539 6.138 11.56 Z M 4.984 12.217 L 4.984 11.558 L 4.852 11.558 L 4.852 11.967 C 4.754 11.857 4.662 11.746 4.585 11.627 C 4.536 11.55 4.474 11.545 4.396 11.56 L 4.396 12.221 L 4.532 12.221 L 4.532 11.788 C 4.627 11.917 4.716 12.028 4.793 12.145 C 4.841 12.216 4.896 12.243 4.984 12.217 Z M 9.76 11.556 L 9.76 11.984 C 9.664 11.854 9.578 11.74 9.491 11.625 C 9.43 11.544 9.409 11.537 9.3 11.564 C 9.3 11.774 9.3 11.982 9.301 12.193 C 9.301 12.203 9.321 12.221 9.332 12.222 C 9.366 12.226 9.402 12.224 9.442 12.224 L 9.442 11.793 C 9.463 11.817 9.474 11.83 9.485 11.844 C 9.562 11.947 9.638 12.05 9.715 12.153 C 9.775 12.233 9.796 12.24 9.895 12.213 L 9.895 11.554 C 9.852 11.556 9.813 11.556 9.76 11.556 Z M 10.454 11.889 C 10.454 11.984 10.455 12.079 10.454 12.174 C 10.454 12.213 10.466 12.227 10.505 12.226 C 10.582 12.224 10.661 12.227 10.74 12.224 C 10.92 12.217 11.063 12.083 11.075 11.913 C 11.086 11.738 10.97 11.588 10.79 11.561 C 10.693 11.547 10.592 11.553 10.494 11.554 C 10.481 11.554 10.458 11.587 10.458 11.603 C 10.452 11.7 10.454 11.795 10.454 11.889 Z M 8.755 11.553 C 8.6 11.553 8.449 11.554 8.298 11.551 C 8.249 11.55 8.237 11.566 8.237 11.612 C 8.24 11.768 8.238 11.924 8.238 12.08 C 8.238 12.224 8.238 12.224 8.38 12.224 L 8.753 12.224 L 8.753 12.092 L 8.383 12.092 L 8.383 11.941 L 8.726 11.941 L 8.726 11.815 L 8.381 11.815 L 8.381 11.679 L 8.755 11.679 L 8.755 11.553 Z M 7.199 11.701 L 7.289 11.701 C 7.423 11.703 7.404 11.685 7.405 11.82 C 7.407 11.931 7.405 12.044 7.405 12.155 C 7.405 12.177 7.408 12.198 7.41 12.221 L 7.555 12.221 L 7.555 11.7 L 7.754 11.7 L 7.754 11.558 L 7.197 11.558 C 7.199 11.606 7.199 11.649 7.199 11.701 Z M 5.491 11.553 L 5.491 12.221 L 5.631 12.221 L 5.631 11.556 C 5.61 11.554 5.594 11.553 5.576 11.553 L 5.491 11.553 Z M 12.474 13.63 C 12.454 13.729 12.463 13.792 12.501 13.818 C 12.503 13.783 12.504 13.75 12.506 13.72 C 12.528 13.752 12.549 13.784 12.572 13.817 C 12.586 13.787 12.603 13.759 12.617 13.731 C 12.619 13.729 12.623 13.729 12.623 13.729 C 12.63 13.76 12.635 13.789 12.641 13.818 C 12.649 13.817 12.656 13.815 12.664 13.813 L 12.664 13.631 C 12.575 13.614 12.607 13.71 12.567 13.736 C 12.528 13.707 12.559 13.615 12.474 13.63 Z M 12.329 13.678 C 12.331 13.723 12.334 13.768 12.335 13.815 C 12.345 13.815 12.355 13.817 12.363 13.817 C 12.366 13.783 12.365 13.749 12.374 13.718 C 12.384 13.689 12.406 13.664 12.422 13.636 L 12.273 13.636 C 12.271 13.641 12.271 13.648 12.27 13.652 C 12.29 13.661 12.31 13.668 12.329 13.678 Z" style="fill: rgb(225, 19, 31);" transform="matrix(1, 0, 0, 1, 1.7763568394002505e-15, 0)"/>
  <path class="st1" d="M 8.729 8.08 L 8.729 5.53 C 8.729 5.428 8.729 5.428 8.835 5.428 C 9.091 5.428 9.345 5.426 9.601 5.428 C 10.275 5.431 10.851 5.942 10.934 6.612 C 10.943 6.676 10.946 6.742 10.946 6.806 C 10.946 7.66 10.947 8.514 10.946 9.369 C 10.946 10.044 10.5 10.59 9.837 10.723 C 9.749 10.741 9.657 10.746 9.567 10.747 C 9.316 10.75 9.065 10.749 8.814 10.749 C 8.734 10.749 8.729 10.744 8.729 10.662 L 8.729 8.08 Z M 10.313 8.355 C 10.313 8.056 10.078 7.821 9.783 7.821 C 9.488 7.821 9.252 8.056 9.25 8.35 C 9.249 8.649 9.484 8.887 9.779 8.889 C 10.075 8.889 10.312 8.653 10.313 8.355 Z M 8.206 8.093 L 8.206 10.643 C 8.206 10.749 8.206 10.749 8.102 10.749 C 7.727 10.749 7.35 10.753 6.976 10.747 C 6.271 10.734 5.695 10.179 5.652 9.478 C 5.649 9.415 5.645 9.351 5.645 9.288 L 5.645 6.847 C 5.645 6.586 5.693 6.338 5.829 6.114 C 6.096 5.672 6.488 5.439 7.006 5.429 C 7.375 5.422 7.745 5.428 8.113 5.428 C 8.205 5.428 8.206 5.429 8.206 5.524 L 8.206 8.093 Z M 7.77 5.863 L 6.913 5.863 C 6.882 5.863 6.85 5.872 6.82 5.878 C 6.372 5.976 6.078 6.346 6.078 6.82 C 6.077 7.664 6.078 8.508 6.078 9.351 C 6.078 9.415 6.083 9.483 6.094 9.545 C 6.182 10.006 6.551 10.309 7.019 10.313 C 7.249 10.315 7.479 10.313 7.709 10.313 C 7.729 10.313 7.749 10.309 7.77 10.309 L 7.77 5.863 Z M 6.517 13.004 C 6.446 13.257 6.38 13.491 6.313 13.726 C 6.284 13.829 6.308 13.818 6.192 13.818 C 6.123 13.818 6.038 13.836 5.991 13.802 C 5.948 13.77 5.946 13.68 5.928 13.615 C 5.833 13.284 5.74 12.951 5.647 12.62 C 5.642 12.603 5.64 12.587 5.634 12.558 C 5.721 12.558 5.805 12.557 5.887 12.56 C 5.9 12.56 5.916 12.592 5.92 12.612 C 5.995 12.885 6.067 13.16 6.142 13.448 C 6.154 13.416 6.162 13.395 6.168 13.374 C 6.24 13.123 6.314 12.874 6.385 12.621 C 6.398 12.573 6.416 12.552 6.47 12.554 C 6.63 12.557 6.63 12.554 6.675 12.707 C 6.739 12.928 6.805 13.15 6.87 13.373 C 6.876 13.392 6.882 13.411 6.894 13.451 C 6.905 13.411 6.913 13.389 6.918 13.364 C 6.983 13.115 7.053 12.864 7.115 12.613 C 7.127 12.566 7.146 12.552 7.193 12.554 C 7.261 12.557 7.328 12.555 7.404 12.555 C 7.399 12.579 7.396 12.597 7.39 12.615 C 7.283 12.996 7.175 13.376 7.069 13.757 C 7.056 13.8 7.038 13.82 6.992 13.817 C 6.935 13.811 6.878 13.811 6.821 13.817 C 6.765 13.821 6.741 13.802 6.726 13.746 C 6.665 13.516 6.599 13.287 6.536 13.059 C 6.533 13.046 6.527 13.033 6.517 13.004 Z M 11.053 12.562 L 11.316 12.562 L 11.316 13.047 L 11.89 13.047 L 11.89 12.558 C 11.975 12.558 12.054 12.557 12.133 12.562 C 12.142 12.562 12.157 12.6 12.157 12.621 C 12.158 12.928 12.158 13.237 12.158 13.545 C 12.158 13.618 12.157 13.692 12.158 13.767 C 12.16 13.805 12.146 13.82 12.107 13.818 C 12.038 13.817 11.968 13.818 11.895 13.818 L 11.895 13.321 L 11.314 13.321 L 11.314 13.818 L 11.086 13.818 C 11.041 13.818 11.053 13.781 11.053 13.757 L 11.053 12.941 L 11.053 12.562 Z M 4.331 13.723 C 4.376 13.641 4.415 13.573 4.447 13.514 C 4.567 13.546 4.68 13.59 4.798 13.604 C 4.896 13.617 4.997 13.597 5.099 13.59 C 5.123 13.588 5.151 13.577 5.166 13.56 C 5.194 13.527 5.23 13.485 5.229 13.448 C 5.227 13.416 5.185 13.369 5.15 13.356 C 5.063 13.326 4.971 13.311 4.882 13.289 C 4.772 13.261 4.659 13.237 4.553 13.2 C 4.441 13.162 4.363 13.083 4.352 12.957 C 4.339 12.824 4.397 12.724 4.506 12.653 C 4.64 12.565 4.79 12.536 4.946 12.542 C 5.099 12.549 5.245 12.581 5.394 12.64 C 5.364 12.714 5.335 12.785 5.309 12.85 C 5.198 12.826 5.095 12.793 4.989 12.782 C 4.907 12.772 4.822 12.789 4.738 12.796 C 4.719 12.798 4.693 12.806 4.68 12.819 C 4.656 12.845 4.624 12.877 4.624 12.908 C 4.622 12.935 4.655 12.976 4.682 12.986 C 4.774 13.017 4.868 13.034 4.962 13.06 C 5.065 13.088 5.171 13.112 5.27 13.149 C 5.408 13.199 5.497 13.289 5.496 13.45 C 5.494 13.614 5.418 13.728 5.267 13.787 C 5.049 13.875 4.822 13.869 4.597 13.815 C 4.508 13.792 4.424 13.755 4.331 13.723 Z M 10.571 13.385 C 10.638 13.445 10.703 13.501 10.767 13.557 C 10.65 13.781 10.336 13.906 10.064 13.844 C 9.778 13.778 9.559 13.517 9.549 13.229 C 9.538 12.908 9.726 12.636 10.024 12.545 C 10.304 12.46 10.616 12.573 10.77 12.817 C 10.706 12.875 10.64 12.933 10.569 12.994 C 10.481 12.869 10.365 12.798 10.21 12.801 C 10.099 12.805 10.006 12.848 9.931 12.93 C 9.786 13.088 9.799 13.329 9.958 13.474 C 10.138 13.638 10.366 13.606 10.571 13.385 Z M 8.693 12.829 L 8.301 12.829 L 8.301 12.56 C 8.32 12.558 8.341 12.557 8.362 12.557 C 8.673 12.557 8.982 12.558 9.292 12.555 C 9.344 12.555 9.366 12.568 9.361 12.621 C 9.356 12.67 9.356 12.718 9.361 12.766 C 9.366 12.819 9.344 12.83 9.295 12.829 C 9.191 12.826 9.084 12.827 8.97 12.827 L 8.97 12.906 C 8.97 13.186 8.968 13.466 8.972 13.747 C 8.972 13.799 8.961 13.821 8.906 13.817 C 8.858 13.811 8.809 13.811 8.761 13.817 C 8.707 13.821 8.695 13.797 8.695 13.747 C 8.697 13.469 8.697 13.19 8.697 12.912 C 8.693 12.89 8.693 12.866 8.693 12.829 Z M 7.719 12.562 L 7.994 12.562 L 7.994 13.813 L 7.719 13.813 L 7.719 12.562 Z M 11.497 11.891 C 11.497 11.693 11.656 11.53 11.853 11.532 C 12.046 11.534 12.204 11.693 12.205 11.889 C 12.207 12.087 12.044 12.25 11.85 12.248 C 11.653 12.245 11.499 12.087 11.497 11.891 Z M 12.054 11.889 C 12.054 11.778 11.958 11.682 11.846 11.685 C 11.737 11.687 11.647 11.78 11.647 11.889 C 11.647 12 11.735 12.092 11.846 12.094 C 11.958 12.095 12.054 12 12.054 11.889 Z M 6.138 11.56 C 6.224 11.539 6.282 11.56 6.332 11.637 C 6.406 11.753 6.496 11.859 6.589 11.986 L 6.589 11.558 L 6.726 11.558 C 6.728 11.582 6.729 11.603 6.729 11.625 C 6.729 11.796 6.731 11.967 6.728 12.137 C 6.728 12.166 6.715 12.219 6.702 12.219 C 6.654 12.224 6.601 12.242 6.561 12.184 C 6.484 12.07 6.396 11.958 6.314 11.847 C 6.305 11.835 6.294 11.822 6.271 11.793 L 6.271 12.221 L 6.136 12.221 C 6.138 12.002 6.138 11.781 6.138 11.56 Z M 4.984 12.217 C 4.896 12.243 4.841 12.216 4.794 12.144 C 4.717 12.026 4.629 11.917 4.534 11.786 L 4.534 12.219 L 4.397 12.219 L 4.397 11.558 C 4.476 11.544 4.537 11.548 4.587 11.625 C 4.664 11.744 4.754 11.854 4.854 11.965 L 4.854 11.556 L 4.986 11.556 C 4.984 11.778 4.984 11.997 4.984 12.217 Z M 9.76 11.556 L 9.895 11.556 L 9.895 12.214 C 9.796 12.242 9.773 12.233 9.715 12.155 C 9.638 12.052 9.562 11.949 9.485 11.846 C 9.474 11.832 9.463 11.819 9.442 11.795 L 9.442 12.226 C 9.402 12.226 9.368 12.229 9.332 12.224 C 9.321 12.222 9.301 12.205 9.301 12.195 C 9.3 11.984 9.3 11.775 9.3 11.566 C 9.408 11.537 9.429 11.544 9.491 11.627 C 9.577 11.741 9.662 11.856 9.76 11.986 L 9.76 11.556 Z M 10.454 11.889 C 10.454 11.795 10.452 11.7 10.455 11.605 C 10.455 11.587 10.478 11.556 10.491 11.556 C 10.589 11.554 10.69 11.548 10.787 11.563 C 10.968 11.59 11.084 11.74 11.071 11.915 C 11.06 12.084 10.916 12.219 10.736 12.226 C 10.659 12.229 10.58 12.224 10.502 12.227 C 10.463 12.229 10.45 12.214 10.45 12.175 C 10.455 12.079 10.454 11.984 10.454 11.889 Z M 10.595 11.887 L 10.595 11.926 C 10.598 11.976 10.601 12.025 10.606 12.074 C 10.669 12.073 10.733 12.079 10.793 12.068 C 10.873 12.053 10.93 11.967 10.928 11.883 C 10.925 11.798 10.867 11.722 10.783 11.706 C 10.736 11.696 10.687 11.7 10.638 11.696 C 10.604 11.695 10.593 11.709 10.595 11.741 L 10.595 11.887 Z M 8.755 11.553 L 8.755 11.682 L 8.381 11.682 L 8.381 11.819 L 8.726 11.819 L 8.726 11.944 L 8.383 11.944 L 8.383 12.095 L 8.753 12.095 L 8.753 12.227 L 8.38 12.227 C 8.238 12.227 8.238 12.227 8.238 12.084 C 8.238 11.928 8.24 11.772 8.237 11.616 C 8.237 11.569 8.249 11.553 8.298 11.554 C 8.448 11.556 8.599 11.553 8.755 11.553 Z M 7.199 11.701 L 7.199 11.558 L 7.756 11.558 L 7.756 11.7 L 7.556 11.7 L 7.556 12.221 L 7.411 12.221 C 7.41 12.2 7.407 12.177 7.407 12.155 L 7.407 11.82 C 7.405 11.685 7.424 11.703 7.291 11.701 L 7.199 11.701 Z M 5.491 11.553 L 5.576 11.553 C 5.592 11.553 5.608 11.554 5.631 11.556 L 5.631 12.221 L 5.491 12.221 L 5.491 11.553 Z" style="fill: rgb(255, 255, 255);" transform="matrix(1, 0, 0, 1, 1.7763568394002505e-15, 0)"/>
  <path class="st0" d="M 12.474 13.63 C 12.561 13.617 12.528 13.707 12.567 13.736 C 12.607 13.71 12.575 13.615 12.664 13.631 L 12.664 13.813 C 12.656 13.815 12.649 13.817 12.641 13.818 C 12.636 13.789 12.63 13.759 12.623 13.729 C 12.623 13.729 12.619 13.729 12.617 13.731 C 12.601 13.76 12.586 13.787 12.572 13.817 C 12.549 13.784 12.528 13.752 12.506 13.72 C 12.504 13.75 12.503 13.783 12.501 13.818 C 12.463 13.792 12.454 13.729 12.474 13.63 Z M 12.329 13.678 C 12.308 13.668 12.29 13.661 12.271 13.651 C 12.273 13.646 12.273 13.639 12.274 13.634 L 12.424 13.634 C 12.406 13.662 12.385 13.688 12.376 13.716 C 12.366 13.747 12.368 13.783 12.365 13.815 C 12.355 13.815 12.345 13.813 12.337 13.813 C 12.334 13.77 12.332 13.723 12.329 13.678 Z M 10.313 8.355 C 10.313 8.653 10.075 8.889 9.779 8.887 C 9.484 8.886 9.249 8.648 9.25 8.349 C 9.252 8.055 9.488 7.82 9.783 7.82 C 10.078 7.82 10.313 8.056 10.313 8.355 Z M 7.77 5.863 L 7.77 10.309 C 7.749 10.311 7.729 10.313 7.709 10.313 C 7.479 10.313 7.249 10.315 7.019 10.313 C 6.551 10.309 6.184 10.007 6.094 9.545 C 6.081 9.481 6.078 9.415 6.078 9.351 C 6.077 8.508 6.077 7.664 6.078 6.82 C 6.078 6.346 6.372 5.976 6.82 5.878 C 6.85 5.872 6.882 5.863 6.913 5.863 L 7.77 5.863 Z M 6.472 7.025 C 6.472 7.303 6.699 7.53 6.974 7.527 C 7.247 7.523 7.469 7.302 7.471 7.025 C 7.473 6.748 7.247 6.521 6.971 6.52 C 6.694 6.52 6.47 6.746 6.472 7.025 Z M 12.054 11.889 C 12.054 12 11.958 12.097 11.846 12.094 C 11.737 12.092 11.647 12 11.647 11.889 C 11.647 11.778 11.737 11.687 11.846 11.685 C 11.958 11.682 12.054 11.778 12.054 11.889 Z M 10.595 11.887 C 10.595 11.839 10.597 11.791 10.595 11.743 C 10.593 11.711 10.606 11.696 10.638 11.698 C 10.687 11.701 10.736 11.698 10.783 11.707 C 10.867 11.724 10.925 11.799 10.928 11.884 C 10.931 11.967 10.873 12.053 10.793 12.07 C 10.732 12.08 10.669 12.074 10.606 12.076 C 10.603 12.026 10.598 11.978 10.595 11.928 C 10.593 11.913 10.595 11.9 10.595 11.887 Z" style="fill: rgb(225, 19, 31);" transform="matrix(1, 0, 0, 1, 1.7763568394002505e-15, 0)"/>
  <path class="st1" d="M 6.472 7.025 C 6.472 6.746 6.696 6.52 6.971 6.52 C 7.247 6.52 7.473 6.748 7.471 7.025 C 7.469 7.302 7.247 7.523 6.974 7.527 C 6.699 7.53 6.472 7.303 6.472 7.025 Z M 12.314 13.658 L 12.314 13.807 L 12.371 13.807 L 12.371 13.658 L 12.417 13.658 L 12.417 13.612 L 12.26 13.612 L 12.26 13.658 L 12.314 13.658 Z M 12.454 13.62 L 12.454 13.807 L 12.491 13.807 L 12.491 13.699 C 12.491 13.692 12.5 13.691 12.501 13.697 L 12.541 13.807 L 12.58 13.807 L 12.609 13.694 C 12.61 13.691 12.616 13.691 12.616 13.694 L 12.616 13.807 L 12.659 13.807 L 12.659 13.62 L 12.609 13.62 L 12.565 13.739 C 12.564 13.742 12.559 13.742 12.559 13.739 L 12.519 13.62 L 12.454 13.62 Z" style="fill: rgb(255, 255, 255);" transform="matrix(1, 0, 0, 1, 1.7763568394002505e-15, 0)"/>
</svg>