<?xml version="1.0" encoding="utf-8"?>
<svg viewBox="0 0 16.933 16.933" xmlns="http://www.w3.org/2000/svg">
  <defs>
    <linearGradient id="linearGradient1911" x1="25.085" x2="25.085" y1="24.031" y2="26.412" gradientTransform="translate(-17.897 -21.385)" gradientUnits="userSpaceOnUse">
      <stop stop-color="#fcbc19" stop-opacity=".99608" offset="0"/>
      <stop stop-color="#f4b61f" offset="1"/>
    </linearGradient>
    <linearGradient id="linearGradient4625" x1=".52918" x2="16.404" y1="5.0665" y2="5.0665" gradientUnits="userSpaceOnUse">
      <stop stop-color="#b78815" offset="0"/>
      <stop stop-color="#e2b24b" stop-opacity="0" offset="1"/>
    </linearGradient>
    <linearGradient id="linearGradient1951" x1="100" x2="133.19" y1="17.453" y2="51.606" gradientTransform="matrix(.26458 0 0 .26458 -20.108 -.13539)" gradientUnits="userSpaceOnUse">
      <stop stop-color="#fce798" offset="0"/>
      <stop stop-color="#ffc937" offset="1"/>
    </linearGradient>
    <linearGradient id="linearGradient11110" x1=".52917" x2="16.404" y1="5.3815" y2="5.3815" gradientUnits="userSpaceOnUse">
      <stop stop-color="#fff" offset="0"/>
      <stop stop-color="#fff" stop-opacity="0" offset="1"/>
    </linearGradient>
  </defs>
  <path d="m1.1975 2.2489c-0.3653 0-0.66145 0.32575-0.66145 0.72759v2.9636c-0.0026 0.02629-0.0072 0.052-0.0072 0.07906v7.9373c0 0.40184 0.29614 0.72759 0.66144 0.72759h14.552c0.36531 0 0.66144-0.32575 0.66144-0.72759v-9.393c0-0.40184-0.29614-0.72759-0.66144-0.72759v5.16e-4h-8.1993l-0.89864-1.1095s-0.36607-0.478-1.0583-0.478h-1.3229z" color="#000000" color-rendering="auto" dominant-baseline="auto" fill="url(#linearGradient1911)" image-rendering="auto" shape-rendering="auto" solid-color="#000000" stop-color="#000000" style="font-feature-settings:normal;font-variant-alternates:normal;font-variant-caps:normal;font-variant-east-asian:normal;font-variant-ligatures:normal;font-variant-numeric:normal;font-variant-position:normal;font-variation-settings:normal;inline-size:0;isolation:auto;mix-blend-mode:normal;shape-margin:0;shape-padding:0;text-decoration-color:#000000;text-decoration-line:none;text-decoration-style:solid;text-indent:0;text-orientation:mixed;text-transform:none;white-space:normal" transform="matrix(1, 0, 0, 1, 1.7763568394002505e-15, 0)"/>
  <g fill="#5e4aa6" stroke-width=".26458" transform="matrix(1, 0, 0, 1, 1.7763568394002505e-15, 0)">
    <circle cx="-330.35" cy="-328.38" r="0"/>
    <circle cx="-312.11" cy="-326.25" r="0"/>
    <circle cx="-306.02" cy="-333.07" r="0"/>
    <circle cx="-308.84" cy="-326.01" r="0"/>
    <g transform="translate(.000295 -.00032978)">
      <circle cx="-330.35" cy="-328.38" r="0"/>
      <circle cx="-312.11" cy="-326.25" r="0"/>
      <circle cx="-306.02" cy="-333.07" r="0"/>
      <circle cx="-308.84" cy="-326.01" r="0"/>
      <circle cx="-328.8" cy="-330.45" r="0"/>
    </g>
    <circle cx="-330.35" cy="-328.38" r="0"/>
    <circle cx="-312.11" cy="-326.25" r="0"/>
    <circle cx="-306.02" cy="-333.07" r="0"/>
    <circle cx="-308.84" cy="-326.01" r="0"/>
    <circle cx="-328.8" cy="-330.45" r="0"/>
    <g transform="translate(2.95e-4,-3.2978e-4)">
      <circle cx="-330.35" cy="-328.38" r="0"/>
      <circle cx="-312.11" cy="-326.25" r="0"/>
      <circle cx="-306.02" cy="-333.07" r="0"/>
      <circle cx="-308.84" cy="-326.01" r="0"/>
      <circle cx="-328.8" cy="-330.45" r="0"/>
    </g>
  </g>
  <path d="m8.3606 3.8364c-0.11312 0.0018-0.30848-0.01542-0.51986 0.09508-0.73647 0.37946-0.77226 0.59366-1.557 0.71415h-4.9608c-0.21986 0-0.41824 0.08855-0.56171 0.23202-0.13937 0.13936-0.22041 0.33333-0.2253 0.54569v0.2775c0.0049-0.21236 0.08593-0.40633 0.2253-0.54569 0.14347-0.14347 0.34185-0.23202 0.56171-0.23202h4.9608c0.78472-0.1205 0.82051-0.33469 1.557-0.71415 0.21138-0.1105 0.40673-0.09328 0.51986-0.09508h7.3828c0.18216 3.65e-4 0.3472 0.08101 0.46663 0.21239 0.1197 0.13167 0.19378 0.31377 0.19378 0.51469v-0.2775c0-0.20092-0.07408-0.38302-0.19378-0.51469-0.11943-0.13137-0.28447-0.21202-0.46663-0.21239h-1.1652zm-7.8247 2.1037c-0.0026 0.02629-0.0067 0.05201-0.0067 0.07906v0.2775c0-0.02705 0.0041-0.05277 0.0067-0.07906z" fill="url(#linearGradient4625)" opacity=".2" stroke-width=".26458" transform="matrix(1, 0, 0, 1, 1.7763568394002505e-15, 0)"/>
  <path d="m0.52916 13.674v0.28215c0 0.20092 0.07357 0.3825 0.19327 0.51417s0.28553 0.21342 0.46818 0.21342h14.552c0.18265 0 0.34796-0.08175 0.46766-0.21342s0.19378-0.31325 0.19378-0.51417v-0.28215c0 0.20092-0.07409 0.3825-0.19378 0.51417-0.1197 0.13167-0.28501 0.21342-0.46766 0.21342h-14.552c-0.18265 0-0.34848-0.08176-0.46818-0.21342s-0.19327-0.31325-0.19327-0.51417z" fill="#e4a729" fill-opacity=".99608" stroke-width=".26458" transform="matrix(1, 0, 0, 1, 1.7763568394002505e-15, 0)"/>
  <path d="m7.542 4.0979s-0.35919 0.47868-1.1575 0.79218c-0.03271 0.00587-0.06509 0.011575-0.10077 0.017052h-4.9608c-0.21986 0-0.41824 0.088552-0.56171 0.23202-0.13937 0.13936-0.22042 0.33333-0.2253 0.54569v0.51675c-0.0026 0.026291-0.0067 0.052014-0.0067 0.079064v7.3953c0 0.20092 0.07357 0.3825 0.19327 0.51417 0.1197 0.13167 0.28553 0.21342 0.46818 0.21342h14.552c0.18265 0 0.34796-0.08175 0.46766-0.21342 0.1197-0.13167 0.19378-0.31325 0.19378-0.51417v-8.851c0-0.20092-0.07408-0.38302-0.19378-0.51469-0.11945-0.13137-0.28449-0.21202-0.46665-0.21239h-7.4821z" fill="url(#linearGradient1951)" transform="matrix(1, 0, 0, 1, 1.7763568394002505e-15, 0)"/>
  <path d="m7.542 4.0979s-0.35919 0.47868-1.1575 0.79218c-0.03271 0.00587-0.06509 0.011575-0.10077 0.017052h-4.9608c-0.21986 0-0.41824 0.088552-0.56171 0.23202-0.13937 0.13936-0.22041 0.33333-0.2253 0.54569v0.38446c0.0049-0.21236 0.08593-0.40633 0.2253-0.54569 0.14347-0.14347 0.34185-0.23202 0.56171-0.23202h4.9608c0.03568-0.00548 0.06806-0.011184 0.10077-0.017052 0.75911-0.26303 1.2883-0.79218 1.2883-0.79218h8.0707c0.18216 3.704e-4 0.34718 0.081016 0.46663 0.21239 0.1197 0.13167 0.19378 0.31377 0.19378 0.51469v-0.38446c0-0.20092-0.07408-0.38302-0.19378-0.51469-0.11945-0.13137-0.28447-0.21202-0.46663-0.21239h-7.4821zm-7.0062 2.1037c-0.0026 0.026291-0.0067 0.052013-0.0067 0.079063v0.38447c0-0.02705 0.0041-0.052773 0.0067-0.079063z" fill="url(#linearGradient11110)" opacity=".3" transform="matrix(1, 0, 0, 1, 1.7763568394002505e-15, 0)"/>
  <text style="white-space: pre; fill: rgb(51, 51, 51); font-family: Arial, sans-serif; font-size: 0.8px;" x="3.03" y="9.269" transform="matrix(1, 0, 0, 1, 1.7763568394002505e-15, 0)"> </text>
  <g clip-rule="evenodd" fill-rule="evenodd" transform="matrix(0.0444990023970604, 0, 0, 0.0444990023970604, 4.177774968412146, 5.442823967975733)" style="">
    <path d="M0 0h192.756v192.756H0z"/>
    <path d="M87.801 93.814l-24.793-7.437-32.681 11.721-5.635 2.254 23.666 7.437zm40.57 12.172l-35.386 12.397-5.86 1.803-24.117-7.438 40.121-14.426zm15.326 4.508l-41.246 14.875 23.217 7.664 38.09-13.523 4.508-2.03z" fill="#5cb39b"/>
    <path d="M125.668 133.033l-23.217-7.664-23.215 8.34 23.666 7.437zm-62.66-20.285l24.117 7.438c-20.285 6.762-39.894 7.438-59.052 2.254-10.143-2.705-15.777-6.311-16.228-11.27-.226-3.381 4.282-7.213 12.847-10.818l23.666 7.438-6.085 2.254c-1.804.676-3.382 1.578-4.508 2.254-1.128 1.127-.677 2.254 1.126 3.381l9.016 1.127 9.466-1.803z" fill="#ecb731"/>
    <path d="M75.405 82.32l24.341 6.987-11.945 4.507-24.793-7.437zm27.724 16.002c11.719-4.508 22.988-6.762 33.807-6.987 9.467-.451 19.609.676 29.752 4.057 9.016 2.93 13.975 6.311 14.199 10.594.451 4.508-3.605 8.113-12.621 11.494l-24.568-6.986 8.34-3.156c3.381-1.127 4.959-2.254 4.508-3.605-.451-1.127-1.578-2.029-4.057-2.256l-8.34-.449-6.311 1.578-9.467 3.381z" fill="#5175b8"/>
    <path d="M74.954 10.42v122.162l27.948 8.564V39.045c0-2.705.227-4.508 1.354-5.635 1.125-1.577 2.252-1.803 3.83-1.126 3.832 1.126 5.635 4.508 5.635 10.143v41.021c8.564 4.057 16.229 4.508 21.863.226 5.859-4.058 9.016-11.27 9.016-22.089 0-11.27-2.254-19.834-7.213-25.469-4.508-6.086-12.396-11.044-24.117-15.101-15.327-4.96-28.174-8.566-38.316-10.595z" fill="#cc2229"/>
    <g fill="#fff">
      <path d="M12.03 153.711v20.736h2.93v-18.934h3.155c1.353 0 2.479.451 2.93.902.451.676.676 1.803.676 3.607 0 1.576 0 2.703-.226 3.379-.451.902-1.578 1.127-2.704 1.127h-1.804v1.578h2.93c1.804.451 2.931 0 3.382-.676 1.126-1.127 1.803-3.156 1.803-5.635 0-2.705-.676-4.508-2.479-5.408l-3.831-.678H12.03zm15.326 20.736h3.381v-20.736h-3.381zm20.735-15.777l5.636 15.326-3.381 8.34h2.704l10.142-23.666h-3.155l-4.507 11.494-3.607-11.494zm19.61 0l.225 2.254 2.029 1.127 2.254.225c1.127 0 2.254.451 2.93 1.578.676.676 1.126 2.254 1.126 4.057 0 2.705-.45 4.283-1.577 4.959-.226.676-1.127 1.127-2.254 1.578h-6.987v-2.254l4.057.225c1.127 0 2.254-.225 2.93-1.125l.451-2.48v-2.254c-.451-.902-1.127-1.127-1.803-1.127l-2.705-.451c-1.127 0-2.254-.451-2.705-1.127-.676-1.127-1.126-2.254-1.126-4.057 0-2.254.45-3.832 1.126-4.959l2.705-1.127h6.311v1.803h-3.606l-2.705.902zm15.326-3.156h-3.381v15.553l.451 1.352c0 1.127.676 2.029 2.479 2.029h3.155v-2.254l-1.578.225-1.127-1.125v-10.82h3.832v-1.803h-3.832v-3.157zm30.879 18.933h3.381V158.67h-3.381zm0-18.031h3.381v-2.705h-3.381zm8.565 3.381c1.127-1.127 2.705-1.578 4.959-1.578s3.605.451 4.508 1.578c1.352 1.127 2.254 3.381 2.254 6.762s-.902 5.635-2.254 6.762c-1.127.676-2.705 1.127-4.508 1.127-2.254 0-3.832-.451-4.959-1.127-1.127-1.127-1.803-3.381-1.803-6.762s.676-5.635 1.803-6.762zm2.705 1.803c-.902.676-1.127 2.254-1.127 4.959 0 2.479.225 4.057 1.127 4.734.225.9 1.127 1.125 2.254 1.125l2.254-1.125c.676-.678 1.127-2.256 1.127-4.734 0-2.705-.451-4.283-1.127-4.959-.451-.676-1.127-1.127-2.254-1.127s-2.03.451-2.254 1.127zm12.396-2.93v15.777h3.379v-13.523l2.932-.451c1.127 0 1.803.451 2.254 1.127l.676 2.254v10.594h3.156v-11.045c0-1.803-.451-2.93-1.127-4.057-1.127-.676-2.256-1.127-4.283-.676zm-30.203-3.156h-2.93v16.904c.451 1.127 1.127 2.029 2.705 2.029h3.381v-2.254l-1.578.225-1.578-1.125v-10.82h3.832v-1.803h-3.832zm-66.49 3.156c2.029-.451 3.156 0 3.832.676 1.127 1.127 1.578 2.254 1.578 4.057v10.594l-6.085.451-4.057-.902c-1.578-.225-2.254-1.803-2.254-4.057 0-1.803.226-2.93 1.353-3.832 1.127-.676 2.253-1.127 4.282-1.127h1.803v2.029h-1.127c-1.127 0-1.803.227-2.254.676l-.676 1.803 1.127 2.705 2.479.451h2.254v-8.34c0-1.127-.226-1.803-.677-2.254-.45-.676-1.126-1.127-2.253-1.127l-4.057.451v-2.254zm54.544 0c1.579-.451 2.706 0 3.381.676 1.127 1.127 1.578 2.254 1.578 4.057v10.594l-6.086.451-4.057-.902c-1.578-.225-2.254-1.803-2.254-4.057 0-1.803.226-2.93 1.352-3.832 1.127-.676 2.254-1.127 4.283-1.127h1.803v2.029h-1.127l-2.253.676-.677 1.803 1.127 2.705 2.93.451h1.803v-8.34c0-1.127-.225-1.803-.676-2.254-.45-.676-1.127-1.127-2.254-1.127l-4.057.451v-2.254zm58.151 14.875l2.254.902 2.254-.902.902-2.252-.902-2.256c-.225-.225-1.127-.676-2.254-.676-1.803 0-2.93 1.127-2.93 2.932zm.451-4.057l1.803-.676 2.029.676.676 1.805c0 2.027-.676 2.703-2.705 2.703l-1.803-.676-.678-2.027z"/>
      <path d="M155.152 171.742h1.578v1.127h.676v-1.127l-.451-.449v-.227h.451v-.902l-.451-.676h-2.254v3.381h.451zm0-1.578h1.578v.902h-1.578zm24.116-13.748c0 2.479-.449 4.057-1.125 4.732-.902 1.127-2.705 2.029-5.41 2.029h-3.607c-1.125 0-2.252.225-2.703 1.127-.451.225-.678 1.127-.678 2.93v5.184h12.623v2.705h-14.65c-1.352 0-2.254-.676-2.254-2.254v-3.832c.451-3.381.902-5.635 1.578-6.762 1.127-1.127 2.703-1.352 4.508-1.352l1.803-.451 2.027.451 2.932-1.127.676-3.154-.676-2.932a3.734 3.734 0 0 0-2.705-1.127h-9.24v-2.254l9.691-.451c2.705 0 4.508.902 5.635 2.029.674 1.128 1.125 2.482 1.575 4.509z"/>
    </g>
  </g>
</svg>