<?xml version="1.0" encoding="utf-8"?>
<svg viewBox="0 0 16.933 16.933" xmlns="http://www.w3.org/2000/svg">
  <defs>
    <linearGradient id="linearGradient1911" x1="25.085" x2="25.085" y1="24.031" y2="26.412" gradientTransform="translate(-17.897 -21.385)" gradientUnits="userSpaceOnUse">
      <stop stop-color="#fcbc19" stop-opacity=".99608" offset="0"/>
      <stop stop-color="#f4b61f" offset="1"/>
    </linearGradient>
    <linearGradient id="linearGradient4625" x1=".52918" x2="16.404" y1="5.0665" y2="5.0665" gradientUnits="userSpaceOnUse">
      <stop stop-color="#b78815" offset="0"/>
      <stop stop-color="#e2b24b" stop-opacity="0" offset="1"/>
    </linearGradient>
    <linearGradient id="linearGradient1951" x1="100" x2="133.19" y1="17.453" y2="51.606" gradientTransform="matrix(.26458 0 0 .26458 -20.108 -.13539)" gradientUnits="userSpaceOnUse">
      <stop stop-color="#fce798" offset="0"/>
      <stop stop-color="#ffc937" offset="1"/>
    </linearGradient>
    <linearGradient id="linearGradient11110" x1=".52917" x2="16.404" y1="5.3815" y2="5.3815" gradientUnits="userSpaceOnUse">
      <stop stop-color="#fff" offset="0"/>
      <stop stop-color="#fff" stop-opacity="0" offset="1"/>
    </linearGradient>
  </defs>
  <path d="m1.1975 2.2489c-0.3653 0-0.66145 0.32575-0.66145 0.72759v2.9636c-0.0026 0.02629-0.0072 0.052-0.0072 0.07906v7.9373c0 0.40184 0.29614 0.72759 0.66144 0.72759h14.552c0.36531 0 0.66144-0.32575 0.66144-0.72759v-9.393c0-0.40184-0.29614-0.72759-0.66144-0.72759v5.16e-4h-8.1993l-0.89864-1.1095s-0.36607-0.478-1.0583-0.478h-1.3229z" color="#000000" color-rendering="auto" dominant-baseline="auto" fill="url(#linearGradient1911)" image-rendering="auto" shape-rendering="auto" solid-color="#000000" stop-color="#000000" style="font-feature-settings:normal;font-variant-alternates:normal;font-variant-caps:normal;font-variant-east-asian:normal;font-variant-ligatures:normal;font-variant-numeric:normal;font-variant-position:normal;font-variation-settings:normal;inline-size:0;isolation:auto;mix-blend-mode:normal;shape-margin:0;shape-padding:0;text-decoration-color:#000000;text-decoration-line:none;text-decoration-style:solid;text-indent:0;text-orientation:mixed;text-transform:none;white-space:normal" transform="matrix(1, 0, 0, 1, -1.7763568394002505e-15, 0)"/>
  <path d="m8.3606 3.8364c-0.11312 0.0018-0.30848-0.01542-0.51986 0.09508-0.73647 0.37946-0.77226 0.59366-1.557 0.71415h-4.9608c-0.21986 0-0.41824 0.08855-0.56171 0.23202-0.13937 0.13936-0.22041 0.33333-0.2253 0.54569v0.2775c0.0049-0.21236 0.08593-0.40633 0.2253-0.54569 0.14347-0.14347 0.34185-0.23202 0.56171-0.23202h4.9608c0.78472-0.1205 0.82051-0.33469 1.557-0.71415 0.21138-0.1105 0.40673-0.09328 0.51986-0.09508h7.3828c0.18216 3.65e-4 0.3472 0.08101 0.46663 0.21239 0.1197 0.13167 0.19378 0.31377 0.19378 0.51469v-0.2775c0-0.20092-0.07408-0.38302-0.19378-0.51469-0.11943-0.13137-0.28447-0.21202-0.46663-0.21239h-1.1652zm-7.8247 2.1037c-0.0026 0.02629-0.0067 0.05201-0.0067 0.07906v0.2775c0-0.02705 0.0041-0.05277 0.0067-0.07906z" fill="url(#linearGradient4625)" opacity=".2" stroke-width=".26458" transform="matrix(1, 0, 0, 1, -1.7763568394002505e-15, 0)"/>
  <path d="m0.52916 13.674v0.28215c0 0.20092 0.07357 0.3825 0.19327 0.51417s0.28553 0.21342 0.46818 0.21342h14.552c0.18265 0 0.34796-0.08175 0.46766-0.21342s0.19378-0.31325 0.19378-0.51417v-0.28215c0 0.20092-0.07409 0.3825-0.19378 0.51417-0.1197 0.13167-0.28501 0.21342-0.46766 0.21342h-14.552c-0.18265 0-0.34848-0.08176-0.46818-0.21342s-0.19327-0.31325-0.19327-0.51417z" fill="#e4a729" fill-opacity=".99608" stroke-width=".26458" transform="matrix(1, 0, 0, 1, -1.7763568394002505e-15, 0)"/>
  <path d="m7.542 4.0979s-0.35919 0.47868-1.1575 0.79218c-0.03271 0.00587-0.06509 0.011575-0.10077 0.017052h-4.9608c-0.21986 0-0.41824 0.088552-0.56171 0.23202-0.13937 0.13936-0.22042 0.33333-0.2253 0.54569v0.51675c-0.0026 0.026291-0.0067 0.052014-0.0067 0.079064v7.3953c0 0.20092 0.07357 0.3825 0.19327 0.51417 0.1197 0.13167 0.28553 0.21342 0.46818 0.21342h14.552c0.18265 0 0.34796-0.08175 0.46766-0.21342 0.1197-0.13167 0.19378-0.31325 0.19378-0.51417v-8.851c0-0.20092-0.07408-0.38302-0.19378-0.51469-0.11945-0.13137-0.28449-0.21202-0.46665-0.21239h-7.4821z" fill="url(#linearGradient1951)" transform="matrix(1, 0, 0, 1, -1.7763568394002505e-15, 0)"/>
  <path d="m7.542 4.0979s-0.35919 0.47868-1.1575 0.79218c-0.03271 0.00587-0.06509 0.011575-0.10077 0.017052h-4.9608c-0.21986 0-0.41824 0.088552-0.56171 0.23202-0.13937 0.13936-0.22041 0.33333-0.2253 0.54569v0.38446c0.0049-0.21236 0.08593-0.40633 0.2253-0.54569 0.14347-0.14347 0.34185-0.23202 0.56171-0.23202h4.9608c0.03568-0.00548 0.06806-0.011184 0.10077-0.017052 0.75911-0.26303 1.2883-0.79218 1.2883-0.79218h8.0707c0.18216 3.704e-4 0.34718 0.081016 0.46663 0.21239 0.1197 0.13167 0.19378 0.31377 0.19378 0.51469v-0.38446c0-0.20092-0.07408-0.38302-0.19378-0.51469-0.11945-0.13137-0.28447-0.21202-0.46663-0.21239h-7.4821zm-7.0062 2.1037c-0.0026 0.026291-0.0067 0.052013-0.0067 0.079063v0.38447c0-0.02705 0.0041-0.052773 0.0067-0.079063z" fill="url(#linearGradient11110)" opacity=".3" transform="matrix(1, 0, 0, 1, -1.7763568394002505e-15, 0)"/>
  <text style="white-space: pre; fill: rgb(51, 51, 51); font-family: Arial, sans-serif; font-size: 0.8px;" x="3.03" y="9.269" transform="matrix(1, 0, 0, 1, -1.7763568394002505e-15, 0)"> </text>
  <g transform="matrix(0.029573002830147743, 0, 0, 0.029573002830147743, 0.8958690299968275, 7.5702720816473965)" style="">
    <g style="" transform="matrix(1.883567, 0, 0, 1.883567, 105.983713, -53.235425)">
      <path d="M106.250239,69.4471711 C116.718778,69.4471711 131.865107,67.2881917 131.865107,54.8364034 C131.896405,53.875405 131.809279,52.9142084 131.605695,51.9745005 L125.371432,24.8952083 C123.932113,18.9370946 122.668524,16.2341863 112.208352,11.0041005 C104.091259,6.85350441 86.4093853,0 81.1792995,0 C76.3090436,0 74.8948284,6.27610294 69.0873412,6.27610294 C63.4974255,6.27610294 59.3468294,1.58994608 54.1167436,1.58994608 C49.0958613,1.58994608 45.8239196,5.01251422 43.2967422,12.0501176 C43.2967422,12.0501176 36.2591387,31.8993392 35.3553799,34.7779784 C35.2117353,35.3065921 35.1496535,35.8540412 35.1712809,36.4013971 C35.1712809,44.1168196 65.5476191,69.4136985 106.250239,69.4136985 M133.471789,59.8907583 C134.919477,66.7442627 134.919477,67.4639225 134.919477,68.3676814 C134.919477,80.0830735 121.748029,86.5851162 104.434353,86.5851162 C65.3049431,86.6102206 31.0290529,63.6815245 31.0290529,48.5268279 C31.026791,46.4173605 31.4568329,44.3298059 32.2926417,42.3929833 C18.2174348,43.0959069 0,45.606348 0,61.6899078 C0,88.0328039 62.4179358,120.501176 111.840154,120.501176 C149.73108,120.501176 159.287493,103.363231 159.287493,89.8319534 C159.287493,79.1876828 150.082542,67.1040926 133.488525,59.8907583" fill="#EE0000"/>
      <path d="M133.471789,59.8907583 C134.919477,66.7442627 134.919477,67.4639225 134.919477,68.3676814 C134.919477,80.0830735 121.748029,86.5851368 104.434353,86.5851368 C65.3049431,86.6102206 31.0290441,63.6815245 31.0290441,48.5268279 C31.026791,46.4173605 31.4568329,44.3298059 32.2926417,42.3929833 L35.3553799,34.811451 C35.2150906,35.329291 35.1530379,35.8652007 35.1712809,36.4013971 C35.1712809,44.1168196 65.5476191,69.4136985 106.250239,69.4136985 C116.718778,69.4136985 131.865107,67.2547191 131.865107,54.8029309 C131.896405,53.8419325 131.809279,52.8807358 131.605695,51.9410279 L133.471789,59.8907583 Z" fill="#000000"/>
    </g>
  </g>
</svg>