<?xml version="1.0" encoding="utf-8"?>
<svg viewBox="0 0 16.933 16.933" xmlns="http://www.w3.org/2000/svg">
  <defs>
    <linearGradient id="linearGradient1911" x1="25.085" x2="25.085" y1="24.031" y2="26.412" gradientTransform="translate(-17.897 -21.385)" gradientUnits="userSpaceOnUse">
      <stop stop-color="#fcbc19" stop-opacity=".99608" offset="0"/>
      <stop stop-color="#f4b61f" offset="1"/>
    </linearGradient>
    <linearGradient id="linearGradient4625" x1=".52918" x2="16.404" y1="5.0665" y2="5.0665" gradientUnits="userSpaceOnUse">
      <stop stop-color="#b78815" offset="0"/>
      <stop stop-color="#e2b24b" stop-opacity="0" offset="1"/>
    </linearGradient>
    <linearGradient id="linearGradient1951" x1="100" x2="133.19" y1="17.453" y2="51.606" gradientTransform="matrix(.26458 0 0 .26458 -20.108 -.13539)" gradientUnits="userSpaceOnUse">
      <stop stop-color="#fce798" offset="0"/>
      <stop stop-color="#ffc937" offset="1"/>
    </linearGradient>
    <linearGradient id="linearGradient11110" x1=".52917" x2="16.404" y1="5.3815" y2="5.3815" gradientUnits="userSpaceOnUse">
      <stop stop-color="#fff" offset="0"/>
      <stop stop-color="#fff" stop-opacity="0" offset="1"/>
    </linearGradient>
  </defs>
  <path d="m1.1975 2.2489c-0.3653 0-0.66145 0.32575-0.66145 0.72759v2.9636c-0.0026 0.02629-0.0072 0.052-0.0072 0.07906v7.9373c0 0.40184 0.29614 0.72759 0.66144 0.72759h14.552c0.36531 0 0.66144-0.32575 0.66144-0.72759v-9.393c0-0.40184-0.29614-0.72759-0.66144-0.72759v5.16e-4h-8.1993l-0.89864-1.1095s-0.36607-0.478-1.0583-0.478h-1.3229z" color="#000000" color-rendering="auto" dominant-baseline="auto" fill="url(#linearGradient1911)" image-rendering="auto" shape-rendering="auto" solid-color="#000000" stop-color="#000000" style="font-feature-settings:normal;font-variant-alternates:normal;font-variant-caps:normal;font-variant-east-asian:normal;font-variant-ligatures:normal;font-variant-numeric:normal;font-variant-position:normal;font-variation-settings:normal;inline-size:0;isolation:auto;mix-blend-mode:normal;shape-margin:0;shape-padding:0;text-decoration-color:#000000;text-decoration-line:none;text-decoration-style:solid;text-indent:0;text-orientation:mixed;text-transform:none;white-space:normal"/>
  <path d="m8.3606 3.8364c-0.11312 0.0018-0.30848-0.01542-0.51986 0.09508-0.73647 0.37946-0.77226 0.59366-1.557 0.71415h-4.9608c-0.21986 0-0.41824 0.08855-0.56171 0.23202-0.13937 0.13936-0.22041 0.33333-0.2253 0.54569v0.2775c0.0049-0.21236 0.08593-0.40633 0.2253-0.54569 0.14347-0.14347 0.34185-0.23202 0.56171-0.23202h4.9608c0.78472-0.1205 0.82051-0.33469 1.557-0.71415 0.21138-0.1105 0.40673-0.09328 0.51986-0.09508h7.3828c0.18216 3.65e-4 0.3472 0.08101 0.46663 0.21239 0.1197 0.13167 0.19378 0.31377 0.19378 0.51469v-0.2775c0-0.20092-0.07408-0.38302-0.19378-0.51469-0.11943-0.13137-0.28447-0.21202-0.46663-0.21239h-1.1652zm-7.8247 2.1037c-0.0026 0.02629-0.0067 0.05201-0.0067 0.07906v0.2775c0-0.02705 0.0041-0.05277 0.0067-0.07906z" fill="url(#linearGradient4625)" opacity=".2" stroke-width=".26458"/>
  <path d="m0.52916 13.674v0.28215c0 0.20092 0.07357 0.3825 0.19327 0.51417s0.28553 0.21342 0.46818 0.21342h14.552c0.18265 0 0.34796-0.08175 0.46766-0.21342s0.19378-0.31325 0.19378-0.51417v-0.28215c0 0.20092-0.07409 0.3825-0.19378 0.51417-0.1197 0.13167-0.28501 0.21342-0.46766 0.21342h-14.552c-0.18265 0-0.34848-0.08176-0.46818-0.21342s-0.19327-0.31325-0.19327-0.51417z" fill="#e4a729" fill-opacity=".99608" stroke-width=".26458"/>
  <path d="m7.542 4.0979s-0.35919 0.47868-1.1575 0.79218c-0.03271 0.00587-0.06509 0.011575-0.10077 0.017052h-4.9608c-0.21986 0-0.41824 0.088552-0.56171 0.23202-0.13937 0.13936-0.22042 0.33333-0.2253 0.54569v0.51675c-0.0026 0.026291-0.0067 0.052014-0.0067 0.079064v7.3953c0 0.20092 0.07357 0.3825 0.19327 0.51417 0.1197 0.13167 0.28553 0.21342 0.46818 0.21342h14.552c0.18265 0 0.34796-0.08175 0.46766-0.21342 0.1197-0.13167 0.19378-0.31325 0.19378-0.51417v-8.851c0-0.20092-0.07408-0.38302-0.19378-0.51469-0.11945-0.13137-0.28449-0.21202-0.46665-0.21239h-7.4821z" fill="url(#linearGradient1951)"/>
  <path d="m7.542 4.0979s-0.35919 0.47868-1.1575 0.79218c-0.03271 0.00587-0.06509 0.011575-0.10077 0.017052h-4.9608c-0.21986 0-0.41824 0.088552-0.56171 0.23202-0.13937 0.13936-0.22041 0.33333-0.2253 0.54569v0.38446c0.0049-0.21236 0.08593-0.40633 0.2253-0.54569 0.14347-0.14347 0.34185-0.23202 0.56171-0.23202h4.9608c0.03568-0.00548 0.06806-0.011184 0.10077-0.017052 0.75911-0.26303 1.2883-0.79218 1.2883-0.79218h8.0707c0.18216 3.704e-4 0.34718 0.081016 0.46663 0.21239 0.1197 0.13167 0.19378 0.31377 0.19378 0.51469v-0.38446c0-0.20092-0.07408-0.38302-0.19378-0.51469-0.11945-0.13137-0.28447-0.21202-0.46663-0.21239h-7.4821zm-7.0062 2.1037c-0.0026 0.026291-0.0067 0.052013-0.0067 0.079063v0.38447c0-0.02705 0.0041-0.052773 0.0067-0.079063z" fill="url(#linearGradient11110)" opacity=".3"/>
  <path class="st0" d="M 4.313 8.261 C 4.313 8.261 4.313 8.261 4.313 8.261 C 4.313 8.261 4.313 8.261 4.313 8.261 Z" style="fill: rgb(32, 51, 102);"/>
  <path class="st0" d="M 4.313 8.261 C 4.313 8.263 4.313 8.263 4.313 8.261 Z" style="fill: rgb(32, 51, 102);"/>
  <path class="st0" d="M 4.314 8.261 C 4.314 8.261 4.314 8.26 4.315 8.26 C 4.314 8.26 4.314 8.26 4.314 8.261 Z" style="fill: rgb(32, 51, 102);"/>
  <path d="M 12.077 6.196 L 4.857 6.196 C 4.417 6.196 4.072 6.543 4.072 6.982 L 4.072 12.945 C 4.072 13.385 4.417 13.731 4.858 13.731 L 12.077 13.731 C 12.517 13.731 12.862 13.385 12.862 12.945 L 12.862 6.982 C 12.855 6.551 12.508 6.203 12.077 6.196 Z M 4.857 6.823 L 12.076 6.823 C 12.17 6.823 12.234 6.887 12.234 6.982 L 12.234 8.536 L 4.7 8.536 L 4.7 6.982 C 4.7 6.902 4.778 6.823 4.858 6.823 L 4.857 6.823 Z M 12.076 13.103 L 4.858 13.103 C 4.762 13.103 4.7 13.04 4.7 12.945 L 4.7 9.179 L 12.234 9.179 L 12.234 12.946 C 12.228 13.031 12.161 13.098 12.077 13.103 L 12.076 13.103 Z" style=""/>
  <path d="M 5.5 7.657 C 5.5 7.959 5.827 8.148 6.089 7.996 C 6.21 7.926 6.285 7.797 6.285 7.657 C 6.285 7.354 5.957 7.166 5.696 7.317 C 5.575 7.386 5.5 7.516 5.5 7.657 Z M 6.63 7.657 C 6.63 7.959 6.957 8.148 7.218 7.996 C 7.34 7.926 7.415 7.797 7.415 7.657 C 7.415 7.354 7.088 7.166 6.827 7.317 C 6.705 7.386 6.63 7.516 6.63 7.657 Z M 7.761 7.657 C 7.761 7.959 8.087 8.148 8.349 7.996 C 8.47 7.926 8.544 7.797 8.544 7.657 C 8.544 7.354 8.218 7.166 7.956 7.317 C 7.836 7.386 7.761 7.516 7.761 7.657 Z M 7.069 10.764 C 7.008 10.626 6.852 10.558 6.709 10.607 L 5.531 11.094 C 5.438 11.141 5.359 11.235 5.359 11.345 C 5.359 11.455 5.422 11.549 5.516 11.596 L 6.677 12.13 C 6.712 12.147 6.749 12.158 6.787 12.161 C 6.897 12.161 6.991 12.098 7.038 12.004 C 7.101 11.866 7.037 11.703 6.897 11.644 L 6.316 11.376 L 6.897 11.141 C 7.054 11.063 7.133 10.905 7.069 10.764 Z M 11.575 11.094 L 10.398 10.607 C 10.256 10.544 10.099 10.623 10.037 10.764 C 9.973 10.905 10.052 11.063 10.194 11.125 L 10.774 11.361 L 10.194 11.628 C 10.054 11.686 9.989 11.85 10.052 11.989 C 10.099 12.084 10.197 12.145 10.303 12.146 C 10.334 12.146 10.382 12.146 10.413 12.114 L 11.575 11.581 C 11.671 11.534 11.731 11.436 11.731 11.329 C 11.747 11.235 11.668 11.141 11.575 11.094 Z M 8.906 9.995 C 8.763 9.949 8.609 10.025 8.561 10.168 L 7.965 11.989 C 7.918 12.131 7.995 12.286 8.137 12.334 C 8.169 12.35 8.2 12.35 8.216 12.35 C 8.326 12.35 8.435 12.271 8.482 12.161 L 9.079 10.34 C 9.125 10.198 9.048 10.043 8.906 9.995 Z" style=""/>
</svg>