<?xml version="1.0" encoding="utf-8"?>
<svg viewBox="0 0 16.933 16.933" xmlns="http://www.w3.org/2000/svg">
  <defs>
    <linearGradient id="linearGradient1911" x1="25.085" x2="25.085" y1="24.031" y2="26.412" gradientTransform="translate(-17.897 -21.385)" gradientUnits="userSpaceOnUse">
      <stop stop-color="#fcbc19" stop-opacity=".99608" offset="0"/>
      <stop stop-color="#f4b61f" offset="1"/>
    </linearGradient>
    <linearGradient id="linearGradient4625" x1=".52918" x2="16.404" y1="5.0665" y2="5.0665" gradientUnits="userSpaceOnUse">
      <stop stop-color="#b78815" offset="0"/>
      <stop stop-color="#e2b24b" stop-opacity="0" offset="1"/>
    </linearGradient>
    <linearGradient id="linearGradient1951" x1="100" x2="133.19" y1="17.453" y2="51.606" gradientTransform="matrix(.26458 0 0 .26458 -20.108 -.13539)" gradientUnits="userSpaceOnUse">
      <stop stop-color="#fce798" offset="0"/>
      <stop stop-color="#ffc937" offset="1"/>
    </linearGradient>
    <linearGradient id="linearGradient11110" x1=".52917" x2="16.404" y1="5.3815" y2="5.3815" gradientUnits="userSpaceOnUse">
      <stop stop-color="#fff" offset="0"/>
      <stop stop-color="#fff" stop-opacity="0" offset="1"/>
    </linearGradient>
  </defs>
  <path d="m1.1975 2.2489c-0.3653 0-0.66145 0.32575-0.66145 0.72759v2.9636c-0.0026 0.02629-0.0072 0.052-0.0072 0.07906v7.9373c0 0.40184 0.29614 0.72759 0.66144 0.72759h14.552c0.36531 0 0.66144-0.32575 0.66144-0.72759v-9.393c0-0.40184-0.29614-0.72759-0.66144-0.72759v5.16e-4h-8.1993l-0.89864-1.1095s-0.36607-0.478-1.0583-0.478h-1.3229z" color="#000000" color-rendering="auto" dominant-baseline="auto" fill="url(#linearGradient1911)" image-rendering="auto" shape-rendering="auto" solid-color="#000000" stop-color="#000000" style="font-feature-settings:normal;font-variant-alternates:normal;font-variant-caps:normal;font-variant-east-asian:normal;font-variant-ligatures:normal;font-variant-numeric:normal;font-variant-position:normal;font-variation-settings:normal;inline-size:0;isolation:auto;mix-blend-mode:normal;shape-margin:0;shape-padding:0;text-decoration-color:#000000;text-decoration-line:none;text-decoration-style:solid;text-indent:0;text-orientation:mixed;text-transform:none;white-space:normal" transform="matrix(0.9999999999999999, 0, 0, 0.9999999999999999, 1.7763568394002505e-15, 0)"/>
  <g fill="#5e4aa6" stroke-width=".26458" transform="matrix(0.9999999999999999, 0, 0, 0.9999999999999999, 1.7763568394002505e-15, 0)">
    <circle cx="-330.35" cy="-328.38" r="0"/>
    <circle cx="-312.11" cy="-326.25" r="0"/>
    <circle cx="-306.02" cy="-333.07" r="0"/>
    <circle cx="-308.84" cy="-326.01" r="0"/>
    <g transform="translate(.000295 -.00032978)">
      <circle cx="-330.35" cy="-328.38" r="0"/>
      <circle cx="-312.11" cy="-326.25" r="0"/>
      <circle cx="-306.02" cy="-333.07" r="0"/>
      <circle cx="-308.84" cy="-326.01" r="0"/>
      <circle cx="-328.8" cy="-330.45" r="0"/>
    </g>
    <circle cx="-330.35" cy="-328.38" r="0"/>
    <circle cx="-312.11" cy="-326.25" r="0"/>
    <circle cx="-306.02" cy="-333.07" r="0"/>
    <circle cx="-308.84" cy="-326.01" r="0"/>
    <circle cx="-328.8" cy="-330.45" r="0"/>
    <g transform="translate(2.95e-4,-3.2978e-4)">
      <circle cx="-330.35" cy="-328.38" r="0"/>
      <circle cx="-312.11" cy="-326.25" r="0"/>
      <circle cx="-306.02" cy="-333.07" r="0"/>
      <circle cx="-308.84" cy="-326.01" r="0"/>
      <circle cx="-328.8" cy="-330.45" r="0"/>
    </g>
  </g>
  <path d="m8.3606 3.8364c-0.11312 0.0018-0.30848-0.01542-0.51986 0.09508-0.73647 0.37946-0.77226 0.59366-1.557 0.71415h-4.9608c-0.21986 0-0.41824 0.08855-0.56171 0.23202-0.13937 0.13936-0.22041 0.33333-0.2253 0.54569v0.2775c0.0049-0.21236 0.08593-0.40633 0.2253-0.54569 0.14347-0.14347 0.34185-0.23202 0.56171-0.23202h4.9608c0.78472-0.1205 0.82051-0.33469 1.557-0.71415 0.21138-0.1105 0.40673-0.09328 0.51986-0.09508h7.3828c0.18216 3.65e-4 0.3472 0.08101 0.46663 0.21239 0.1197 0.13167 0.19378 0.31377 0.19378 0.51469v-0.2775c0-0.20092-0.07408-0.38302-0.19378-0.51469-0.11943-0.13137-0.28447-0.21202-0.46663-0.21239h-1.1652zm-7.8247 2.1037c-0.0026 0.02629-0.0067 0.05201-0.0067 0.07906v0.2775c0-0.02705 0.0041-0.05277 0.0067-0.07906z" fill="url(#linearGradient4625)" opacity=".2" stroke-width=".26458" transform="matrix(0.9999999999999999, 0, 0, 0.9999999999999999, 1.7763568394002505e-15, 0)"/>
  <path d="m0.52916 13.674v0.28215c0 0.20092 0.07357 0.3825 0.19327 0.51417s0.28553 0.21342 0.46818 0.21342h14.552c0.18265 0 0.34796-0.08175 0.46766-0.21342s0.19378-0.31325 0.19378-0.51417v-0.28215c0 0.20092-0.07409 0.3825-0.19378 0.51417-0.1197 0.13167-0.28501 0.21342-0.46766 0.21342h-14.552c-0.18265 0-0.34848-0.08176-0.46818-0.21342s-0.19327-0.31325-0.19327-0.51417z" fill="#e4a729" fill-opacity=".99608" stroke-width=".26458" transform="matrix(0.9999999999999999, 0, 0, 0.9999999999999999, 1.7763568394002505e-15, 0)"/>
  <path d="m7.542 4.0979s-0.35919 0.47868-1.1575 0.79218c-0.03271 0.00587-0.06509 0.011575-0.10077 0.017052h-4.9608c-0.21986 0-0.41824 0.088552-0.56171 0.23202-0.13937 0.13936-0.22042 0.33333-0.2253 0.54569v0.51675c-0.0026 0.026291-0.0067 0.052014-0.0067 0.079064v7.3953c0 0.20092 0.07357 0.3825 0.19327 0.51417 0.1197 0.13167 0.28553 0.21342 0.46818 0.21342h14.552c0.18265 0 0.34796-0.08175 0.46766-0.21342 0.1197-0.13167 0.19378-0.31325 0.19378-0.51417v-8.851c0-0.20092-0.07408-0.38302-0.19378-0.51469-0.11945-0.13137-0.28449-0.21202-0.46665-0.21239h-7.4821z" fill="url(#linearGradient1951)" transform="matrix(0.9999999999999999, 0, 0, 0.9999999999999999, 1.7763568394002505e-15, 0)"/>
  <path d="m7.542 4.0979s-0.35919 0.47868-1.1575 0.79218c-0.03271 0.00587-0.06509 0.011575-0.10077 0.017052h-4.9608c-0.21986 0-0.41824 0.088552-0.56171 0.23202-0.13937 0.13936-0.22041 0.33333-0.2253 0.54569v0.38446c0.0049-0.21236 0.08593-0.40633 0.2253-0.54569 0.14347-0.14347 0.34185-0.23202 0.56171-0.23202h4.9608c0.03568-0.00548 0.06806-0.011184 0.10077-0.017052 0.75911-0.26303 1.2883-0.79218 1.2883-0.79218h8.0707c0.18216 3.704e-4 0.34718 0.081016 0.46663 0.21239 0.1197 0.13167 0.19378 0.31377 0.19378 0.51469v-0.38446c0-0.20092-0.07408-0.38302-0.19378-0.51469-0.11945-0.13137-0.28447-0.21202-0.46663-0.21239h-7.4821zm-7.0062 2.1037c-0.0026 0.026291-0.0067 0.052013-0.0067 0.079063v0.38447c0-0.02705 0.0041-0.052773 0.0067-0.079063z" fill="url(#linearGradient11110)" opacity=".3" transform="matrix(0.9999999999999999, 0, 0, 0.9999999999999999, 1.7763568394002505e-15, 0)"/>
  <path class="st0" d="M 4.313 8.261 C 4.313 8.261 4.313 8.261 4.313 8.261 C 4.313 8.261 4.313 8.261 4.313 8.261 Z" style="fill: rgb(32, 51, 102);" transform="matrix(0.9999999999999999, 0, 0, 0.9999999999999999, 1.7763568394002505e-15, 0)"/>
  <path class="st0" d="M 4.313 8.261 C 4.313 8.263 4.313 8.263 4.313 8.261 Z" style="fill: rgb(32, 51, 102);" transform="matrix(0.9999999999999999, 0, 0, 0.9999999999999999, 1.7763568394002505e-15, 0)"/>
  <path class="st0" d="M 4.314 8.261 C 4.314 8.261 4.314 8.26 4.315 8.26 C 4.314 8.26 4.314 8.26 4.314 8.261 Z" style="fill: rgb(32, 51, 102);" transform="matrix(0.9999999999999999, 0, 0, 0.9999999999999999, 1.7763568394002505e-15, 0)"/>
  <path class="st0" d="M 6.468 11.03 C 6.39 10.872 6.236 10.634 6.198 10.584 L 6.19 10.604 C 6.188 10.606 6.118 10.911 6.096 11.035 C 6.114 11.025 6.145 11.008 6.172 10.992 L 6.196 10.978 L 6.198 10.996 C 6.206 11.204 6.169 11.385 6.086 11.535 L 6.085 11.537 C 6.07 11.54 6.054 11.543 6.038 11.544 L 5.77 11.345 L 5.77 10.351 C 5.77 10.338 5.765 10.326 5.757 10.317 C 5.75 10.311 5.74 10.302 5.73 10.296 L 6.293 9.86 C 6.319 9.84 6.323 9.803 6.301 9.778 C 6.293 9.769 6.285 9.76 6.277 9.75 C 6.257 9.727 6.223 9.725 6.201 9.742 L 5.651 10.16 C 5.595 10.143 5.482 10.111 5.357 10.111 C 5.202 10.111 5.066 10.151 4.949 10.226 L 4.949 10.058 C 5.004 10.055 5.084 10.044 5.164 10.01 C 5.178 10.004 5.186 9.99 5.186 9.976 L 5.189 9.843 C 5.189 9.828 5.182 9.815 5.169 9.808 C 5.139 9.79 5.069 9.761 4.948 9.752 L 4.948 9.726 C 4.948 9.702 4.928 9.682 4.904 9.682 L 4.842 9.682 C 4.818 9.682 4.797 9.702 4.797 9.726 L 4.797 9.752 C 4.678 9.761 4.606 9.79 4.576 9.808 C 4.563 9.815 4.557 9.828 4.557 9.843 L 4.56 9.976 C 4.56 9.99 4.569 10.004 4.581 10.01 C 4.662 10.043 4.741 10.055 4.796 10.058 L 4.796 10.226 C 4.679 10.151 4.543 10.111 4.389 10.111 C 4.28 10.111 4.18 10.134 4.119 10.152 L 3.876 9.972 C 3.887 9.943 3.893 9.913 3.893 9.88 C 3.893 9.745 3.783 9.635 3.647 9.635 C 3.511 9.635 3.401 9.745 3.401 9.88 C 3.401 10.016 3.511 10.126 3.647 10.126 C 3.697 10.126 3.742 10.111 3.782 10.086 L 4.041 10.278 C 4.017 10.288 4 10.302 3.987 10.313 C 3.977 10.323 3.974 10.335 3.974 10.347 L 3.974 11.323 L 3.788 11.459 C 3.759 11.46 3.729 11.468 3.71 11.481 C 3.562 11.268 3.444 10.992 3.454 10.729 C 3.328 11.008 3.436 11.34 3.583 11.593 L 3.529 11.628 C 3.522 11.634 3.534 11.663 3.556 11.697 L 3.579 11.731 C 3.6 11.764 3.624 11.787 3.631 11.782 L 3.693 11.74 C 3.89 11.953 4.172 12.146 4.471 12.11 C 4.215 12.036 3.997 11.857 3.835 11.651 C 3.85 11.639 3.857 11.611 3.866 11.59 L 4.122 11.4 C 4.195 11.376 4.285 11.353 4.362 11.353 C 4.482 11.353 4.596 11.37 4.69 11.402 C 4.69 11.402 4.691 11.403 4.694 11.403 L 4.797 11.436 C 4.797 11.438 4.797 11.44 4.797 11.442 L 4.797 11.914 C 4.797 11.946 4.823 11.971 4.855 11.971 L 4.889 11.971 C 4.921 11.971 4.946 11.946 4.946 11.914 L 4.946 11.445 C 4.946 11.443 4.946 11.44 4.946 11.439 L 5.05 11.405 C 5.053 11.405 5.054 11.404 5.054 11.404 C 5.148 11.375 5.262 11.356 5.382 11.356 C 5.444 11.356 5.516 11.37 5.581 11.39 L 5.934 11.653 C 5.94 11.674 5.943 11.696 5.946 11.717 C 5.798 11.863 5.621 11.93 5.497 11.961 L 5.482 11.964 L 5.484 11.949 C 5.487 11.927 5.488 11.906 5.491 11.886 C 5.494 11.869 5.495 11.851 5.496 11.839 C 5.394 11.907 5.149 12.086 5.148 12.087 L 5.134 12.1 C 5.198 12.114 5.461 12.144 5.629 12.146 C 5.61 12.132 5.585 12.11 5.563 12.092 L 5.547 12.079 L 5.567 12.074 C 5.692 12.039 5.868 11.969 6.021 11.831 C 6.098 11.814 6.207 11.767 6.207 11.767 C 6.207 11.767 6.207 11.68 6.201 11.606 C 6.3 11.434 6.346 11.224 6.336 10.984 L 6.335 10.965 L 6.352 10.975 C 6.381 10.989 6.436 11.015 6.468 11.03 Z M 3.647 10.015 C 3.572 10.015 3.511 9.954 3.511 9.879 C 3.511 9.804 3.572 9.743 3.647 9.743 C 3.722 9.743 3.783 9.804 3.783 9.879 C 3.784 9.954 3.722 10.015 3.647 10.015 Z M 5.632 11.245 C 5.565 11.219 5.485 11.205 5.397 11.205 C 5.192 11.205 4.989 11.275 4.905 11.309 C 4.89 11.315 4.862 11.326 4.873 11.323 C 4.873 11.323 4.866 11.32 4.842 11.309 C 4.757 11.275 4.553 11.205 4.348 11.205 C 4.26 11.205 4.18 11.219 4.113 11.245 L 4.113 10.208 C 4.152 10.195 4.26 10.164 4.392 10.164 C 4.563 10.164 4.726 10.223 4.847 10.324 L 4.874 10.355 L 4.901 10.324 C 5.022 10.223 5.184 10.164 5.357 10.164 C 5.488 10.164 5.595 10.195 5.635 10.208 L 5.635 11.245 L 5.632 11.245 Z M 4.954 10.413 C 4.952 10.418 4.952 10.422 4.954 10.427 L 4.956 10.43 C 4.959 10.436 4.966 10.439 4.972 10.439 C 4.975 10.439 4.977 10.439 4.98 10.438 C 5.027 10.415 5.154 10.364 5.308 10.364 C 5.358 10.364 5.407 10.369 5.455 10.381 L 5.457 10.381 L 5.459 10.381 C 5.467 10.381 5.473 10.375 5.476 10.367 L 5.477 10.364 C 5.479 10.359 5.477 10.355 5.475 10.351 C 5.472 10.347 5.468 10.344 5.464 10.343 C 5.413 10.331 5.36 10.325 5.307 10.325 C 5.143 10.325 5.012 10.381 4.964 10.403 C 4.959 10.403 4.954 10.407 4.954 10.413 Z M 4.957 10.547 C 4.96 10.552 4.966 10.556 4.974 10.556 C 4.976 10.556 4.979 10.556 4.981 10.555 C 5.029 10.532 5.154 10.481 5.309 10.481 C 5.359 10.481 5.409 10.486 5.456 10.497 L 5.459 10.497 L 5.46 10.497 C 5.468 10.497 5.475 10.492 5.477 10.484 L 5.479 10.481 C 5.48 10.476 5.479 10.471 5.476 10.466 C 5.473 10.462 5.47 10.459 5.464 10.459 C 5.413 10.446 5.36 10.441 5.307 10.441 C 5.143 10.441 5.012 10.496 4.964 10.519 C 4.96 10.521 4.956 10.526 4.954 10.529 C 4.954 10.534 4.954 10.539 4.956 10.544 L 4.957 10.547 Z M 5.464 10.567 C 5.413 10.555 5.36 10.549 5.307 10.549 C 5.143 10.549 5.012 10.605 4.964 10.628 C 4.96 10.63 4.956 10.634 4.954 10.639 C 4.954 10.644 4.954 10.648 4.956 10.653 L 4.957 10.656 C 4.96 10.662 4.966 10.665 4.974 10.665 C 4.976 10.665 4.979 10.665 4.981 10.664 C 5.029 10.641 5.155 10.59 5.309 10.59 C 5.359 10.59 5.409 10.595 5.456 10.606 L 5.459 10.606 L 5.46 10.606 C 5.468 10.606 5.475 10.601 5.477 10.593 L 5.479 10.59 C 5.48 10.584 5.479 10.581 5.477 10.576 C 5.472 10.571 5.468 10.569 5.464 10.567 Z M 4.956 10.777 C 4.959 10.782 4.966 10.786 4.972 10.786 C 4.975 10.786 4.977 10.786 4.98 10.785 C 5.027 10.762 5.152 10.711 5.308 10.711 C 5.358 10.711 5.407 10.717 5.455 10.727 L 5.457 10.727 L 5.459 10.727 C 5.467 10.727 5.473 10.722 5.476 10.714 L 5.477 10.711 C 5.479 10.706 5.477 10.702 5.475 10.696 C 5.472 10.692 5.468 10.689 5.464 10.688 C 5.413 10.676 5.36 10.671 5.307 10.671 C 5.143 10.671 5.012 10.726 4.964 10.749 C 4.96 10.751 4.956 10.755 4.954 10.759 C 4.954 10.763 4.954 10.769 4.956 10.773 L 4.956 10.777 Z M 5.462 10.799 C 5.412 10.787 5.359 10.782 5.305 10.782 C 5.142 10.782 5.011 10.837 4.963 10.86 C 4.959 10.863 4.954 10.867 4.954 10.871 C 4.952 10.876 4.952 10.88 4.954 10.886 L 4.956 10.888 C 4.959 10.894 4.966 10.897 4.972 10.897 C 4.975 10.897 4.977 10.897 4.98 10.897 C 5.027 10.874 5.152 10.822 5.308 10.822 C 5.358 10.822 5.407 10.828 5.455 10.839 L 5.457 10.839 L 5.459 10.839 C 5.467 10.839 5.473 10.833 5.476 10.825 L 5.477 10.822 C 5.479 10.817 5.477 10.813 5.475 10.809 C 5.472 10.804 5.468 10.801 5.462 10.799 Z M 5.464 10.914 C 5.413 10.902 5.36 10.897 5.307 10.897 C 5.143 10.897 5.012 10.952 4.964 10.975 C 4.96 10.977 4.956 10.981 4.954 10.985 C 4.954 10.989 4.954 10.995 4.956 11 L 4.957 11.002 C 4.96 11.008 4.966 11.012 4.974 11.012 C 4.976 11.012 4.979 11.012 4.981 11.01 C 5.029 10.987 5.155 10.937 5.309 10.937 C 5.359 10.937 5.409 10.942 5.456 10.953 L 5.459 10.953 L 5.46 10.953 C 5.468 10.953 5.475 10.947 5.477 10.94 L 5.479 10.937 C 5.48 10.931 5.479 10.927 5.476 10.923 C 5.472 10.918 5.468 10.915 5.464 10.914 Z M 5.464 11.03 C 5.413 11.017 5.36 11.012 5.307 11.012 C 5.143 11.012 5.012 11.067 4.964 11.09 C 4.96 11.092 4.956 11.097 4.954 11.1 C 4.954 11.106 4.954 11.11 4.957 11.118 C 4.96 11.123 4.966 11.127 4.974 11.127 C 4.976 11.127 4.979 11.127 4.981 11.126 C 5.029 11.103 5.155 11.052 5.309 11.052 C 5.359 11.052 5.409 11.057 5.456 11.068 L 5.459 11.068 L 5.46 11.068 C 5.468 11.068 5.475 11.063 5.477 11.055 L 5.479 11.052 C 5.48 11.047 5.479 11.042 5.476 11.037 C 5.472 11.033 5.468 11.031 5.464 11.03 Z M 4.686 10.749 C 4.638 10.724 4.507 10.671 4.343 10.671 C 4.29 10.671 4.237 10.676 4.186 10.688 C 4.18 10.689 4.177 10.692 4.174 10.696 C 4.171 10.7 4.171 10.706 4.171 10.709 L 4.172 10.712 C 4.175 10.72 4.182 10.726 4.19 10.726 L 4.192 10.726 L 4.194 10.726 C 4.241 10.715 4.291 10.709 4.34 10.709 C 4.496 10.709 4.621 10.762 4.668 10.784 C 4.671 10.785 4.674 10.785 4.676 10.785 C 4.683 10.785 4.688 10.781 4.693 10.775 L 4.694 10.773 C 4.696 10.769 4.696 10.763 4.696 10.758 C 4.694 10.755 4.69 10.751 4.686 10.749 Z M 4.686 10.86 C 4.638 10.836 4.505 10.782 4.343 10.782 C 4.29 10.782 4.237 10.787 4.186 10.799 C 4.18 10.801 4.177 10.804 4.174 10.807 C 4.171 10.812 4.171 10.817 4.172 10.821 L 4.174 10.824 C 4.177 10.832 4.183 10.837 4.191 10.837 L 4.194 10.837 L 4.195 10.837 C 4.243 10.827 4.292 10.821 4.342 10.821 C 4.498 10.821 4.623 10.874 4.67 10.895 C 4.673 10.897 4.675 10.897 4.678 10.897 C 4.685 10.897 4.69 10.892 4.694 10.887 L 4.696 10.884 C 4.698 10.88 4.698 10.874 4.696 10.869 C 4.694 10.865 4.69 10.863 4.686 10.86 Z M 4.686 10.975 C 4.638 10.95 4.505 10.897 4.343 10.897 C 4.29 10.897 4.237 10.902 4.186 10.914 C 4.18 10.915 4.177 10.918 4.175 10.922 C 4.172 10.926 4.172 10.931 4.172 10.935 L 4.174 10.938 C 4.177 10.946 4.183 10.952 4.191 10.952 L 4.194 10.952 L 4.195 10.952 C 4.243 10.941 4.291 10.935 4.342 10.935 C 4.496 10.935 4.623 10.987 4.67 11.01 C 4.673 11.01 4.675 11.01 4.678 11.01 C 4.685 11.01 4.69 11.007 4.694 11.001 L 4.696 10.998 C 4.698 10.995 4.698 10.989 4.696 10.985 C 4.694 10.981 4.69 10.977 4.686 10.975 Z M 4.686 11.09 C 4.638 11.065 4.505 11.012 4.343 11.012 C 4.29 11.012 4.237 11.017 4.186 11.03 C 4.182 11.031 4.178 11.033 4.175 11.037 C 4.172 11.042 4.172 11.047 4.172 11.052 L 4.174 11.055 C 4.177 11.063 4.183 11.068 4.191 11.068 L 4.194 11.068 L 4.195 11.068 C 4.243 11.057 4.291 11.052 4.342 11.052 C 4.496 11.052 4.623 11.105 4.67 11.126 C 4.673 11.127 4.675 11.127 4.678 11.127 C 4.685 11.127 4.69 11.123 4.694 11.118 L 4.696 11.115 C 4.698 11.111 4.698 11.106 4.696 11.1 C 4.694 11.097 4.69 11.092 4.686 11.09 Z M 4.23 10.599 C 4.267 10.593 4.303 10.59 4.34 10.59 C 4.495 10.59 4.621 10.642 4.668 10.664 C 4.671 10.665 4.674 10.665 4.676 10.665 C 4.683 10.665 4.688 10.662 4.693 10.656 L 4.694 10.653 C 4.696 10.649 4.696 10.644 4.696 10.639 C 4.694 10.634 4.69 10.63 4.686 10.629 C 4.639 10.606 4.513 10.554 4.354 10.551 L 4.354 10.481 C 4.503 10.484 4.623 10.534 4.668 10.555 C 4.671 10.556 4.674 10.556 4.676 10.556 C 4.683 10.556 4.688 10.552 4.693 10.547 L 4.694 10.544 C 4.696 10.54 4.696 10.535 4.696 10.529 C 4.694 10.524 4.69 10.52 4.686 10.519 C 4.661 10.506 4.525 10.445 4.354 10.441 L 4.354 10.364 C 4.503 10.367 4.623 10.416 4.668 10.438 C 4.671 10.439 4.674 10.439 4.676 10.439 C 4.683 10.439 4.688 10.436 4.693 10.43 L 4.694 10.427 C 4.696 10.424 4.696 10.418 4.696 10.413 C 4.694 10.407 4.69 10.404 4.686 10.402 C 4.638 10.378 4.505 10.324 4.343 10.324 C 4.29 10.324 4.237 10.329 4.186 10.341 L 4.171 10.348 L 4.171 10.611 L 4.23 10.599 Z M 5.317 8.14 C 5.316 8.14 5.314 8.14 5.312 8.14 C 5.314 8.14 5.317 8.14 5.317 8.14 C 5.239 8.157 5.125 8.307 5.105 8.334 C 5.1 8.378 5.106 8.397 5.129 8.429 C 5.154 8.463 5.14 8.495 5.117 8.534 C 5.101 8.563 5.067 8.643 5.056 8.681 C 5.038 8.702 5.011 8.719 4.987 8.728 C 4.981 8.725 4.98 8.71 4.98 8.71 C 4.943 8.655 4.874 8.662 4.874 8.662 C 4.8 8.673 4.797 8.698 4.797 8.698 C 4.813 8.696 4.861 8.716 4.861 8.716 C 4.861 8.726 4.881 8.737 4.881 8.737 C 4.836 8.729 4.798 8.754 4.798 8.754 C 4.73 8.801 4.754 8.854 4.754 8.854 C 4.754 8.813 4.813 8.804 4.813 8.804 C 4.839 8.828 4.94 8.786 4.94 8.786 L 4.851 8.859 C 4.818 8.904 4.838 8.948 4.838 8.948 C 4.839 8.916 4.884 8.904 4.884 8.904 C 4.913 8.901 4.924 8.885 4.924 8.885 C 4.979 8.873 4.983 8.818 4.983 8.818 C 5.066 8.783 5.149 8.801 5.149 8.801 C 5.201 8.831 5.237 8.854 5.237 8.854 L 5.247 8.839 C 5.284 8.831 5.303 8.876 5.303 8.876 C 5.316 8.815 5.268 8.795 5.268 8.795 C 5.247 8.772 5.212 8.773 5.212 8.773 L 5.149 8.756 C 5.149 8.754 5.131 8.749 5.131 8.748 C 5.125 8.733 5.117 8.714 5.12 8.698 C 5.124 8.681 5.129 8.667 5.136 8.655 C 5.168 8.612 5.217 8.56 5.233 8.525 C 5.25 8.488 5.262 8.43 5.308 8.406 C 5.327 8.397 5.351 8.388 5.372 8.378 C 5.372 8.378 5.374 8.378 5.375 8.377 C 5.386 8.371 5.397 8.366 5.404 8.36 C 5.441 8.34 5.465 8.323 5.465 8.323 C 5.436 8.293 5.379 8.237 5.317 8.14 Z M 5.131 8.076 C 5.187 8.09 5.219 8.139 5.224 8.148 C 5.247 8.13 5.272 8.115 5.293 8.11 C 5.293 8.11 5.233 8.007 5.134 8.015 C 5.134 8.015 5.132 8.015 5.129 8.015 C 5.079 8.02 4.989 8.067 4.786 8.2 C 4.47 8.406 4.302 8.293 4.302 8.293 C 4.243 8.453 4.146 8.493 4.146 8.493 C 4.146 8.493 4.174 8.519 4.227 8.545 C 4.229 8.543 4.23 8.542 4.232 8.54 C 4.249 8.525 4.27 8.5 4.291 8.473 C 4.3 8.46 4.31 8.447 4.319 8.435 C 4.327 8.421 4.335 8.409 4.34 8.398 C 4.346 8.388 4.351 8.378 4.354 8.371 C 4.357 8.365 4.36 8.36 4.36 8.36 C 4.36 8.36 4.358 8.365 4.357 8.371 C 4.355 8.378 4.353 8.389 4.35 8.401 C 4.348 8.413 4.342 8.428 4.337 8.443 C 4.331 8.458 4.325 8.473 4.318 8.49 C 4.305 8.518 4.29 8.543 4.278 8.565 C 4.31 8.576 4.348 8.585 4.389 8.588 C 4.39 8.586 4.392 8.584 4.393 8.583 C 4.406 8.562 4.424 8.535 4.438 8.505 C 4.445 8.491 4.452 8.476 4.459 8.461 C 4.464 8.447 4.47 8.433 4.472 8.421 C 4.476 8.409 4.479 8.4 4.48 8.392 C 4.482 8.385 4.483 8.381 4.483 8.381 C 4.483 8.381 4.483 8.385 4.483 8.393 C 4.483 8.4 4.483 8.41 4.482 8.424 C 4.48 8.436 4.479 8.45 4.476 8.467 C 4.473 8.483 4.471 8.499 4.467 8.516 C 4.46 8.543 4.452 8.569 4.444 8.591 C 4.487 8.589 4.536 8.583 4.586 8.569 C 4.588 8.566 4.588 8.565 4.589 8.561 C 4.597 8.538 4.606 8.507 4.611 8.475 C 4.613 8.459 4.616 8.443 4.618 8.427 C 4.618 8.412 4.62 8.397 4.62 8.385 C 4.62 8.373 4.62 8.362 4.62 8.355 C 4.62 8.348 4.62 8.343 4.62 8.343 C 4.62 8.343 4.621 8.348 4.623 8.354 C 4.626 8.36 4.628 8.371 4.629 8.383 C 4.632 8.395 4.635 8.41 4.636 8.427 C 4.639 8.443 4.64 8.459 4.64 8.476 C 4.641 8.502 4.641 8.528 4.64 8.551 C 4.674 8.539 4.71 8.523 4.748 8.503 C 4.763 8.495 4.777 8.487 4.791 8.48 C 4.791 8.459 4.789 8.435 4.786 8.409 C 4.786 8.393 4.783 8.377 4.778 8.362 C 4.776 8.348 4.772 8.333 4.768 8.32 C 4.763 8.308 4.761 8.299 4.758 8.292 C 4.756 8.285 4.754 8.281 4.754 8.281 C 4.754 8.281 4.757 8.285 4.761 8.291 C 4.765 8.298 4.771 8.305 4.777 8.318 C 4.784 8.328 4.791 8.342 4.796 8.357 C 4.803 8.371 4.809 8.388 4.815 8.404 C 4.821 8.423 4.827 8.441 4.832 8.459 C 4.876 8.433 4.919 8.409 4.954 8.385 C 4.952 8.362 4.946 8.334 4.939 8.305 C 4.934 8.291 4.929 8.276 4.925 8.263 C 4.92 8.249 4.914 8.236 4.91 8.226 C 4.905 8.215 4.901 8.206 4.899 8.201 C 4.896 8.194 4.893 8.191 4.893 8.191 C 4.893 8.191 4.896 8.194 4.899 8.2 C 4.904 8.205 4.91 8.212 4.919 8.221 C 4.926 8.23 4.934 8.241 4.943 8.255 C 4.951 8.267 4.96 8.281 4.966 8.295 C 4.979 8.316 4.989 8.338 4.998 8.358 C 5.021 8.342 5.041 8.327 5.058 8.313 L 5.077 8.298 C 5.077 8.298 5.079 8.275 5.071 8.255 C 5.067 8.244 5.062 8.232 5.056 8.221 C 5.05 8.207 5.042 8.194 5.035 8.18 C 5.027 8.168 5.021 8.157 5.014 8.147 C 5.007 8.137 5 8.13 4.996 8.124 C 4.992 8.119 4.989 8.116 4.989 8.116 C 4.989 8.116 4.992 8.119 4.998 8.123 C 5.003 8.127 5.011 8.134 5.021 8.142 C 5.03 8.15 5.039 8.159 5.05 8.17 C 5.061 8.18 5.071 8.192 5.082 8.205 C 5.084 8.206 5.085 8.209 5.086 8.21 C 5.086 8.21 5.114 8.245 5.113 8.279 C 5.113 8.279 5.152 8.225 5.199 8.178 C 5.184 8.108 5.123 8.075 5.131 8.076 Z M 3.747 7.481 C 3.853 7.498 4.005 7.431 4.065 7.362 C 4.056 7.343 4.026 7.337 4.009 7.338 C 3.928 7.399 3.756 7.475 3.644 7.392 C 3.644 7.392 3.541 7.315 3.611 7.191 C 3.611 7.191 3.631 7.255 3.667 7.258 C 3.667 7.258 3.675 7.156 3.737 7.136 C 3.737 7.136 3.652 7.103 3.583 7.171 C 3.499 7.256 3.561 7.451 3.747 7.481 Z M 4.39 8.117 C 4.488 8.101 4.585 8.147 4.585 8.147 C 4.616 8.04 4.572 8.007 4.572 8.007 C 4.48 8.099 4.39 8.117 4.39 8.117 Z M 4.742 8.018 C 4.742 8.018 4.765 7.922 4.69 7.876 C 4.69 7.876 4.65 7.944 4.609 7.977 C 4.609 7.977 4.639 8.018 4.627 8.056 C 4.628 8.056 4.691 7.998 4.742 8.018 Z M 5.003 7.78 C 5.003 7.78 5.035 7.656 5.151 7.656 C 5.151 7.656 5.086 7.551 4.932 7.548 C 4.776 7.545 4.765 7.67 4.765 7.67 L 4.765 7.674 C 4.765 7.673 4.855 7.623 4.948 7.701 C 4.948 7.702 4.998 7.736 5.003 7.78 Z M 4.069 7.899 C 4.06 7.907 4.05 7.917 4.04 7.928 C 4.029 7.939 4.018 7.951 4.009 7.965 C 3.989 7.99 3.971 8.017 3.959 8.037 C 3.956 8.041 3.954 8.045 3.952 8.049 C 3.952 8.05 3.951 8.052 3.951 8.053 C 3.939 8.092 3.931 8.132 3.927 8.168 C 3.935 8.157 3.944 8.148 3.954 8.137 C 3.966 8.125 3.977 8.113 3.989 8.102 C 4 8.092 4.011 8.082 4.022 8.076 C 4.032 8.067 4.041 8.062 4.046 8.058 C 4.052 8.055 4.056 8.052 4.056 8.052 C 4.056 8.052 4.053 8.055 4.047 8.06 C 4.042 8.065 4.035 8.072 4.027 8.082 C 4.02 8.092 4.011 8.102 4.002 8.116 C 3.992 8.128 3.985 8.142 3.977 8.157 C 3.96 8.185 3.945 8.213 3.937 8.236 C 3.933 8.244 3.931 8.252 3.929 8.257 C 3.935 8.283 3.945 8.305 3.963 8.323 C 3.963 8.322 3.968 8.311 3.977 8.295 C 3.998 8.258 4.021 8.224 4.045 8.19 C 4.045 8.19 4.045 8.19 4.045 8.19 C 4.081 8.135 4.131 8.076 4.147 8.067 C 4.147 8.067 4.112 7.956 4.146 7.842 C 4.16 7.769 4.226 7.651 4.235 7.572 C 4.213 7.599 4.195 7.618 4.146 7.624 L 4.136 7.651 L 4.099 7.724 C 4.117 7.716 4.136 7.709 4.151 7.705 C 4.159 7.702 4.167 7.701 4.172 7.699 C 4.178 7.698 4.18 7.698 4.18 7.698 C 4.18 7.698 4.178 7.699 4.174 7.702 C 4.17 7.705 4.163 7.709 4.155 7.713 C 4.14 7.722 4.122 7.737 4.104 7.753 C 4.087 7.769 4.072 7.786 4.061 7.799 C 4.06 7.802 4.058 7.803 4.057 7.804 C 4.052 7.815 4.045 7.826 4.04 7.839 C 4.029 7.859 4.018 7.882 4.007 7.908 C 4.002 7.92 3.997 7.931 3.992 7.943 C 4.005 7.933 4.017 7.924 4.029 7.916 C 4.042 7.907 4.055 7.899 4.065 7.893 C 4.076 7.887 4.085 7.882 4.092 7.879 C 4.099 7.877 4.102 7.874 4.102 7.874 C 4.102 7.874 4.1 7.877 4.093 7.881 C 4.087 7.884 4.079 7.89 4.069 7.899 Z M 5.433 7.454 C 5.432 7.392 5.447 7.321 5.496 7.287 C 5.605 7.213 5.9 7.228 5.9 7.228 C 5.839 7.203 5.232 7.104 4.919 7.401 C 4.919 7.401 5.206 7.251 5.413 7.434 C 5.419 7.438 5.426 7.449 5.433 7.454 Z M 5.371 7.454 C 5.371 7.454 5.296 7.406 5.21 7.391 C 5.102 7.371 4.909 7.405 4.834 7.53 C 5.027 7.475 5.125 7.554 5.18 7.612 C 5.195 7.472 5.343 7.459 5.371 7.454 Z M 4.775 7.916 C 4.826 7.8 4.966 7.806 4.966 7.806 C 4.966 7.784 4.926 7.719 4.839 7.698 C 4.742 7.675 4.699 7.83 4.699 7.83 C 4.768 7.842 4.775 7.916 4.775 7.916 Z M 4.168 8.096 C 4.148 8.101 4.132 8.128 4.132 8.128 C 4.077 8.201 4.042 8.257 3.99 8.35 C 3.924 8.456 3.859 8.611 3.775 8.691 C 3.767 8.698 3.764 8.703 3.752 8.708 C 3.74 8.711 3.725 8.69 3.725 8.69 C 3.687 8.635 3.619 8.641 3.619 8.641 C 3.545 8.653 3.542 8.678 3.542 8.678 C 3.559 8.676 3.607 8.696 3.607 8.696 C 3.607 8.706 3.627 8.717 3.627 8.717 C 3.583 8.708 3.545 8.734 3.545 8.734 C 3.476 8.781 3.501 8.833 3.501 8.833 C 3.501 8.793 3.56 8.784 3.56 8.784 C 3.585 8.808 3.686 8.766 3.686 8.766 L 3.597 8.839 C 3.564 8.884 3.584 8.928 3.584 8.928 C 3.585 8.896 3.629 8.884 3.629 8.884 C 3.659 8.881 3.67 8.865 3.67 8.865 C 3.725 8.853 3.729 8.797 3.729 8.797 C 3.812 8.763 3.896 8.781 3.896 8.781 C 3.947 8.811 3.983 8.833 3.983 8.833 L 3.992 8.819 C 4.03 8.811 4.049 8.856 4.049 8.856 C 4.062 8.795 4.014 8.775 4.014 8.775 C 3.994 8.752 3.957 8.753 3.957 8.753 L 3.901 8.737 C 3.897 8.73 3.893 8.722 3.889 8.713 C 3.882 8.663 3.919 8.616 3.943 8.577 C 4.017 8.496 4.132 8.464 4.186 8.405 C 4.235 8.351 4.281 8.267 4.275 8.159 C 4.27 8.113 4.189 8.09 4.168 8.096 Z M 3.565 7.779 C 3.6 7.862 3.581 7.945 3.581 7.945 C 3.551 7.997 3.529 8.033 3.529 8.033 L 3.544 8.042 C 3.551 8.08 3.506 8.099 3.506 8.099 C 3.568 8.112 3.588 8.064 3.588 8.064 C 3.611 8.044 3.609 8.007 3.609 8.007 L 3.626 7.951 C 3.632 7.947 3.641 7.943 3.65 7.939 C 3.681 7.922 3.707 7.942 3.725 7.957 C 3.732 7.965 3.74 7.971 3.747 7.977 C 3.788 8.015 3.806 8.073 3.835 8.117 L 3.878 8.187 C 3.881 8.146 3.89 8.099 3.904 8.053 C 3.912 8.029 3.92 8.003 3.929 7.979 L 3.893 7.979 C 3.892 7.979 3.889 7.979 3.888 7.979 C 3.838 7.966 3.798 7.92 3.751 7.879 C 3.736 7.866 3.701 7.839 3.673 7.819 C 3.664 7.814 3.661 7.812 3.655 7.8 C 3.652 7.788 3.673 7.774 3.673 7.774 C 3.728 7.736 3.721 7.667 3.721 7.667 C 3.709 7.594 3.685 7.591 3.685 7.591 C 3.686 7.607 3.667 7.655 3.667 7.655 C 3.657 7.655 3.646 7.674 3.646 7.674 C 3.654 7.629 3.629 7.592 3.629 7.592 C 3.581 7.524 3.53 7.548 3.53 7.548 C 3.571 7.548 3.58 7.607 3.58 7.607 C 3.556 7.632 3.597 7.733 3.597 7.733 L 3.525 7.644 C 3.481 7.611 3.436 7.631 3.436 7.631 C 3.469 7.632 3.481 7.677 3.481 7.677 C 3.484 7.707 3.499 7.717 3.499 7.717 C 3.509 7.775 3.565 7.779 3.565 7.779 Z M 4.554 7.966 C 4.632 7.901 4.696 7.744 4.716 7.681 C 4.939 6.94 5.941 7.206 5.941 7.206 C 5.632 7.087 5.322 7.127 5.322 7.127 C 5.322 7.127 4.858 7.15 4.688 7.533 C 4.586 7.762 4.536 7.841 4.514 7.866 C 4.514 7.866 4.514 7.866 4.514 7.866 C 4.395 7.991 4.285 7.979 4.285 7.979 C 4.4 7.947 4.458 7.864 4.472 7.838 C 4.472 7.838 4.487 7.814 4.488 7.806 C 4.479 7.807 4.452 7.815 4.44 7.815 C 4.404 7.817 4.373 7.787 4.365 7.745 C 4.338 7.774 4.319 7.806 4.319 7.806 C 4.323 7.767 4.351 7.724 4.373 7.698 C 4.378 7.692 4.383 7.684 4.39 7.678 C 4.393 7.675 4.394 7.673 4.394 7.673 C 4.409 7.661 4.423 7.651 4.423 7.651 C 4.423 7.651 4.369 7.62 4.366 7.564 C 4.337 7.591 4.314 7.624 4.314 7.624 C 4.32 7.581 4.358 7.537 4.381 7.514 C 4.4 7.489 4.43 7.481 4.43 7.481 C 4.43 7.481 4.374 7.469 4.382 7.371 C 4.36 7.394 4.343 7.417 4.343 7.417 C 4.348 7.382 4.375 7.346 4.397 7.322 C 4.415 7.293 4.443 7.281 4.443 7.281 C 4.438 7.278 4.432 7.273 4.428 7.268 C 4.423 7.263 4.415 7.258 4.408 7.249 C 4.397 7.238 4.385 7.226 4.374 7.212 C 4.363 7.197 4.353 7.18 4.348 7.161 C 4.345 7.151 4.343 7.141 4.343 7.131 C 4.343 7.121 4.348 7.111 4.351 7.103 C 4.355 7.095 4.36 7.087 4.368 7.081 C 4.373 7.075 4.38 7.071 4.385 7.065 C 4.397 7.057 4.408 7.052 4.415 7.048 C 4.424 7.044 4.428 7.043 4.428 7.043 C 4.428 7.043 4.424 7.045 4.415 7.049 C 4.409 7.053 4.404 7.056 4.393 7.065 C 4.388 7.069 4.381 7.075 4.377 7.081 C 4.371 7.087 4.368 7.095 4.363 7.103 C 4.36 7.111 4.358 7.121 4.358 7.128 C 4.358 7.138 4.36 7.146 4.363 7.156 C 4.373 7.178 4.381 7.197 4.395 7.213 C 4.389 7.194 4.389 7.178 4.392 7.156 C 4.398 7.086 4.5 7.041 4.5 7.041 C 4.5 7.041 4.488 7.026 4.463 7.023 C 4.463 7.023 4.392 7.005 4.241 7.103 C 4.166 7.06 4.053 7.08 3.979 7.153 C 3.979 7.153 3.882 7.107 3.759 7.223 L 3.881 7.258 C 3.917 7.278 3.924 7.283 3.922 7.327 C 3.977 7.293 4.026 7.299 4.067 7.318 C 4.092 7.33 4.145 7.365 4.127 7.435 C 4.122 7.444 4.115 7.454 4.108 7.461 C 4.06 7.514 3.983 7.517 3.922 7.524 C 3.902 7.526 3.882 7.565 3.873 7.585 L 3.89 7.581 C 3.985 7.554 4.057 7.609 4.15 7.572 C 4.224 7.528 4.247 7.476 4.247 7.386 C 4.236 7.253 4.187 7.22 4.168 7.214 C 4.13 7.205 4.105 7.246 4.084 7.232 C 4.058 7.216 4.067 7.176 4.067 7.176 C 4.093 7.165 4.145 7.181 4.165 7.189 C 4.191 7.203 4.263 7.237 4.275 7.391 C 4.28 7.438 4.279 7.472 4.279 7.529 C 4.264 7.696 4.194 7.744 4.18 7.924 C 4.182 8.026 4.191 8.044 4.213 8.061 C 4.252 8.092 4.378 8.084 4.436 8.053 C 4.48 8.032 4.52 8 4.554 7.966 Z M 6.215 8.613 C 6.187 8.606 6.158 8.628 6.158 8.628 L 6.101 8.65 C 6.098 8.652 6.056 8.646 6.053 8.648 C 6.042 8.623 6.031 8.586 6.015 8.519 C 6.012 8.51 6.01 8.499 6.008 8.488 L 5.995 8.432 L 5.983 8.328 C 5.983 8.328 5.981 8.325 5.98 8.322 C 5.963 8.24 5.93 8.2 5.928 8.195 C 5.838 8.05 5.647 7.986 5.645 7.986 C 5.653 7.987 5.82 8.014 5.922 8.135 C 5.969 8.124 6.015 8.107 6.061 8.081 C 6.258 7.971 6.372 7.681 6.212 7.481 C 6.055 7.284 5.738 7.373 5.705 7.551 C 5.676 7.697 5.786 7.774 5.786 7.774 C 5.76 7.681 5.88 7.579 5.88 7.579 C 5.847 7.537 5.754 7.568 5.754 7.568 C 5.848 7.373 6.024 7.434 6.024 7.434 C 6.293 7.537 6.234 7.873 5.988 7.966 C 5.908 7.995 5.825 7.985 5.753 7.956 C 5.647 7.902 5.697 7.742 5.697 7.742 C 5.697 7.742 5.647 7.804 5.582 7.799 C 5.582 7.799 5.582 7.799 5.582 7.799 C 5.587 7.835 5.607 7.876 5.607 7.876 C 5.572 7.847 5.554 7.772 5.554 7.772 C 5.537 7.73 5.539 7.661 5.532 7.682 C 5.523 7.713 5.497 7.764 5.422 7.771 C 5.421 7.771 5.421 7.771 5.419 7.771 C 5.433 7.799 5.452 7.823 5.452 7.823 C 5.425 7.809 5.402 7.776 5.39 7.753 C 5.366 7.719 5.358 7.652 5.358 7.652 C 5.304 7.753 5.148 7.775 5.088 7.779 C 4.996 7.768 5.021 7.889 5.021 7.889 C 4.989 7.872 4.98 7.849 4.939 7.847 C 4.92 7.846 4.881 7.857 4.865 7.87 C 4.818 7.899 4.78 7.947 4.776 8.073 C 4.73 8.037 4.685 8.058 4.639 8.092 C 4.639 8.092 4.627 8.157 4.592 8.189 C 4.534 8.157 4.471 8.146 4.456 8.146 C 4.456 8.146 4.404 8.139 4.327 8.148 C 4.327 8.148 4.338 8.21 4.318 8.26 C 4.435 8.338 4.62 8.256 4.722 8.198 C 4.839 8.134 4.949 8.041 5.071 7.994 C 5.134 7.966 5.199 7.977 5.25 8.014 C 5.325 8.067 5.41 8.212 5.5 8.298 C 5.505 8.303 5.56 8.375 5.745 8.383 C 5.745 8.383 5.843 8.382 5.915 8.498 C 5.918 8.503 5.922 8.508 5.926 8.515 C 5.929 8.519 5.932 8.525 5.934 8.53 C 5.952 8.562 5.969 8.604 5.984 8.655 C 5.983 8.67 5.98 8.685 5.976 8.698 C 5.973 8.706 5.97 8.711 5.968 8.717 C 5.968 8.717 5.968 8.717 5.968 8.717 C 5.966 8.729 5.95 8.711 5.95 8.711 C 5.891 8.687 5.842 8.731 5.842 8.731 C 5.79 8.784 5.801 8.804 5.801 8.804 C 5.813 8.793 5.86 8.781 5.86 8.781 C 5.867 8.791 5.887 8.788 5.887 8.788 C 5.848 8.807 5.832 8.85 5.832 8.85 C 5.804 8.928 5.851 8.956 5.851 8.956 C 5.83 8.922 5.87 8.881 5.87 8.881 C 5.903 8.885 5.96 8.793 5.96 8.793 L 5.93 8.904 C 5.929 8.959 5.968 8.984 5.968 8.984 C 5.95 8.956 5.98 8.921 5.98 8.921 C 6.001 8.901 6.001 8.882 6.001 8.882 C 6.038 8.842 6.01 8.793 6.01 8.793 C 6.005 8.726 6.132 8.685 6.132 8.685 C 6.188 8.679 6.228 8.661 6.228 8.661 C 6.254 8.632 6.294 8.659 6.294 8.659 C 6.265 8.603 6.215 8.613 6.215 8.613 Z M 6.763 9.23 L 6.758 9.232 C 6.696 9.272 6.258 9.523 5.144 9.198 C 3.787 8.8 2.959 9.484 2.959 9.484 L 2.97 9.487 C 3.092 9.424 3.922 9.021 5.174 9.386 C 6.383 9.74 6.763 9.23 6.763 9.23 Z M 4.861 13.167 C 4.861 13.167 7.024 12.615 7.29 10.876 L 7.28 10.888 C 7.086 12.154 4.861 12.846 4.861 12.846 L 4.862 12.846 C 4.862 12.846 2.637 12.154 2.443 10.888 L 2.434 10.876 C 2.698 12.614 4.862 13.167 4.861 13.167 M 4.861 6.707 C 5.682 6.707 7.036 7.052 7.161 7.281 C 7.222 7.376 7.271 7.867 7.282 7.955 L 7.293 7.97 C 7.293 7.97 7.315 7.47 7.308 7.318 C 7.289 7.006 6.184 6.449 4.861 6.449 L 4.864 6.449 C 3.539 6.449 2.435 7.006 2.417 7.321 C 2.409 7.472 2.432 7.972 2.432 7.972 L 2.443 7.957 C 2.452 7.87 2.502 7.379 2.564 7.284 C 2.687 7.055 4.044 6.709 4.865 6.709 M 14.517 9.815 C 14.517 9.815 13.978 10.484 11.868 10.065 C 9.502 9.595 7.981 10.157 7.981 10.157 C 7.981 10.157 9.503 9.372 11.87 9.843 C 13.979 10.262 14.517 9.815 14.517 9.815 Z M 7.984 12.959 L 8.164 12.959 L 8.266 12.732 L 8.69 12.732 L 8.793 12.959 L 9.014 12.959 L 8.542 11.932 L 8.471 11.932 L 7.984 12.959 Z M 8.628 12.597 L 8.327 12.597 L 8.475 12.264 L 8.628 12.597 Z M 9.078 12.959 L 9.273 12.959 L 9.273 12.883 C 9.298 12.913 9.364 12.993 9.49 12.993 C 9.635 12.993 9.82 12.878 9.82 12.579 C 9.82 12.347 9.702 12.182 9.503 12.182 C 9.362 12.182 9.303 12.259 9.273 12.298 L 9.273 11.931 L 9.078 11.931 L 9.078 12.959 Z M 9.273 12.4 C 9.273 12.399 9.321 12.302 9.432 12.302 C 9.506 12.302 9.554 12.344 9.584 12.404 C 9.614 12.462 9.617 12.529 9.617 12.577 C 9.617 12.822 9.503 12.873 9.428 12.873 C 9.345 12.873 9.301 12.82 9.273 12.787 L 9.273 12.4 Z M 10.608 12.732 C 10.557 12.798 10.503 12.866 10.368 12.866 C 10.137 12.866 10.112 12.66 10.105 12.605 L 10.679 12.605 C 10.678 12.524 10.676 12.385 10.573 12.28 C 10.483 12.19 10.366 12.179 10.301 12.179 C 10.038 12.179 9.898 12.357 9.898 12.576 C 9.898 12.805 10.04 12.99 10.307 12.99 C 10.563 12.99 10.623 12.837 10.655 12.756 L 10.608 12.732 Z M 10.109 12.492 C 10.128 12.419 10.157 12.303 10.298 12.303 C 10.443 12.303 10.458 12.425 10.468 12.492 L 10.109 12.492 Z M 10.977 12.214 L 10.783 12.214 L 10.783 12.96 L 10.977 12.96 L 10.977 12.382 C 11.011 12.361 11.054 12.332 11.127 12.332 C 11.18 12.332 11.218 12.349 11.254 12.367 L 11.254 12.197 C 11.237 12.194 11.218 12.193 11.199 12.193 C 11.066 12.193 11.007 12.269 10.977 12.309 L 10.977 12.214 Z M 11.456 12.214 L 11.337 12.214 L 11.337 12.332 L 11.456 12.332 L 11.456 12.744 C 11.456 12.81 11.462 12.875 11.517 12.928 C 11.574 12.985 11.652 12.99 11.687 12.99 C 11.783 12.99 11.836 12.956 11.879 12.93 L 11.856 12.884 C 11.833 12.89 11.813 12.898 11.783 12.898 C 11.768 12.898 11.71 12.898 11.675 12.833 C 11.66 12.808 11.652 12.778 11.652 12.715 L 11.652 12.333 L 11.823 12.333 L 11.823 12.216 L 11.652 12.216 L 11.652 12.013 L 11.458 12.013 L 11.458 12.214 L 11.456 12.214 Z M 12.566 12.51 C 12.566 12.442 12.564 12.342 12.491 12.268 C 12.45 12.224 12.368 12.182 12.242 12.182 C 12.02 12.182 11.962 12.31 11.93 12.381 L 11.98 12.405 C 12.009 12.367 12.062 12.295 12.186 12.295 C 12.241 12.295 12.324 12.314 12.359 12.393 C 12.375 12.43 12.377 12.469 12.379 12.507 C 12.321 12.49 12.274 12.475 12.203 12.475 C 12.029 12.475 11.888 12.572 11.888 12.743 C 11.888 12.877 11.985 12.982 12.136 12.982 C 12.274 12.982 12.346 12.909 12.379 12.875 L 12.379 12.96 L 12.567 12.96 L 12.567 12.51 L 12.566 12.51 Z M 12.377 12.808 C 12.34 12.833 12.293 12.863 12.224 12.863 C 12.126 12.863 12.09 12.794 12.09 12.729 C 12.09 12.635 12.165 12.59 12.251 12.59 C 12.301 12.59 12.339 12.603 12.376 12.617 L 12.376 12.808 L 12.377 12.808 Z M 12.873 12.965 L 12.945 12.965 L 13.141 12.532 L 13.337 12.965 L 13.407 12.965 L 13.688 12.214 L 13.532 12.214 L 13.404 12.585 L 13.383 12.655 C 13.366 12.616 13.365 12.608 13.35 12.573 L 13.201 12.213 L 13.138 12.213 L 12.945 12.654 C 12.934 12.617 12.931 12.608 12.922 12.575 L 12.799 12.213 L 12.597 12.213 L 12.873 12.965 Z M 14.399 12.732 C 14.347 12.798 14.294 12.866 14.158 12.866 C 13.928 12.866 13.903 12.66 13.896 12.605 L 14.47 12.605 C 14.468 12.524 14.467 12.385 14.364 12.28 C 14.274 12.19 14.157 12.179 14.092 12.179 C 13.829 12.179 13.689 12.357 13.689 12.576 C 13.689 12.805 13.83 12.99 14.097 12.99 C 14.354 12.99 14.413 12.837 14.445 12.756 L 14.399 12.732 Z M 13.9 12.492 C 13.919 12.419 13.949 12.303 14.088 12.303 C 14.233 12.303 14.249 12.425 14.259 12.492 L 13.9 12.492 Z M 8.565 11.052 C 8.654 11.056 8.662 11.056 8.694 11.056 C 9.008 11.056 9.133 10.908 9.133 10.738 C 9.133 10.601 9.054 10.529 8.986 10.5 C 8.925 10.473 8.855 10.468 8.753 10.468 L 8.417 10.468 L 8.417 11.54 L 8.565 11.54 L 8.565 11.052 Z M 8.565 10.558 L 8.728 10.558 C 8.858 10.558 8.905 10.589 8.938 10.626 C 8.962 10.654 8.982 10.7 8.982 10.752 C 8.982 10.845 8.924 10.938 8.784 10.976 C 8.694 11 8.608 10.997 8.565 10.996 L 8.565 10.558 Z M 9.417 10.953 C 9.432 10.931 9.484 10.86 9.577 10.86 C 9.628 10.86 9.671 10.882 9.695 10.892 L 9.695 10.767 C 9.674 10.758 9.654 10.749 9.615 10.749 C 9.504 10.749 9.443 10.837 9.417 10.874 L 9.417 10.767 L 9.278 10.767 L 9.278 11.54 L 9.417 11.54 L 9.417 10.953 Z M 9.979 10.766 L 9.84 10.766 L 9.84 11.54 L 9.979 11.54 L 9.979 10.766 Z M 9.829 10.54 C 9.829 10.589 9.867 10.621 9.909 10.621 C 9.935 10.621 9.991 10.606 9.991 10.536 C 9.991 10.497 9.96 10.457 9.912 10.457 C 9.863 10.457 9.829 10.493 9.829 10.54 Z M 10.368 10.854 L 10.528 10.854 L 10.528 10.766 L 10.368 10.766 L 10.368 10.692 C 10.368 10.625 10.368 10.59 10.385 10.563 C 10.4 10.538 10.432 10.515 10.48 10.515 C 10.516 10.515 10.542 10.526 10.563 10.535 C 10.57 10.526 10.582 10.512 10.588 10.503 C 10.571 10.484 10.53 10.436 10.435 10.436 C 10.373 10.436 10.327 10.459 10.299 10.479 C 10.23 10.529 10.229 10.602 10.229 10.672 L 10.229 10.767 L 10.12 10.767 L 10.12 10.856 L 10.229 10.856 L 10.229 11.541 L 10.368 11.541 L 10.368 10.854 Z M 11.221 10.767 L 10.985 11.306 L 10.766 10.767 L 10.613 10.767 L 10.914 11.468 C 10.812 11.698 10.749 11.77 10.613 11.81 L 10.613 11.851 C 10.809 11.861 10.911 11.744 11.004 11.533 L 11.342 10.767 L 11.221 10.767 Z M 11.997 10.952 C 11.993 10.917 11.983 10.844 11.903 10.789 C 11.847 10.75 11.773 10.735 11.713 10.735 C 11.537 10.735 11.432 10.836 11.432 10.965 C 11.432 11.114 11.565 11.155 11.642 11.181 C 11.726 11.207 11.766 11.219 11.795 11.235 C 11.817 11.245 11.873 11.275 11.873 11.349 C 11.873 11.427 11.805 11.478 11.7 11.478 C 11.622 11.478 11.548 11.451 11.499 11.407 C 11.464 11.376 11.445 11.345 11.432 11.323 C 11.421 11.326 11.403 11.332 11.391 11.335 C 11.4 11.372 11.412 11.451 11.493 11.512 C 11.554 11.556 11.63 11.572 11.705 11.572 C 11.789 11.572 11.868 11.556 11.93 11.505 C 11.984 11.462 12.015 11.402 12.015 11.329 C 12.015 11.165 11.859 11.12 11.781 11.097 C 11.77 11.094 11.704 11.074 11.7 11.072 C 11.621 11.047 11.57 11.016 11.57 10.953 C 11.57 10.884 11.636 10.834 11.735 10.834 C 11.879 10.834 11.933 10.923 11.958 10.965 C 11.969 10.96 11.986 10.954 11.997 10.952 Z M 12.689 10.767 L 12.689 10.868 C 12.657 10.822 12.597 10.737 12.459 10.737 C 12.297 10.737 12.148 10.874 12.148 11.141 C 12.148 11.385 12.278 11.518 12.45 11.518 C 12.601 11.518 12.664 11.433 12.688 11.4 L 12.688 11.445 C 12.688 11.553 12.688 11.626 12.633 11.688 C 12.591 11.736 12.528 11.758 12.465 11.758 C 12.394 11.758 12.319 11.731 12.269 11.685 C 12.233 11.653 12.22 11.625 12.208 11.599 L 12.164 11.614 C 12.209 11.831 12.392 11.856 12.474 11.856 C 12.604 11.856 12.693 11.807 12.744 11.755 C 12.827 11.672 12.827 11.566 12.827 11.45 L 12.827 10.77 L 12.689 10.77 L 12.689 10.767 Z M 12.689 11.34 C 12.654 11.368 12.592 11.42 12.504 11.42 C 12.355 11.42 12.293 11.277 12.293 11.129 C 12.293 10.954 12.374 10.834 12.499 10.834 C 12.536 10.834 12.577 10.847 12.612 10.869 C 12.656 10.897 12.674 10.931 12.691 10.958 L 12.691 11.34 L 12.689 11.34 Z M 13.766 11.142 C 13.766 10.906 13.626 10.735 13.4 10.735 C 13.193 10.735 13.018 10.868 13.018 11.167 C 13.018 11.238 13.028 11.388 13.143 11.489 C 13.228 11.56 13.323 11.572 13.387 11.572 C 13.556 11.572 13.645 11.489 13.682 11.44 C 13.733 11.373 13.766 11.273 13.766 11.142 Z M 13.619 11.152 C 13.619 11.399 13.512 11.489 13.393 11.489 C 13.315 11.489 13.235 11.445 13.198 11.344 C 13.185 11.315 13.166 11.25 13.166 11.149 C 13.166 10.987 13.225 10.821 13.395 10.821 C 13.551 10.819 13.619 10.977 13.619 11.152 Z M 14.094 10.468 L 13.955 10.468 L 13.955 11.54 L 14.094 11.54 L 14.094 10.468 Z M 9.002 8.162 L 8.855 8.162 L 8.855 8.998 C 8.787 9.076 8.666 9.164 8.526 9.164 C 8.425 9.164 8.342 9.117 8.306 9.059 C 8.279 9.016 8.268 8.957 8.268 8.842 L 8.268 8.162 L 8.122 8.162 L 8.122 8.908 C 8.122 9.021 8.141 9.097 8.204 9.163 C 8.262 9.224 8.358 9.267 8.486 9.267 C 8.628 9.267 8.747 9.221 8.855 9.077 L 8.855 9.237 L 9.002 9.237 L 9.002 8.162 Z M 9.838 8.691 C 9.838 8.62 9.837 8.548 9.772 8.488 C 9.757 8.476 9.706 8.43 9.594 8.43 C 9.434 8.43 9.361 8.528 9.33 8.571 L 9.33 8.463 L 9.193 8.463 L 9.193 9.235 L 9.33 9.235 L 9.33 8.661 C 9.384 8.571 9.463 8.531 9.538 8.531 C 9.584 8.531 9.667 8.55 9.69 8.633 C 9.701 8.675 9.701 8.714 9.701 8.797 L 9.701 9.237 L 9.838 9.237 L 9.838 8.691 Z M 10.152 8.461 L 10.014 8.461 L 10.014 9.235 L 10.152 9.235 L 10.152 8.461 Z M 10.003 8.236 C 10.003 8.284 10.041 8.316 10.082 8.316 C 10.108 8.316 10.165 8.302 10.165 8.232 C 10.165 8.192 10.133 8.152 10.085 8.152 C 10.037 8.152 10.003 8.189 10.003 8.236 Z M 10.856 8.463 L 10.636 8.979 C 10.624 9.006 10.623 9.015 10.62 9.03 C 10.613 9.004 10.606 8.984 10.605 8.98 L 10.394 8.463 L 10.244 8.463 L 10.582 9.245 L 10.629 9.245 L 10.971 8.463 L 10.856 8.463 Z M 11.73 8.85 C 11.731 8.795 11.737 8.629 11.615 8.519 C 11.555 8.464 11.473 8.43 11.374 8.43 C 11.165 8.43 10.988 8.584 10.988 8.853 C 10.988 9.129 11.171 9.268 11.375 9.268 C 11.641 9.268 11.7 9.074 11.715 9.021 C 11.704 9.018 11.688 9.01 11.678 9.006 C 11.65 9.049 11.572 9.164 11.409 9.164 C 11.386 9.164 11.277 9.164 11.199 9.064 C 11.14 8.984 11.136 8.896 11.132 8.851 L 11.73 8.851 L 11.73 8.85 Z M 11.134 8.766 C 11.156 8.589 11.278 8.526 11.371 8.526 C 11.446 8.526 11.583 8.572 11.594 8.766 L 11.134 8.766 Z M 11.997 8.648 C 12.012 8.627 12.064 8.556 12.157 8.556 C 12.208 8.556 12.251 8.577 12.276 8.588 L 12.276 8.463 C 12.254 8.453 12.233 8.444 12.195 8.444 C 12.083 8.444 12.023 8.533 11.997 8.569 L 11.997 8.463 L 11.858 8.463 L 11.858 9.235 L 11.997 9.235 L 11.997 8.648 Z M 12.92 8.646 C 12.917 8.611 12.905 8.538 12.827 8.483 C 12.77 8.444 12.696 8.429 12.636 8.429 C 12.461 8.429 12.355 8.53 12.355 8.659 C 12.355 8.808 12.488 8.85 12.566 8.876 C 12.649 8.901 12.689 8.913 12.719 8.929 C 12.74 8.94 12.797 8.971 12.797 9.044 C 12.797 9.121 12.728 9.172 12.624 9.172 C 12.546 9.172 12.471 9.145 12.422 9.101 C 12.387 9.07 12.368 9.039 12.355 9.016 C 12.344 9.021 12.325 9.026 12.313 9.03 C 12.321 9.066 12.334 9.145 12.415 9.206 C 12.476 9.25 12.552 9.267 12.627 9.267 C 12.711 9.267 12.79 9.25 12.852 9.199 C 12.905 9.157 12.937 9.096 12.937 9.023 C 12.937 8.859 12.781 8.813 12.703 8.791 C 12.692 8.788 12.627 8.768 12.622 8.766 C 12.543 8.741 12.491 8.71 12.491 8.647 C 12.491 8.578 12.557 8.528 12.657 8.528 C 12.801 8.528 12.854 8.618 12.88 8.659 C 12.891 8.655 12.91 8.65 12.92 8.646 Z M 13.203 8.461 L 13.064 8.461 L 13.064 9.235 L 13.203 9.235 L 13.203 8.461 Z M 13.055 8.236 C 13.055 8.284 13.092 8.316 13.134 8.316 C 13.16 8.316 13.216 8.302 13.216 8.232 C 13.216 8.192 13.185 8.152 13.137 8.152 C 13.088 8.152 13.055 8.189 13.055 8.236 Z M 13.543 8.55 L 13.705 8.55 L 13.705 8.461 L 13.543 8.461 L 13.543 8.256 L 13.404 8.256 L 13.404 8.461 L 13.298 8.461 L 13.298 8.55 L 13.404 8.55 L 13.404 9.031 C 13.404 9.124 13.41 9.186 13.473 9.23 C 13.496 9.245 13.54 9.267 13.599 9.267 C 13.689 9.267 13.737 9.224 13.766 9.199 C 13.759 9.189 13.751 9.174 13.744 9.163 C 13.718 9.175 13.691 9.189 13.651 9.189 C 13.543 9.189 13.543 9.091 13.543 8.992 L 13.543 8.55 Z M 14.369 8.463 L 14.134 9.001 L 13.915 8.463 L 13.761 8.463 L 14.062 9.163 C 13.961 9.394 13.897 9.465 13.761 9.505 L 13.761 9.547 C 13.958 9.557 14.06 9.439 14.152 9.229 L 14.49 8.463 L 14.369 8.463 Z M 8.112 7.484 C 8.122 7.542 8.135 7.629 8.212 7.705 C 8.315 7.809 8.467 7.812 8.524 7.812 C 8.57 7.812 8.752 7.812 8.869 7.69 C 8.925 7.631 8.965 7.544 8.965 7.45 C 8.965 7.363 8.932 7.288 8.878 7.238 C 8.807 7.168 8.694 7.141 8.617 7.124 C 8.5 7.101 8.416 7.084 8.384 7.003 C 8.376 6.983 8.374 6.963 8.374 6.951 C 8.374 6.838 8.485 6.782 8.608 6.782 C 8.703 6.782 8.779 6.813 8.828 6.86 C 8.855 6.888 8.868 6.913 8.881 6.948 L 8.945 6.93 C 8.941 6.892 8.933 6.817 8.866 6.748 C 8.773 6.65 8.622 6.649 8.576 6.649 C 8.222 6.649 8.154 6.869 8.154 6.99 C 8.154 7.241 8.385 7.288 8.509 7.313 C 8.642 7.339 8.738 7.373 8.738 7.491 C 8.738 7.584 8.66 7.679 8.506 7.679 C 8.413 7.679 8.322 7.651 8.255 7.586 C 8.214 7.546 8.194 7.505 8.174 7.464 L 8.112 7.484 Z M 9.295 7.786 L 9.371 7.786 L 9.581 7.323 L 9.791 7.786 L 9.864 7.786 L 10.165 6.985 L 9.997 6.985 L 9.861 7.38 L 9.838 7.454 C 9.82 7.412 9.819 7.404 9.804 7.366 L 9.646 6.983 L 9.577 6.983 L 9.371 7.454 C 9.361 7.415 9.358 7.405 9.347 7.371 L 9.217 6.986 L 9.002 6.986 L 9.295 7.786 Z M 10.909 7.301 C 10.909 7.228 10.907 7.122 10.829 7.043 C 10.785 6.995 10.698 6.951 10.562 6.951 C 10.327 6.951 10.264 7.088 10.23 7.163 L 10.283 7.191 C 10.313 7.148 10.37 7.072 10.502 7.072 C 10.561 7.072 10.649 7.092 10.686 7.176 C 10.703 7.214 10.706 7.256 10.707 7.296 C 10.646 7.278 10.596 7.263 10.519 7.263 C 10.335 7.263 10.185 7.365 10.185 7.548 C 10.185 7.69 10.287 7.802 10.448 7.802 C 10.596 7.802 10.672 7.724 10.707 7.689 L 10.707 7.779 L 10.907 7.779 L 10.907 7.301 L 10.909 7.301 Z M 10.71 7.619 C 10.67 7.646 10.62 7.677 10.547 7.677 C 10.444 7.677 10.405 7.604 10.405 7.536 C 10.405 7.435 10.486 7.386 10.577 7.386 C 10.629 7.386 10.67 7.4 10.71 7.416 L 10.71 7.619 Z M 11.803 7.243 C 11.803 7.176 11.798 7.096 11.739 7.034 C 11.698 6.991 11.63 6.962 11.548 6.962 C 11.398 6.962 11.329 7.043 11.289 7.09 L 11.289 6.986 L 11.082 6.986 L 11.082 7.78 L 11.289 7.78 L 11.289 7.189 C 11.325 7.148 11.377 7.091 11.461 7.091 C 11.535 7.091 11.574 7.139 11.587 7.183 C 11.595 7.211 11.595 7.237 11.595 7.264 L 11.595 7.779 L 11.804 7.779 L 11.804 7.243 L 11.803 7.243 Z M 11.922 7.572 C 11.926 7.609 11.935 7.666 11.989 7.721 C 12.023 7.754 12.102 7.812 12.258 7.812 C 12.486 7.812 12.597 7.684 12.597 7.545 C 12.597 7.478 12.572 7.42 12.534 7.381 C 12.49 7.334 12.429 7.318 12.386 7.307 C 12.356 7.299 12.326 7.293 12.297 7.287 C 12.227 7.268 12.156 7.248 12.156 7.177 C 12.156 7.126 12.201 7.071 12.314 7.071 C 12.471 7.071 12.509 7.151 12.524 7.18 L 12.578 7.163 C 12.571 7.133 12.561 7.086 12.516 7.037 C 12.466 6.986 12.386 6.95 12.281 6.95 C 12.05 6.95 11.948 7.09 11.948 7.217 C 11.948 7.361 12.067 7.406 12.098 7.417 C 12.134 7.431 12.169 7.439 12.206 7.447 C 12.306 7.469 12.357 7.489 12.38 7.539 C 12.384 7.553 12.389 7.566 12.389 7.579 C 12.389 7.583 12.389 7.656 12.301 7.684 C 12.274 7.693 12.248 7.694 12.223 7.694 C 12.136 7.694 12.062 7.664 12.018 7.621 C 11.997 7.6 11.988 7.579 11.978 7.559 L 11.922 7.572 Z M 13.439 7.539 C 13.385 7.608 13.328 7.681 13.184 7.681 C 12.939 7.681 12.912 7.461 12.905 7.403 L 13.514 7.403 C 13.513 7.315 13.512 7.169 13.401 7.057 C 13.305 6.96 13.181 6.95 13.112 6.95 C 12.832 6.95 12.682 7.139 12.682 7.371 C 12.682 7.615 12.833 7.812 13.118 7.812 C 13.39 7.812 13.454 7.65 13.489 7.562 L 13.439 7.539 Z M 12.908 7.281 C 12.928 7.203 12.96 7.08 13.108 7.08 C 13.263 7.08 13.28 7.211 13.29 7.281 L 12.908 7.281 Z M 14.323 7.301 C 14.323 7.228 14.322 7.122 14.244 7.043 C 14.198 6.995 14.112 6.951 13.976 6.951 C 13.741 6.951 13.678 7.088 13.645 7.163 L 13.697 7.191 C 13.728 7.148 13.784 7.072 13.916 7.072 C 13.975 7.072 14.064 7.092 14.1 7.176 C 14.118 7.214 14.12 7.256 14.122 7.296 C 14.06 7.278 14.01 7.263 13.934 7.263 C 13.749 7.263 13.599 7.365 13.599 7.548 C 13.599 7.69 13.701 7.802 13.862 7.802 C 14.01 7.802 14.087 7.724 14.122 7.689 L 14.122 7.779 L 14.322 7.779 L 14.322 7.301 L 14.323 7.301 Z M 14.123 7.619 C 14.083 7.646 14.033 7.677 13.961 7.677 C 13.857 7.677 13.818 7.604 13.818 7.536 C 13.818 7.435 13.899 7.386 13.99 7.386 C 14.042 7.386 14.083 7.4 14.123 7.416 L 14.123 7.619 Z" style="fill: rgb(32, 51, 102);" transform="matrix(0.9999999999999999, 0, 0, 0.9999999999999999, 1.7763568394002505e-15, 0)"/>
</svg>